<?xml version="1.0" encoding="UTF-8" standalone="no"?>
<!-- Generator: Adobe Illustrator 19.0.0, SVG Export Plug-In . SVG Version: 6.00 Build 0)  -->

<svg
   xmlns:dc="http://purl.org/dc/elements/1.1/"
   xmlns:cc="http://creativecommons.org/ns#"
   xmlns:rdf="http://www.w3.org/1999/02/22-rdf-syntax-ns#"
   xmlns:svg="http://www.w3.org/2000/svg"
   xmlns="http://www.w3.org/2000/svg"
   xmlns:sodipodi="http://sodipodi.sourceforge.net/DTD/sodipodi-0.dtd"
   xmlns:inkscape="http://www.inkscape.org/namespaces/inkscape"
   version="1.1"
   id="Layer_1"
   x="0px"
   y="0px"
   viewBox="0 0 63.999998 64.000002"
   xml:space="preserve"
   sodipodi:docname="1529054538.svg"
   width="63.999996"
   height="64"
   inkscape:version="0.92.4 (5da689c313, 2019-01-14)"><metadata
   id="metadata43"><rdf:RDF><cc:Work
       rdf:about=""><dc:format>image/svg+xml</dc:format><dc:type
         rdf:resource="http://purl.org/dc/dcmitype/StillImage" /><dc:title></dc:title></cc:Work></rdf:RDF></metadata><defs
   id="defs41" /><sodipodi:namedview
   pagecolor="#ffffff"
   bordercolor="#666666"
   borderopacity="1"
   objecttolerance="10"
   gridtolerance="10"
   guidetolerance="10"
   inkscape:pageopacity="0"
   inkscape:pageshadow="2"
   inkscape:window-width="1920"
   inkscape:window-height="1016"
   id="namedview39"
   showgrid="false"
   fit-margin-top="0"
   fit-margin-left="0"
   fit-margin-right="0"
   fit-margin-bottom="0"
   borderlayer="true"
   inkscape:zoom="2.22"
   inkscape:cx="-129.74549"
   inkscape:cy="65.615357"
   inkscape:window-x="0"
   inkscape:window-y="27"
   inkscape:window-maximized="1"
   inkscape:current-layer="Layer_1" />

















<g
   id="g868"
   transform="matrix(0.12695314,0,0,0.12695314,0,-0.0249863)"
   style="stroke-width:7.87692165"><path
     id="path2"
     d="m 486.006,355.446 18.117,-10.24 c -1.182,-6.695 -2.757,-13.391 -5.12,-20.086 h -20.874 l -11.422,-20.086 10.634,-18.117 c -4.332,-5.12 -9.058,-10.24 -14.572,-14.572 l -18.117,10.24 -20.086,-11.815 v -20.874 c -0.394,0 -0.788,-0.394 -1.575,-0.394 -5.908,-1.969 -12.209,-3.938 -18.511,-5.12 l -10.634,18.117 h -23.237 l -10.24,-18.117 c -6.695,1.182 -13.391,2.757 -20.086,5.12 v 20.874 l -20.086,11.422 -18.117,-10.634 c -5.12,4.332 -10.24,9.058 -14.572,14.572 l 10.24,18.117 -11.815,20.086 h -20.874 c -2.363,6.695 -4.332,12.997 -5.514,19.692 l 18.117,10.634 v 23.237 l -18.117,10.24 c 1.182,6.695 2.757,13.391 5.12,20.086 h 20.874 l 11.422,20.086 -10.634,18.117 c 4.332,5.12 9.058,10.24 14.572,14.572 l 18.117,-10.24 20.086,11.815 v 20.874 c 0.394,0 0.788,0.394 1.575,0.394 5.908,1.969 12.209,3.938 18.511,5.12 l 10.634,-18.117 h 23.237 l 10.24,18.117 c 6.695,-1.182 13.391,-2.757 20.086,-5.12 v -20.874 l 20.086,-11.422 18.117,10.634 c 5.12,-4.332 10.24,-9.058 14.572,-14.572 l -10.24,-18.117 11.815,-20.086 h 20.874 c 2.363,-6.695 4.332,-12.997 5.514,-19.692 l -18.117,-10.634 z m -103.975,79.557 c -37.809,0 -68.923,-30.72 -68.923,-68.529 0,-37.809 30.72,-68.923 68.923,-68.923 37.809,0 68.923,30.72 68.923,68.529 0,37.809 -31.114,68.923 -68.923,68.923 z"
     style="fill:#415f6f;stroke-width:62.04589462"
     inkscape:connector-curvature="0" /><path
     id="path4"
     d="m 274.905,240.049 c 0,-7.483 -0.394,-15.36 -1.575,-22.843 l -22.449,-4.726 -8.271,-24.418 15.36,-17.329 c -3.545,-6.695 -7.877,-12.997 -12.603,-18.905 l -22.055,7.483 -19.298,-16.935 4.726,-22.843 c -6.695,-3.938 -13.391,-7.483 -20.48,-10.24 l -14.966,17.329 -25.206,-5.12 -7.483,-22.055 c -7.483,0 -15.36,0.394 -22.843,1.575 l -4.726,22.449 -24.418,8.271 -17.329,-15.36 c -6.695,3.545 -12.997,7.877 -18.905,12.603 l 7.483,22.055 -16.935,19.298 -22.843,-4.726 c -3.938,6.695 -7.483,13.391 -10.24,20.48 l 17.329,15.36 -5.12,25.206 L 0,233.748 c 0,7.483 0.394,15.36 1.575,22.843 l 22.843,4.726 8.271,24.418 -15.36,17.329 c 3.545,6.695 7.877,12.997 12.603,18.905 l 22.055,-7.483 19.298,16.935 -5.12,22.843 c 6.695,3.938 13.391,7.483 20.48,10.24 l 15.36,-17.329 25.206,5.12 7.483,22.055 c 7.483,0 15.36,-0.394 22.843,-1.575 l 4.726,-22.449 24.418,-8.271 17.329,15.36 c 6.695,-3.545 12.997,-7.877 18.905,-12.603 l -7.483,-22.055 16.935,-19.298 22.843,4.726 c 3.938,-6.695 7.483,-13.391 10.24,-20.48 l -17.329,-15.36 5.12,-25.206 z m -137.453,72.862 c -42.142,0 -76.406,-34.265 -76.406,-76.406 0,-42.141 34.265,-76.406 76.406,-76.406 42.141,0 76.406,34.265 76.406,76.406 0,42.141 -34.264,76.406 -76.406,76.406 z"
     style="fill:#26a6d1;stroke-width:62.04589462"
     inkscape:connector-curvature="0" /><path
     id="path6"
     d="m 456.862,125.046 16.542,-6.695 c -0.394,-5.908 -1.182,-11.815 -2.363,-17.723 l -17.723,-2.363 -7.483,-18.511 11.028,-14.178 c -3.151,-5.12 -6.695,-9.846 -10.634,-14.178 l -16.542,6.695 -15.754,-12.209 2.363,-17.723 -1.182,-0.788 c -5.12,-2.363 -10.24,-4.726 -15.36,-6.302 l -11.028,14.178 -19.692,-2.757 -6.695,-16.935 c -5.908,0.394 -11.815,0.788 -17.723,1.969 l -2.363,17.723 -18.905,7.877 -14.178,-11.028 c -5.12,3.151 -9.846,6.695 -14.178,10.634 l 6.695,16.542 -12.209,15.754 -17.723,-2.363 c -2.757,5.12 -5.12,10.634 -7.089,16.542 l 14.178,11.028 -2.757,19.692 -16.542,6.695 c 0.394,5.908 1.182,11.815 2.363,17.723 l 17.723,2.363 7.483,18.511 -11.028,14.178 c 3.151,5.12 6.695,9.846 10.634,14.178 l 16.542,-6.695 15.754,12.209 -2.363,17.723 1.182,0.788 c 5.12,2.363 10.24,4.726 15.36,6.302 l 11.028,-14.178 19.692,2.757 6.695,16.542 c 5.908,-0.394 11.815,-0.788 17.723,-2.363 l 2.363,-17.723 18.511,-7.483 14.178,11.028 c 5.12,-3.151 9.846,-6.695 14.178,-10.634 l -6.695,-16.542 12.209,-15.754 17.723,2.363 c 2.757,-5.12 5.12,-10.634 7.089,-16.542 l -14.178,-11.028 c 0,0 3.151,-19.299 3.151,-19.299 z m -90.191,58.289 c -33.871,0 -61.046,-27.175 -61.046,-61.046 0,-33.871 27.175,-61.046 61.046,-61.046 33.871,0 61.046,27.175 61.046,61.046 0,33.871 -27.175,61.046 -61.046,61.046 z"
     style="fill:#638090;stroke-width:62.04589462"
     inkscape:connector-curvature="0" /><g
     id="g8"
     style="stroke-width:7.87692165">
</g><g
     id="g10"
     style="stroke-width:7.87692165">
</g><g
     id="g12"
     style="stroke-width:7.87692165">
</g><g
     id="g14"
     style="stroke-width:7.87692165">
</g><g
     id="g16"
     style="stroke-width:7.87692165">
</g><g
     id="g18"
     style="stroke-width:7.87692165">
</g><g
     id="g20"
     style="stroke-width:7.87692165">
</g><g
     id="g22"
     style="stroke-width:7.87692165">
</g><g
     id="g24"
     style="stroke-width:7.87692165">
</g><g
     id="g26"
     style="stroke-width:7.87692165">
</g><g
     id="g28"
     style="stroke-width:7.87692165">
</g><g
     id="g30"
     style="stroke-width:7.87692165">
</g><g
     id="g32"
     style="stroke-width:7.87692165">
</g><g
     id="g34"
     style="stroke-width:7.87692165">
</g><g
     id="g36"
     style="stroke-width:7.87692165">
</g></g>
</svg>