<?xml version="1.0" encoding="UTF-8" standalone="no"?>
<svg
   xmlns:dc="http://purl.org/dc/elements/1.1/"
   xmlns:cc="http://creativecommons.org/ns#"
   xmlns:rdf="http://www.w3.org/1999/02/22-rdf-syntax-ns#"
   xmlns:svg="http://www.w3.org/2000/svg"
   xmlns="http://www.w3.org/2000/svg"
   xmlns:sodipodi="http://sodipodi.sourceforge.net/DTD/sodipodi-0.dtd"
   xmlns:inkscape="http://www.inkscape.org/namespaces/inkscape"
   id="svg8"
   version="1.1"
   viewBox="0 0 16.933334 16.933334"
   height="16.933334mm"
   width="16.933334mm"
   sodipodi:docname="icon.svg"
   inkscape:version="0.92.4 (5da689c313, 2019-01-14)">
  <sodipodi:namedview
     pagecolor="#ffffff"
     bordercolor="#666666"
     borderopacity="1"
     objecttolerance="10"
     gridtolerance="10"
     guidetolerance="10"
     inkscape:pageopacity="0"
     inkscape:pageshadow="2"
     inkscape:window-width="1920"
     inkscape:window-height="1016"
     id="namedview859"
     showgrid="false"
     fit-margin-top="0"
     fit-margin-left="0"
     fit-margin-right="0"
     fit-margin-bottom="0"
     inkscape:zoom="0.4"
     inkscape:cx="-67.405685"
     inkscape:cy="13.102672"
     inkscape:window-x="0"
     inkscape:window-y="27"
     inkscape:window-maximized="1"
     inkscape:current-layer="svg8" />
  <defs
     id="defs2" />
  <metadata
     id="metadata5">
    <rdf:RDF>
      <cc:Work
         rdf:about="">
        <dc:format>image/svg+xml</dc:format>
        <dc:type
           rdf:resource="http://purl.org/dc/dcmitype/StillImage" />
        <dc:title />
      </cc:Work>
    </rdf:RDF>
  </metadata>
  <path
     style="opacity:1;vector-effect:none;fill:#bed0d4;fill-opacity:1;stroke:none;stroke-width:0.79374993;stroke-linecap:butt;stroke-linejoin:bevel;stroke-miterlimit:4;stroke-dasharray:none;stroke-dashoffset:0;stroke-opacity:1;marker:none"
     d="M 10.021093,5.4472123 C 8.4342545,5.5113124 10.402015,7.8529231 7.6145217,8.4527134 4.4288145,9.1381876 5.9665508,5.1962112 3.3941078,7.1954257 0.82166519,9.1946402 5.0225826,8.676621 3.5729081,11.593606 c -1.4496745,2.916986 -3.57446845,-0.742953 -3.61424924,2.514059 -0.03978079,3.257012 2.17372864,-0.349006 3.55172084,2.602941 1.3779925,2.951948 -2.80912442,2.330284 -0.2862873,4.392497 2.5228367,2.062213 1.0818666,-1.916417 4.2498694,-1.152385 3.1680032,0.764033 0.071458,3.648084 3.2571652,2.96261 3.185707,-0.685474 -0.8247458,-2.040332 1.747697,-4.039546 2.572443,-1.999215 2.89838,2.219354 4.348054,-0.697632 1.449675,-2.916985 -2.109938,-0.628539 -2.070157,-3.885551 0.03978,-3.257012 3.542717,-0.880893 2.164725,-3.83284 C 15.543454,7.5058115 15.114315,11.714853 12.591478,9.65264 10.068641,7.5904268 14.111003,6.3352682 10.943,5.5712358 10.547,5.4757315 10.247784,5.4380551 10.021093,5.4472123 Z M 9.8226554,12.771829 A 2.4085707,2.4085707 0 0 1 12.231294,15.180467 2.4085707,2.4085707 0 0 1 9.8226554,17.589106 2.4085707,2.4085707 0 0 1 7.414017,15.180467 2.4085707,2.4085707 0 0 1 9.8226554,12.771829 Z"
     id="path820"
     inkscape:connector-curvature="0" />
  <path
     style="opacity:1;vector-effect:none;fill:#80bbc4;fill-opacity:1;stroke:none;stroke-width:0.79374993;stroke-linecap:butt;stroke-linejoin:bevel;stroke-miterlimit:4;stroke-dasharray:none;stroke-dashoffset:0;stroke-opacity:1;marker:none"
     d="m 9.9714574,5.692744 c -1.7470796,-0.0188 0.3421596,2.3958797 -2.4950996,3.0063797 -3.18569,0.68547 -1.64813,-3.2562897 -4.22056,-1.2570797 -2.57244002,1.9992097 1.62867,1.4810997 0.179,4.398079 -1.44967,2.91697 -3.57446996,-0.74279 -3.61424996,2.51421 -0.0398,3.257 2.17373996,-0.3491 3.55171996,2.60284 1.37799,2.95194 -2.80917002,2.33013 -0.28634,4.39234 1.32925,1.08655 1.55833,0.49595 1.94076,-0.1942 -0.085,0.13997 -0.17382,0.27573 -0.27657,0.39641 -0.48267,-0.097 -1.00178,-0.50512 -1.27754,-0.96051 0.005,-0.36277 0.52661,-0.57016 0.74626,-0.85215 1.02735,-1.09398 0.49719,-2.91741 -0.53165,-3.82503 -0.64874,-0.76617 -1.68757,-0.51372 -2.55116,-0.44938 -0.31655002,-0.31259 -0.17837002,-0.90184 -0.13927002,-1.32503 -0.10963,-0.47878 0.37202002,-0.40406 0.65453002,-0.28867 1.21121,0.40632 2.45629,-0.46145 2.9115,-1.56755 0.52846,-0.92851 0.37764,-2.13333 -0.38282,-2.8890793 -0.10614,-0.28894 -0.68128,-0.33017 -0.59277,-0.66817 0.36382,-0.35951 0.75573,-0.83903 1.28534,-0.9527097 0.46427,0.6703897 0.89114,1.5811697 1.77659,1.8054694 1.37367,0.2831 3.2022896,-0.2950397 3.5470692,-1.8054694 0.16549,-0.38202 -0.0872,-0.91071 0.2068,-1.21233 0.46486,0.004 0.92685,0.10747 1.35568,0.28494 0.22166,0.0156 0.24664,0.15699 0.20692,0.30825 0.23059,-0.56079 0.24619,-0.99735 -1.16071,-1.33666 -0.3465,-0.0836 -0.61888,-0.12259 -0.8334296,-0.1249 z m 1.8837496,1.71478 c -0.007,0.0121 -0.0139,0.0238 -0.0206,0.0347 -0.69183,1.0596697 -0.20856,2.4742994 0.74729,3.192359 0.75436,0.70346 1.90452,0.95072 2.83006,0.43201 0.37125,-0.0677 0.55413,-0.57554 0.92599,-0.54255 0.31042,0.41754 0.62801,0.92015 0.67381,1.45996 -0.45086,0.32537 -1.13856,0.34462 -1.60543,0.71211 -0.16999,0.14613 -0.31378,0.31501 -0.43264,0.50007 0.8629,-1.1925 2.91948,-0.11394 1.8095,-2.49174 -1.37798,-2.951929 -1.80682,1.2573 -4.32965,-0.8049096 -1.23922,-1.0129497 -0.89455,-1.8309297 -0.59837,-2.4919894 z m 2.9174,6.169859 c -0.3184,0.74572 -0.31309,1.65205 -0.0463,2.39819 0.28045,0.81968 1.04374,1.35262 1.8805,1.48007 0.46153,0.0461 0.30089,0.46751 0.16836,0.78595 1.21063,-2.63894 -2.19548,-0.5176 -2.15656,-3.70427 0.005,-0.39718 0.0613,-0.71043 0.15405,-0.95994 z m -0.59221,4.65413 c -0.21859,-7.5e-4 -0.43918,0.0348 -0.6565,0.1142 -0.77525,0.26781 -1.54558,0.84496 -1.9249,1.59655 0.13867,-0.26068 0.37221,-0.5347 0.74197,-0.82207 2.48106,-1.9282 2.87245,1.92652 4.19773,-0.41419 -0.13942,0.24767 -0.31714,0.48436 -0.58234,0.30551 -0.48189,-0.44907 -1.12019,-0.77775 -1.77596,-0.78 z m 2.45359,0.29869 c -0.0294,0.0545 -0.06,0.11293 -0.0931,0.17193 0.0305,-0.054 0.0615,-0.11121 0.0931,-0.17193 z m -9.3858292,1.2316 c -0.36922,0.003 -0.73432,0.0708 -1.06722,0.21027 -0.48997,0.12348 -0.7462,0.49769 -0.98185,0.89318 0.34104,-0.52128 0.87079,-0.97345 2.13681,-0.66813 3.1679992,0.76404 0.0715,3.6484 3.2571692,2.96292 2.61389,-0.56243 0.38326,-1.57577 0.91927,-3.02575 -0.0952,0.23841 -0.15084,0.49204 -0.1558,0.75711 -0.0333,0.57379 0.33247,1.08843 0.42225,1.61251 -0.39139,0.3807 -1.05589,0.39595 -1.57676,0.40953 -0.2291796,-0.33242 -0.0732,-0.86814 -0.18122,-1.2746 -0.3162896,-1.19412 -1.5665292,-1.88554 -2.7726492,-1.87704 z"
     id="use940-5-5"
     inkscape:connector-curvature="0" />
  <path
     style="opacity:1;vector-effect:none;fill:#80bbc4;fill-opacity:1;stroke:none;stroke-width:0.79374993;stroke-linecap:butt;stroke-linejoin:bevel;stroke-miterlimit:4;stroke-dasharray:none;stroke-dashoffset:0;stroke-opacity:1;marker:none"
     d="m 9.8867344,17.656285 a 2.4085707,2.4085707 0 0 0 2.4086386,-2.408638 2.4085707,2.4085707 0 0 0 -0.994254,-1.946651 2.4085707,2.4085707 0 0 1 0.465088,1.417484 2.4085707,2.4085707 0 0 1 -2.4086406,2.408638 2.4085707,2.4085707 0 0 1 -1.414383,-0.461987 2.4085707,2.4085707 0 0 0 1.943551,0.991154 z"
     id="use1077"
     inkscape:connector-curvature="0" />
</svg>
