<?xml version="1.0" encoding="UTF-8" standalone="no"?>
<!-- Generator: Adobe Illustrator 12.0.1, SVG Export Plug-In . SVG Version: 6.00 Build 51448)  -->

<svg
   xmlns:dc="http://purl.org/dc/elements/1.1/"
   xmlns:cc="http://creativecommons.org/ns#"
   xmlns:rdf="http://www.w3.org/1999/02/22-rdf-syntax-ns#"
   xmlns:svg="http://www.w3.org/2000/svg"
   xmlns="http://www.w3.org/2000/svg"
   xmlns:sodipodi="http://sodipodi.sourceforge.net/DTD/sodipodi-0.dtd"
   xmlns:inkscape="http://www.inkscape.org/namespaces/inkscape"
   id="Layer_1"
   xml:space="preserve"
   overflow="visible"
   viewBox="0 0 534.30853 600.57483"
   version="1.1"
   enable-background="new 0 0 410.195 587.375"
   sodipodi:docname="johnny-automatic-pickaxe.svg"
   width="534.30853"
   height="600.57483"
   style="overflow:visible"
   inkscape:version="0.92.4 (5da689c313, 2019-01-14)"><defs
   id="defs83" /><sodipodi:namedview
   pagecolor="#ffffff"
   bordercolor="#666666"
   borderopacity="1"
   objecttolerance="10"
   gridtolerance="10"
   guidetolerance="10"
   inkscape:pageopacity="0"
   inkscape:pageshadow="2"
   inkscape:window-width="1920"
   inkscape:window-height="1016"
   id="namedview81"
   showgrid="false"
   fit-margin-top="0"
   fit-margin-left="0"
   fit-margin-right="0"
   fit-margin-bottom="0"
   inkscape:zoom="0.6"
   inkscape:cx="211.69368"
   inkscape:cy="246.12428"
   inkscape:window-x="0"
   inkscape:window-y="27"
   inkscape:window-maximized="1"
   inkscape:current-layer="Layer_1" />
<rect
   style="opacity:1;vector-effect:none;fill:#ffffff;fill-opacity:1;stroke:none;stroke-width:7.55905485;stroke-linecap:round;stroke-linejoin:round;stroke-miterlimit:4;stroke-dasharray:none;stroke-dashoffset:0;stroke-opacity:1;marker:none"
   id="rect890"
   width="534.30853"
   height="600.57483"
   x="0"
   y="0"
   rx="0"
   ry="0" /><g
   id="g76"
   transform="rotate(33.983617,106.46833,326.71501)">
	<path
   d="m 204,530.23 c -2.12,5.954 -2.084,-4.944 -1.842,-7.364 2.12,-5.96 2.08,4.94 1.84,7.36 z"
   id="path2"
   inkscape:connector-curvature="0"
   style="fill:#c49f06" />
	<path
   d="m 178.22,528.39 c -3.702,2.981 -1.041,-16.062 -1.841,-22.093 3.7,-2.98 1.04,16.06 1.84,22.09 z"
   id="path4"
   inkscape:connector-curvature="0"
   style="fill:#c49f06" />
	<path
   d="m 181.9,489.73 c -1.946,-2.697 0.331,-39.931 1.841,-25.774 0.36,3.26 1.33,15.11 -1.84,25.77 z"
   id="path6"
   inkscape:connector-curvature="0"
   style="fill:#c49f06" />
	<path
   d="m 185.59,388.47 c -4.085,-5.623 -0.759,-37.617 -1.841,-53.393 4.08,5.62 0.75,37.62 1.84,53.39 z"
   id="path8"
   inkscape:connector-curvature="0"
   style="fill:#c49f06" />
	<path
   d="m 185.59,324.04 c -4.004,-0.957 -0.827,-24.91 -1.841,-34.981 4,0.95 0.82,24.9 1.84,34.98 z"
   id="path10"
   inkscape:connector-curvature="0"
   style="fill:#c49f06" />
	<path
   d="m 213.2,147.29 c -2.12,5.956 -2.084,-4.944 -1.842,-7.365 2.12,-5.95 2.08,4.95 1.84,7.37 z"
   id="path12"
   inkscape:connector-curvature="0"
   style="fill:#c49f06" />
	<path
   d="m 172.7,145.45 c -4.098,-3.914 -0.759,-31.127 -1.841,-44.186 1.752,-7.384 3.851,16.762 3.682,23.934 -0.19,7.95 -3.19,14.79 -1.84,20.26 z"
   id="path14"
   inkscape:connector-curvature="0"
   style="fill:#c49f06" />
	<path
   d="m 211.36,134.4 c -4.027,-1.542 -0.812,-26.158 -1.842,-36.821 4.03,1.547 0.81,26.161 1.84,36.821 z"
   id="path16"
   inkscape:connector-curvature="0"
   style="fill:#c49f06" />
	<path
   d="m 191.11,110.47 c 6.1,5.66 -3.14,26.07 0,0 z"
   id="path18"
   inkscape:connector-curvature="0" />
	<path
   d="m 187.43,104.95 c -1.197,5.19 -2.138,-4.242 -1.841,-5.524 0.85,-3.7 3.46,-1.487 1.84,5.524 z"
   id="path20"
   inkscape:connector-curvature="0" />
	<path
   d="m 170.86,92.061 c -0.701,3.504 -2.343,-1.176 -1.841,-3.682 0.7,-3.505 2.34,1.175 1.84,3.682 z"
   id="path22"
   inkscape:connector-curvature="0"
   style="fill:#c49f06" />
	<path
   d="m 204,62.603 c -2.079,5.915 -5.256,-1.772 -3.684,-5.522 V 44.193 20.259 c -0.041,-8.035 3.172,-0.312 1.842,3.682 v 11.046 23.934 c -0.3,2.14 0.4,3.277 1.84,3.682 z"
   id="path24"
   inkscape:connector-curvature="0" />
	<path
   d="m 176.38,58.921 c -3.083,5.302 -1.465,-9.407 -1.841,-12.887 3.08,-5.302 1.47,9.407 1.84,12.887 z"
   id="path26"
   inkscape:connector-curvature="0"
   style="fill:#eff0f0" />
	<path
   d="m 12.527,53.398 c -4.265,-8.008 -0.636,-23.91 -1.84,-34.98 4.264,8.008 0.636,23.91 1.84,34.98 z"
   id="path28"
   inkscape:connector-curvature="0" />
	<path
   d="m 215.04,51.558 c -6.8,-5.584 5.6,-6.203 0,0 z"
   id="path30"
   inkscape:connector-curvature="0"
   style="fill:#eff0f0" />
	<path
   d="m 167.18,49.716 c -6.591,-2.564 -1.821,-5.284 -1.841,-9.206 -0.028,-5.32 0.489,-19.833 1.841,-12.887 0.44,2.313 -0.29,9.806 0,22.093 z"
   id="path32"
   inkscape:connector-curvature="0"
   style="fill:#eff0f0" />
	<path
   d="M 7.004,47.875 C 3.302,50.856 5.962,31.813 5.163,25.783 8.865,22.802 6.204,41.845 7.004,47.875 Z"
   id="path34"
   inkscape:connector-curvature="0"
   style="fill:#eff0f0" />
	<path
   d="M 16.209,46.034 C 12.441,48.481 15.215,28.688 14.368,22.1 c 3.769,-2.447 0.994,17.346 1.841,23.934 z"
   id="path36"
   inkscape:connector-curvature="0" />
	<path
   d="m 215.04,42.352 c -4.004,-0.957 -0.827,-24.91 -1.841,-34.979 4,0.955 0.83,24.909 1.84,34.979 z"
   id="path38"
   inkscape:connector-curvature="0"
   style="fill:#ffffff" />
	<path
   d="m 176.38,40.511 c -3.946,0.203 -0.868,-22.407 -1.841,-31.298 3.95,-0.203 0.87,22.407 1.84,31.298 z"
   id="path40"
   inkscape:connector-curvature="0"
   style="fill:#eff0f0" />
	<path
   d="m 163.5,40.511 c -3.871,1.341 -0.923,-19.888 -1.841,-27.616 3.86,-1.341 0.92,19.888 1.84,27.616 z"
   id="path42"
   inkscape:connector-curvature="0"
   style="fill:#ffffff" />
	<path
   d="m 154.29,31.305 c -3.083,5.302 -1.465,-9.406 -1.84,-12.887 3.08,-5.302 1.46,9.407 1.84,12.887 z"
   id="path44"
   inkscape:connector-curvature="0" />
	<path
   d="m 218.73,27.624 c -3.625,3.5 -1.097,-14.768 -1.842,-20.251 3.62,-3.502 1.09,14.767 1.84,20.251 z"
   id="path46"
   inkscape:connector-curvature="0"
   style="fill:#ffffff" />
	<path
   d="m 187.43,29.465 c -6.569,-1.561 -0.221,-4.534 -1.841,-11.047 4.06,0.23 0.78,7.81 1.84,11.047 z"
   id="path48"
   inkscape:connector-curvature="0" />
	<path
   d="m 167.18,22.1 c -2.663,-0.442 -4.279,-15.153 1.841,-12.888 -2.54,2.374 -1.82,7.998 -1.84,12.888 z"
   id="path50"
   inkscape:connector-curvature="0"
   style="fill:#eff0f0" />
	<path
   d="m 213.2,578.1 c -17.584,19.274 -49.146,5.635 -51.55,-14.729 -1.726,-14.613 9.536,-28.284 11.046,-40.503 3.511,-28.416 0,-61.328 0,-93.895 0,-30.752 -0.68,-63.282 0,-93.895 1.229,-55.321 5.54,-110.96 0,-156.49 -0.877,-7.214 -4.95,-15.083 -5.523,-22.093 -1.37,-16.746 3.041,-32.961 1.841,-49.709 -1.423,-19.877 -6.15,-39.5 -9.205,-58.914 C 109.769,34.124 39.609,44.572 1.469,60.759 -0.99,44.41 -0.394,27.643 3.31,12.891 c 49.987,0.359 99.496,9.017 145.44,0 16.892,-3.315 31.514,-12.573 47.867,-12.888 12.181,-0.233 22.505,5.308 34.979,7.365 28.953,4.772 62.311,3.409 93.895,7.364 30.725,3.848 58.779,9.68 84.688,20.251 -3.614,2.692 -17.79,1.22 -27.731,0.299 -36.385,-3.936 -48.051,-4.418 -64.067,-5.891 -31.113,-2.946 -87.896,-3.409 -97.831,18.479 -5.594,12.327 -7.828,54.771 -7.362,75.483 0.325,14.666 2.896,28.797 5.522,38.662 -15.574,27.048 -7.015,66.781 -9.205,112.3 -1.354,28.071 -1.537,57.46 -1.842,86.53 -0.644,61.517 -9.988,127.42 0,174.9 2.76,13.11 12.74,27.73 5.52,42.35 z m -7.36,-38.66 c -4.7,-14.9 3.19,12.17 0,0 z M 181.9,84.7 c 1.496,7.237 -5.765,22.544 -1.841,20.252 3.401,-5.189 1.618,-15.565 5.523,-20.252 -6.877,27.131 9.22,38.181 -1.841,64.438 1.622,-5.739 3.865,-28.438 0,-27.616 -0.229,7.78 1.346,25.401 -3.683,12.888 0.363,9.027 3.972,25.192 -1.841,11.046 0.295,6.99 0.064,11.668 -3.682,5.523 0.124,8.229 4.209,2.346 7.364,5.523 -1.286,8.709 4.614,19.68 3.682,23.934 -0.022,0.099 -5.498,-3.247 -3.682,1.841 1.181,7.409 -2.393,19.577 1.841,23.933 1.181,-7.409 -2.394,-19.577 1.841,-23.933 0.127,21.087 -0.169,40.101 0,60.754 -0.065,-7.878 0.924,21.169 1.841,20.252 4.752,-4.75 0,-34.293 0,-42.345 0,-27.456 -1.147,-46.026 -1.841,-62.596 7.463,53.438 1.841,122.19 1.841,187.79 0,21.589 3.982,47.41 0,64.438 -0.487,2.076 -3.592,1.915 -3.682,3.681 -2.073,40.629 8.659,84.788 -3.683,123.35 4.344,-11.612 -0.906,-32.817 3.683,-44.185 -8.082,5.91 -1.865,25.091 -3.683,36.821 -0.897,5.783 -2.565,10.405 -5.523,12.888 -0.625,-3.467 4.263,-13.42 0,-9.206 -0.804,10.83 -3.165,25.269 0,38.662 7.724,7.202 16.134,7.257 29.458,5.522 16.019,-15.425 0.291,-27.044 -3.684,-47.866 -1.262,-6.62 -1.856,-15.399 -1.84,-20.253 0.009,-2.466 3.562,-1.64 3.682,-3.683 -0.031,0.533 -3.5,-1.123 -3.682,-1.84 0.287,1.132 1.754,-4.119 1.84,-5.523 2.16,-35.229 -1.982,-77.056 0,-119.67 3.629,-77.976 -1.367,-160.65 11.046,-224.61 -6.591,-23.572 -4.539,-63.31 0,-82.847 0.289,2.167 -0.315,5.227 1.843,5.523 3.513,-10.559 1.438,-25.44 -1.843,-7.364 -0.303,-11.956 -11.541,4.683 -20.25,1.841 -1.203,10.458 2.421,25.741 -1.841,33.139 -2.177,-10.097 4.529,-29.078 -3.682,-33.139 -8.325,-2.341 3.279,9.336 -3.682,11.046 0.294,-5.818 0.064,-11.112 -3.682,-12.888 3.55,7.579 -2.7,26.837 3.66,14.747 z m 29.46,79.164 c 3.27,-17.16 -4.69,19.97 0,0 z M 170.86,68.13 c 3.79,3.574 3.574,11.155 7.364,14.729 -0.99,-5.235 -2.72,-19.249 -7.36,-14.729 z m 31.3,454.74 c -0.242,2.42 -0.278,13.318 1.842,7.364 0.24,-2.42 0.28,-13.32 -1.84,-7.36 z M 176.38,506.3 c 0.8,6.031 -1.861,25.074 1.841,22.093 -0.8,-6.03 1.86,-25.07 -1.84,-22.09 z m 7.37,-42.34 c -1.511,-14.155 -3.787,23.077 -1.841,25.774 3.16,-10.66 2.19,-22.51 1.84,-25.77 z m 0,-128.88 c 1.082,15.774 -2.244,47.769 1.841,53.392 -1.09,-15.77 2.24,-47.77 -1.84,-53.39 z m 0,-46.03 c 1.014,10.071 -2.164,34.024 1.841,34.981 -1.02,-10.07 2.16,-34.02 -1.84,-34.98 z m 27.61,-149.12 c -0.242,2.42 -0.278,13.321 1.842,7.365 0.24,-2.43 0.28,-13.33 -1.84,-7.37 z M 174.54,125.2 c 0.168,-7.172 -1.93,-31.318 -3.682,-23.934 1.082,13.059 -2.257,40.271 1.841,44.186 -1.35,-5.48 1.65,-12.32 1.84,-20.26 z m 34.98,-27.617 c 1.029,10.663 -2.188,35.279 1.84,36.821 -1.03,-10.66 2.19,-35.274 -1.84,-36.817 z m -40.5,-9.205 c -0.501,2.506 1.14,7.186 1.841,3.682 0.5,-2.506 -1.14,-7.186 -1.84,-3.682 z m -3.68,-16.569 c 2.433,0.021 1.683,3.227 3.682,3.682 0.23,-5.093 3.514,-6.321 -1.841,-3.682 0,-1.023 -1.49,-2.09 -1.84,0 z m 7.36,-9.206 c -2.65,1.985 27.576,14.354 33.139,0 -3.065,-12.91 -3.065,-38.638 0,-51.549 v 22.093 c 0.679,4.95 -1.688,22.411 1.841,18.411 1.213,-14.13 -2.436,-33.12 1.842,-44.186 1.213,15.354 -2.438,35.577 1.84,47.867 V 3.69 C 199.749,3.736 187.314,2.961 178.224,5.531 v 57.072 c 4.243,-4.962 0.654,-17.755 1.841,-25.774 2.039,-7.779 -4.334,-23.973 3.683,-25.775 -3.019,11.796 -2.933,47.01 0,51.549 1.14,-4.996 -2.337,-14.611 1.841,-16.569 0.649,7.33 -2.296,18.252 3.682,20.251 14.39,1.501 2.762,-23.013 9.206,-29.457 -0.73,9.376 1.039,25.888 0,29.457 -9.02,4.418 -17.69,-1.659 -25.77,-3.682 z m 1.84,-16.569 c 0.376,3.48 -1.242,18.189 1.841,12.887 -0.37,-3.48 1.24,-18.189 -1.84,-12.887 z M 19.89,51.558 C 21.588,39.711 14.287,29.168 21.73,22.1 V 49.716 C 60.177,34.374 116.146,31.701 159.81,40.51 V 12.894 c -5.44,4.378 1.758,21.397 -3.682,25.775 -1.187,-8.019 2.402,-20.813 -1.841,-25.775 -43.11,12.198 -110.86,0.219 -147.29,5.524 4.756,7.906 -0.047,31.785 1.841,36.821 1.968,-1.077 5.589,-1.869 11.051,-3.681 z m 195.15,0 c 5.6,-6.203 -6.8,-5.584 0,0 z M 167.18,27.624 c -1.352,-6.945 -1.87,7.567 -1.841,12.887 0.021,3.921 -4.75,6.642 1.841,9.206 -0.29,-12.288 0.44,-19.781 0,-22.093 z M 5.16,25.783 C 5.96,31.813 3.299,50.856 7.001,47.875 6.201,41.845 8.862,22.802 5.16,25.783 Z M 213.2,7.372 c 1.014,10.07 -2.163,34.023 1.841,34.979 -1.01,-10.069 2.16,-34.023 -1.84,-34.979 z m 9.21,20.252 c 0.212,5.003 -2.751,18.098 0,11.046 6.99,-8.684 -1.701,-22.65 1.841,-29.458 4.671,7.983 3.136,14.945 1.841,25.775 38.139,-17.6 118.8,-9.716 154.65,-7.364 -44.607,-10.011 -94.075,-15.16 -147.28,-16.57 -5.825,0.302 -6.154,-4.894 -12.888,-3.682 -1.69,6.445 1.53,13.05 1.84,20.253 z M 174.54,9.212 c 0.973,8.891 -2.105,31.501 1.841,31.298 -0.97,-8.89 2.11,-31.5 -1.84,-31.298 z m -12.89,3.683 c 0.918,7.728 -2.03,28.957 1.841,27.616 -0.91,-7.728 2.03,-28.957 -1.84,-27.616 z m 55.23,-5.523 c 0.745,5.483 -1.783,23.752 1.842,20.251 -0.74,-5.483 1.79,-23.752 -1.84,-20.251 z m -47.86,1.84 c -6.12,-2.265 -4.503,12.446 -1.841,12.888 0.02,-4.89 -0.7,-10.514 1.84,-12.888 z"
   id="path52"
   inkscape:connector-curvature="0" />
	<path
   d="m 205.84,539.44 c 3.19,12.17 -4.7,-14.9 0,0 z"
   id="path54"
   inkscape:connector-curvature="0"
   style="fill:#c49f06" />
	<path
   d="m 211.36,163.86 c -4.69,19.97 3.27,-17.16 0,0 z"
   id="path56"
   inkscape:connector-curvature="0"
   style="fill:#c49f06" />
	<path
   d="m 178.22,82.855 c -3.79,-3.574 -3.574,-11.155 -7.364,-14.729 4.64,-4.52 6.37,9.494 7.36,14.729 z"
   id="path58"
   inkscape:connector-curvature="0"
   style="fill:#c49f06" />
	<path
   d="m 178.22,69.968 c 3.747,1.776 3.977,7.07 3.682,12.888 6.961,-1.71 -4.643,-13.387 3.682,-11.046 8.211,4.061 1.504,23.042 3.682,33.139 4.263,-7.398 0.638,-22.681 1.841,-33.139 8.71,2.842 19.949,-13.797 20.251,-1.841 3.281,-18.076 5.354,-3.195 1.842,7.364 -2.158,-0.296 -1.555,-3.356 -1.842,-5.523 -4.539,19.538 -6.592,59.275 0,82.847 -12.414,63.964 -7.418,146.63 -11.047,224.61 -1.982,42.612 2.16,84.439 0,119.67 -0.086,1.404 -1.553,6.655 -1.84,5.523 0.182,0.717 3.65,2.373 3.682,1.84 -0.119,2.043 -3.673,1.217 -3.682,3.684 -0.017,4.853 0.578,13.632 1.84,20.252 3.975,20.822 19.702,32.441 3.684,47.866 -13.323,1.733 -21.733,1.68 -29.458,-5.522 -3.165,-13.395 -0.804,-27.832 0,-38.662 4.263,-4.214 -0.625,5.739 0,9.206 2.958,-2.481 4.626,-7.104 5.523,-12.888 1.818,-11.73 -4.399,-30.911 3.683,-36.821 -4.589,11.366 0.661,32.571 -3.683,44.185 12.341,-38.562 1.609,-82.722 3.683,-123.35 0.09,-1.766 3.195,-1.604 3.682,-3.681 3.982,-17.027 0,-42.85 0,-64.438 0,-65.602 5.623,-134.35 -1.841,-187.79 0.693,16.569 1.841,35.14 1.841,62.596 0,8.052 4.752,37.594 0,42.345 -0.917,0.917 -1.906,-28.13 -1.841,-20.252 -0.169,-20.654 0.127,-39.667 0,-60.754 -4.234,4.356 -0.66,16.524 -1.841,23.933 -4.234,-4.356 -0.66,-16.524 -1.841,-23.933 -1.816,-5.088 3.66,-1.742 3.682,-1.841 0.932,-4.254 -4.968,-15.225 -3.682,-23.934 -3.155,-3.177 -7.241,2.706 -7.364,-5.523 3.747,6.146 3.977,1.467 3.682,-5.523 5.813,14.146 2.204,-2.019 1.841,-11.046 5.029,12.513 3.454,-5.108 3.683,-12.888 3.865,-0.822 1.622,21.877 0,27.616 11.061,-26.257 -5.036,-37.307 1.841,-64.438 -3.905,4.688 -2.122,15.062 -5.523,20.252 -3.923,2.292 3.337,-13.016 1.841,-20.252 -6.34,12.078 -0.09,-7.18 -3.66,-14.74 z m 3.68,476.83 c 3.853,-8.453 8.718,-25.604 3.682,-36.82 v 20.252 c -2.98,3.769 -1.437,12.063 -5.523,14.729 1.4,7.802 -3.393,21.801 3.683,23.933 -2.44,-5.52 -1.87,-14.08 -1.84,-22.09 z m -5.52,1.84 c -3.151,8.894 -0.85,16.244 1.841,23.935 2.175,0.893 4.173,1.964 5.523,3.683 3.13,0.412 4.556,-2.074 0,-1.841 -8.91,-4.04 -5.6,-19.14 -7.36,-25.78 z m 29.46,-473.15 c -0.128,-5.359 2.657,-4.06 -1.841,0 1.932,17.21 -5.639,45.714 0,55.231 -0.57,-14.76 2.1,-44.411 1.84,-55.229 z m -14.73,34.979 c -3.14,26.07 6.1,5.66 0,0 z m -5.52,-11.046 c -0.297,1.282 0.644,10.714 1.841,5.524 1.62,-7.011 -0.99,-9.224 -1.84,-5.526 z"
   id="path60"
   inkscape:connector-curvature="0"
   style="fill:#c49f06" />
	<path
   d="m 183.75,568.89 c -7.075,-2.132 -2.282,-16.131 -3.683,-23.933 4.087,-2.664 2.543,-10.96 5.523,-14.729 v -20.252 c 5.036,11.216 0.17,28.367 -3.682,36.82 -0.04,8.01 -0.61,16.57 1.84,22.09 z"
   id="path62"
   inkscape:connector-curvature="0" />
	<path
   d="m 183.75,574.42 c 4.556,-0.232 3.13,2.253 0,1.841 -1.351,-1.719 -3.348,-2.79 -5.523,-3.683 -2.691,-7.689 -4.993,-15.041 -1.841,-23.935 1.75,6.64 -1.56,21.74 7.36,25.78 z"
   id="path64"
   inkscape:connector-curvature="0" />
	<path
   d="m 204,130.72 c -5.639,-9.518 1.932,-38.021 0,-55.231 4.498,-4.06 1.713,-5.359 1.841,0 0.26,10.82 -2.41,40.471 -1.84,55.231 z"
   id="path66"
   inkscape:connector-curvature="0" />
	<path
   d="m 167.18,71.809 c 5.354,-2.64 2.071,-1.412 1.841,3.682 -1.999,-0.455 -1.25,-3.66 -3.682,-3.682 0.35,-2.09 1.84,-1.023 1.84,0 z"
   id="path68"
   inkscape:connector-curvature="0"
   style="fill:#c49f06" />
	<path
   d="m 198.48,66.286 c 1.039,-3.569 -0.73,-20.081 0,-29.457 -6.444,6.444 5.184,30.958 -9.206,29.457 -5.978,-1.999 -3.033,-12.921 -3.682,-20.251 -4.178,1.958 -0.701,11.573 -1.841,16.569 -2.933,-4.539 -3.019,-39.753 0,-51.549 -8.017,1.802 -1.644,17.996 -3.683,25.775 -1.187,8.019 2.402,20.812 -1.841,25.774 V 5.532 c 9.09,-2.569 21.524,-1.794 33.139,-1.841 V 55.24 c -4.278,-12.291 -0.627,-32.513 -1.842,-47.867 -4.275,11.066 -0.629,30.056 -1.84,44.186 -3.529,4 -1.162,-13.461 -1.842,-18.411 V 11.055 c -3.065,12.911 -3.065,38.639 0,51.549 -5.563,14.354 -35.79,1.985 -33.139,0 8.07,2.022 16.74,8.099 25.77,3.682 z m 3.68,-7.365 V 34.987 23.941 c 1.33,-3.994 -1.883,-11.717 -1.842,-3.682 v 23.934 12.888 c -1.572,3.75 1.604,11.438 3.684,5.522 -1.44,-0.405 -2.14,-1.542 -1.84,-3.682 z M 185.59,18.418 c 1.62,6.513 -4.729,9.486 1.841,11.047 -1.06,-3.237 2.22,-10.817 -1.84,-11.047 z"
   id="path70"
   inkscape:connector-curvature="0"
   style="fill:#eff0f0" />
	<path
   d="M 8.846,55.239 C 6.958,50.203 11.761,26.323 7.005,18.418 c 36.429,-5.305 104.17,6.674 147.28,-5.523 4.244,4.962 0.655,17.756 1.841,25.775 5.44,-4.378 -1.758,-21.397 3.682,-25.775 V 40.511 C 116.144,31.701 60.175,34.375 21.728,49.717 V 22.101 c -7.443,7.068 -0.142,17.611 -1.84,29.458 -5.45,1.811 -9.071,2.603 -11.034,3.68 z m 1.841,-36.821 c 1.204,11.07 -2.424,26.972 1.84,34.98 -1.204,-11.07 2.424,-26.972 -1.84,-34.98 z M 14.369,22.1 C 15.216,28.688 12.442,48.481 16.21,46.034 15.362,39.446 18.137,19.653 14.369,22.1 Z m 138.08,-3.682 c 0.375,3.481 -1.243,18.189 1.84,12.887 -0.38,-3.48 1.24,-18.189 -1.84,-12.887 z"
   id="path72"
   inkscape:connector-curvature="0"
   style="fill:#eff0f0" />
	<path
   d="m 220.57,7.372 c 6.732,-1.212 7.062,3.983 12.888,3.682 53.209,1.41 102.68,6.559 147.28,16.57 -35.85,-2.352 -116.51,-10.235 -154.65,7.364 1.295,-10.831 2.83,-17.792 -1.841,-25.775 -3.542,6.807 5.149,20.773 -1.841,29.458 -2.752,7.051 0.212,-6.043 0,-11.046 -0.31,-7.204 -3.53,-13.809 -1.84,-20.253 z"
   id="path74"
   inkscape:connector-curvature="0"
   style="fill:#eff0f0" />
</g>
<metadata
   id="metadata78"><rdf:RDF><cc:Work><dc:format>image/svg+xml</dc:format><dc:type
         rdf:resource="http://purl.org/dc/dcmitype/StillImage" /><cc:license
         rdf:resource="http://creativecommons.org/publicdomain/zero/1.0/" /><dc:publisher><cc:Agent
           rdf:about="http://openclipart.org/"><dc:title>Openclipart</dc:title></cc:Agent></dc:publisher><dc:title>pickaxe</dc:title><dc:date>2006-10-27T20:38:49</dc:date><dc:description>drawing of a pick or pickaxe</dc:description><dc:source>https://openclipart.org/detail/985/pickaxe-by-johnny_automatic</dc:source><dc:creator><cc:Agent><dc:title>johnny_automatic</dc:title></cc:Agent></dc:creator><dc:subject><rdf:Bag><rdf:li>pick</rdf:li><rdf:li>pickaxe</rdf:li><rdf:li>tool</rdf:li></rdf:Bag></dc:subject></cc:Work><cc:License
       rdf:about="http://creativecommons.org/publicdomain/zero/1.0/"><cc:permits
         rdf:resource="http://creativecommons.org/ns#Reproduction" /><cc:permits
         rdf:resource="http://creativecommons.org/ns#Distribution" /><cc:permits
         rdf:resource="http://creativecommons.org/ns#DerivativeWorks" /></cc:License></rdf:RDF></metadata></svg>