<?xml version="1.0" encoding="UTF-8" standalone="no"?>
<!-- Created with Inkscape (http://www.inkscape.org/) -->

<svg
     xmlns:dc="http://purl.org/dc/elements/1.1/"
     xmlns:cc="http://creativecommons.org/ns#"
     xmlns:rdf="http://www.w3.org/1999/02/22-rdf-syntax-ns#"
     xmlns:svg="http://www.w3.org/2000/svg"
     xmlns="http://www.w3.org/2000/svg"
     xmlns:sodipodi="http://sodipodi.sourceforge.net/DTD/sodipodi-0.dtd"
     xmlns:inkscape="http://www.inkscape.org/namespaces/inkscape"
     width="24.681015"
     height="19.999966"
     id="svg4370"
     version="1.1"
     inkscape:version="0.48.5 r10040"
     sodipodi:docname="big-bg.svg">
    <defs
         id="defs4372" />
    <sodipodi:namedview
         id="base"
         pagecolor="#ffffff"
         bordercolor="#666666"
         borderopacity="1.0"
         inkscape:pageopacity="0.0"
         inkscape:pageshadow="2"
         inkscape:zoom="6"
         inkscape:cx="-43.683056"
         inkscape:cy="-13.473809"
         inkscape:document-units="px"
         inkscape:current-layer="layer1"
         showgrid="true"
         fit-margin-top="0"
         fit-margin-left="0"
         fit-margin-right="0"
         fit-margin-bottom="0"
         inkscape:window-width="1920"
         inkscape:window-height="1124"
         inkscape:window-x="0"
         inkscape:window-y="24"
         inkscape:window-maximized="1"
         showborder="false">
        <inkscape:grid
             type="xygrid"
             id="grid3188"
             empspacing="5"
             visible="true"
             enabled="true"
             snapvisiblegridlinesonly="true"
             originx="28.679442px"
             originy="-664.00006px" />
    </sodipodi:namedview>
    <metadata
         id="metadata4375">
        <rdf:RDF>
            <cc:Work
                 rdf:about="">
                <dc:format>image/svg+xml</dc:format>
                <dc:type
                     rdf:resource="http://purl.org/dc/dcmitype/StillImage" />
                <dc:title />
            </cc:Work>
        </rdf:RDF>
    </metadata>
    <g
         inkscape:label="Layer 1"
         inkscape:groupmode="layer"
         id="layer1"
         transform="translate(2854.7568,1547.5604)">
        <rect
             style="fill:#929292;fill-opacity:1;fill-rule:nonzero;stroke:none"
             id="rect5259"
             width="196.06206"
             height="196.06206"
             x="-2823.9644"
             y="-1061.743" />
        <path
             style="fill:#7a7a7a;fill-opacity:1;fill-rule:nonzero;stroke:none"
             d="m -2717.2901,-1063.7982 c -0.8982,0 -2.3552,0.06 -3.9622,0.1641 l -4.6812,0.297 0.2345,3.6339 0.2422,3.634 -4.8687,0.2891 c -13.3072,0.7848 -24.5018,3.6995 -36.2223,9.4327 -29.8415,14.5973 -49.8678,44.7543 -51.2584,77.19624 l -0.2423,5.7362 -3.8996,0 -3.8997,0 0,4.79056 0,4.79055 2.0162,0 c 10.1433,0 24.1972,3.21566 34.8704,7.97911 19.4142,8.66452 36.4982,25.7485 45.1627,45.16267 4.7634,10.67322 7.9791,24.73497 7.9791,34.87819 l 0,2.00845 4.7749,0 4.7828,0 0.1172,-3.85278 0.1172,-3.85277 5.6268,-0.29697 c 32.8251,-1.69933 62.4888,-21.45911 77.1415,-51.39123 5.6834,-11.6098 8.6032,-22.84887 9.3858,-36.12074 l 0.2891,-4.86873 3.634,0.23442 3.634,0.23448 0.3048,-4.67337 c 0.1666,-2.57121 0.2091,-4.769 0.094,-4.88433 -0.1154,-0.11539 -2.7103,-0.38142 -5.7675,-0.58614 -22.2785,-1.49192 -42.0968,-10.47739 -57.862,-26.24261 -15.7509,-15.7509 -24.7521,-35.5962 -26.2427,-57.8542 -0.2047,-3.0572 -0.463,-5.6522 -0.5783,-5.7675 -0.043,-0.043 -0.3833,-0.07 -0.9221,-0.07 z m 46.7569,0.3438 c -2.3071,3e-4 -4.9703,0.01 -8.0494,0.01 l -22.2883,0 0.2735,3.8528 c 1.005,14.1566 5.0107,26.1232 12.5196,37.4024 12.8074,19.2382 33.4613,31.20534 57.0805,33.07297 0.917,0.0725 2.3758,0.16466 3.2354,0.20322 l 1.563,0.0703 0,-22.24919 c 0,-24.7248 0.2421,-22.765 -2.8603,-22.765 -2.4181,0 -7.4348,-1.5579 -11.0894,-3.4464 -4.6777,-2.4172 -9.7972,-7.5463 -12.2383,-12.2695 -1.8067,-3.4958 -3.4073,-8.7623 -3.4073,-11.1988 0,-2.5313 1.4107,-2.6824 -14.739,-2.6806 z m -125.3051,0.01 0,1.2661 c 0,5.027 -3.3256,13.2999 -7.1585,17.8025 -5.0953,5.9854 -13.6699,10.4856 -20.0064,10.5111 -3.0932,0.013 -2.8446,-1.9457 -2.8446,22.7728 l 0,22.24921 1.4223,0 1.4223,0 1.5161,-4.82967 c 7.971,-25.30864 25.8733,-46.64004 49.4062,-58.87014 5.3429,-2.7767 12.7099,-5.7848 17.6071,-7.1897 3.2008,-0.9183 3.2355,-0.9392 3.2355,-2.3211 l 0,-1.3911 -22.3039,0 -22.2961,0 z m 70.1939,23.4997 c 0.7675,-0.01 1.3355,0.014 1.5943,0.07 0.9988,0.2181 1.2429,0.6105 1.9928,3.2354 9.5829,33.5413 36.2445,60.12993 69.2875,69.0921 l 3.6418,0.99251 0.062,1.46136 c 0.6024,14.28663 -3.507,29.84146 -11.152,42.21645 -11.9751,19.38445 -31.198,32.31224 -53.509,35.9723 -1.9486,0.31965 -6.0937,0.70696 -9.2139,0.85965 l -5.6736,0.27352 -0.3048,-1.62551 c -0.7483,-4.02746 -4.636,-14.58329 -7.5024,-20.37362 -9.9529,-20.10581 -25.3701,-35.52605 -45.4518,-45.45182 -5.4938,-2.71545 -13.7342,-5.81137 -19.342,-7.27573 l -1.8288,-0.48455 0.2579,-5.48613 c 0.9189,-19.63876 8.6422,-37.06023 22.5931,-50.95353 11.4761,-11.4288 24.9274,-18.4156 41.2474,-21.4208 2.8183,-0.5191 9.9754,-1.0725 13.301,-1.1019 z m -0.8674,46.56934 c -4.7459,0.008 -8.3288,0.89508 -12.8478,3.07911 -8.024,3.87797 -13.9705,11.10099 -16.2942,19.79532 -1.105,4.1343 -1.0221,11.39092 0.1797,15.6143 2.4653,8.66302 8.225,15.59305 16.1145,19.39674 3.6704,1.7696 5.7028,2.38815 9.5343,2.90716 5.7637,0.78075 12.7178,-0.51421 18.3026,-3.40732 4.3704,-2.26401 9.8565,-7.55392 12.1679,-11.73028 4.5979,-8.30776 5.2004,-18.81846 1.563,-27.15703 -4.7977,-10.9985 -14.7624,-17.91092 -26.61,-18.45109 -0.7314,-0.0335 -1.432,-0.048 -2.11,-0.047 z m -99.336,54.97045 0,22.24141 0,22.24139 2.954,0.29697 c 1.6237,0.15999 4.3928,0.75862 6.1504,1.32854 11.1683,3.62146 19.5875,14.00033 20.7253,25.54713 l 0.2891,2.94624 22.2414,0 22.2493,0 0,-2.89935 c 0,-3.49252 -1.0112,-10.6964 -2.1179,-15.09852 -6.7799,-26.96833 -27.9979,-47.984 -55.1971,-54.6813 -3.8407,-0.9457 -11.1563,-1.92251 -14.3874,-1.92251 l -2.9071,0 z m 198.25,0 c -1.3819,0 -1.4027,0.027 -2.321,3.22762 -1.4096,4.91314 -4.4139,12.27945 -7.1898,17.60709 -12.3078,23.62224 -33.5104,41.42124 -58.8389,49.3984 l -4.8609,1.53174 0,1.42232 0,1.41451 22.257,0 c 24.7186,0 22.7525,0.24857 22.765,-2.84465 0.025,-6.33643 4.5336,-14.91107 10.519,-20.00631 4.5025,-3.83291 12.7755,-7.15851 17.8025,-7.15851 l 1.266,0 0,-22.2961 0,-22.29611 -1.3989,0 z"
             id="path5267"
             inkscape:connector-curvature="0" />
        <rect
             style="fill:#707070;fill-opacity:1;fill-rule:nonzero;stroke:none"
             id="rect3015"
             width="60"
             height="40"
             x="-2871.0774"
             y="-1558.5604" />
        <path
             style="fill:#5d5d5d;fill-opacity:1;fill-rule:nonzero;stroke:none"
             d="M -2854.7256,-1547.5604 -2854.7256,-1543.2167 -2851.2256,-1540.3729 -2838.8818,-1530.3729 -2835.4131,-1527.5604 -2830.0381,-1527.5604 -2830.0381,-1531.9354 -2830.0693,-1531.9042 -2833.5381,-1534.7167 -2845.8818,-1544.7167 -2849.3818,-1547.5604 -2854.7256,-1547.5604 z M -2835.4131,-1547.5604 -2830.0381,-1543.2167 -2830.0381,-1547.5604 -2835.4131,-1547.5604 z M -2854.7256,-1531.9042 -2854.7256,-1527.5604 -2849.3818,-1527.5604 -2854.7256,-1531.9042 z"
             id="rect5259-1-1-8"
             inkscape:connector-curvature="0" />
    </g>
</svg>
