<?xml version="1.0" encoding="UTF-8" standalone="no"?>
<!-- Created with Inkscape (http://www.inkscape.org/) -->

<svg
     xmlns:dc="http://purl.org/dc/elements/1.1/"
     xmlns:cc="http://creativecommons.org/ns#"
     xmlns:rdf="http://www.w3.org/1999/02/22-rdf-syntax-ns#"
     xmlns:svg="http://www.w3.org/2000/svg"
     xmlns="http://www.w3.org/2000/svg"
     xmlns:sodipodi="http://sodipodi.sourceforge.net/DTD/sodipodi-0.dtd"
     xmlns:inkscape="http://www.inkscape.org/namespaces/inkscape"
     version="1.1"
     width="710.92517"
     height="182.37431"
     id="svg3861"
     inkscape:version="0.48.5 r10040"
     sodipodi:docname="FoofurpleCOMIC.svg">
    <sodipodi:namedview
         pagecolor="#ffffff"
         bordercolor="#666666"
         borderopacity="1"
         objecttolerance="10"
         gridtolerance="10"
         guidetolerance="10"
         inkscape:pageopacity="0"
         inkscape:pageshadow="2"
         inkscape:window-width="640"
         inkscape:window-height="480"
         id="namedview2989"
         showgrid="false"
         inkscape:zoom="0.9"
         inkscape:cx="47.810253"
         inkscape:cy="-36.841596"
         inkscape:current-layer="svg3861"
         fit-margin-top="0"
         fit-margin-left="0"
         fit-margin-right="0"
         fit-margin-bottom="0" />
    <defs
         id="defs3863" />
    <metadata
         id="metadata3866">
        <rdf:RDF>
            <cc:Work
                 rdf:about="">
                <dc:format>image/svg+xml</dc:format>
                <dc:type
                     rdf:resource="http://purl.org/dc/dcmitype/StillImage" />
                <dc:title />
            </cc:Work>
        </rdf:RDF>
    </metadata>
    <path
         d="M 67.695607,48.858184 C 49.497317,48.858424 33.906057,55.34341 20.937157,68.28981 8.0728373,81.131963 1.6466973,96.626143 1.6466973,114.79297 1.6466973,132.9598 8.0728373,148.52401 20.937157,161.47051 33.906057,174.31265 49.497317,180.72761 67.695607,180.72761 83.488267,180.72772 97.464257,175.78484 109.59658,165.86622 121.72852,155.94741 129.34873,143.29285 132.48648,127.94499 L 133.43007,123.09581 99.846437,123.09581 98.763017,125.74709 C 96.357397,132.42915 92.319197,137.7576 86.671567,141.72505 80.814547,145.79697 74.493737,147.83008 67.695607,147.83008 58.596357,147.83008 50.800797,144.60507 44.316427,138.13172 37.936487,131.76292 34.741017,123.98068 34.741077,114.79297 34.741017,105.70951 38.006637,97.927473 44.491067,91.454123 50.975527,84.980976 58.701007,81.755985 67.695607,81.755798 71.251567,81.755985 74.657627,82.281721 77.899997,83.325639 81.142117,84.36981 84.126907,85.877317 86.846307,87.860907 89.565557,89.844683 91.918167,92.193273 93.905437,94.907803 95.997167,97.622433 97.612367,100.60204 98.763017,103.83861 L 99.846437,106.48998 133.43007,106.48998 132.48648,101.64088 C 129.34873,86.188763 121.65844,73.568946 109.42179,63.754641 97.289527,53.83599 83.383667,48.858349 67.695607,48.858184 z M 217.96568,48.858184 C 199.76727,48.858424 184.21088,55.34341 171.24208,68.28981 158.37778,81.131963 151.91668,96.626143 151.91668,114.79297 151.91668,132.9598 158.37778,148.52401 171.24208,161.47051 184.21088,174.31265 199.76727,180.72761 217.96568,180.72761 236.16368,180.72761 251.71987,174.31265 264.58427,161.47051 277.553,148.5241 284.01444,132.9598 284.01462,114.79297 284.01444,96.626253 277.553,81.131963 264.58427,68.28981 251.71987,55.34341 236.16368,48.858349 217.96568,48.858184 z M 304.03886,48.858184 304.03886,180.72761 337.13314,180.72761 337.13314,97.873233 370.08764,130.91023 403.18202,97.873233 403.18202,180.72761 436.13656,180.72761 436.13656,48.858184 405.5584,48.858184 370.08764,84.267594 334.65193,48.858184 304.03886,48.858184 z M 469.4406,48.858184 469.4406,81.755798 496.62904,81.755798 496.62904,147.83008 469.4406,147.83008 469.4406,180.72761 556.77197,180.72761 556.77197,147.83008 529.58356,147.83008 529.58356,81.755798 556.77197,81.755798 556.77197,48.858184 469.4406,48.858184 z M 643.54426,48.858184 C 625.34591,48.858424 609.78949,55.34341 596.82056,68.28981 583.9563,81.131963 577.49523,96.626143 577.49523,114.79297 577.49523,132.9598 583.9563,148.52401 596.82056,161.47051 609.78949,174.31265 625.34591,180.72761 643.54426,180.72761 659.33676,180.72772 673.31266,175.78484 685.44496,165.86622 697.57706,155.94741 705.19726,143.29285 708.33486,127.94499 L 709.27846,123.09581 675.72976,123.09581 674.61156,125.74709 C 672.20586,132.42915 668.20256,137.7576 662.55506,141.72505 656.69796,145.79697 650.34216,147.83008 643.54426,147.83008 634.44491,147.83008 626.68435,144.60507 620.1999,138.13172 613.81981,131.76292 610.62444,123.98068 610.62452,114.79297 610.62444,105.70951 613.85501,97.927473 620.33975,91.454123 626.82411,84.980976 634.54953,81.755985 643.54426,81.755798 647.09996,81.755985 650.50606,82.281721 653.74836,83.325639 656.99076,84.36981 659.97536,85.877317 662.69466,87.860907 665.41396,89.844683 667.76676,92.193273 669.75396,94.907803 671.84556,97.622433 673.46086,100.60204 674.61156,103.83861 L 675.72976,106.48998 709.27846,106.48998 708.33486,101.64088 C 705.19726,86.188763 697.54186,73.568946 685.30516,63.754641 673.17286,53.83599 659.23216,48.858349 643.54426,48.858184 z M 217.96568,81.755798 C 227.06477,81.755985 234.86028,84.980976 241.34485,91.454123 247.82915,97.927473 251.09483,105.70951 251.09494,114.79297 251.09483,123.87635 247.82915,131.65858 241.34485,138.13172 234.86028,144.60507 227.06477,147.83008 217.96568,147.83008 208.86643,147.83008 201.07076,144.60507 194.58651,138.13172 188.20652,131.76292 185.04598,123.98068 185.04605,114.79297 185.04598,105.70951 188.2766,97.927473 194.76108,91.454123 201.24553,84.980976 208.97109,81.755985 217.96568,81.755798 z"
         id="path3821"
         style="font-size:40px;font-style:normal;font-variant:normal;font-weight:normal;font-stretch:normal;line-height:125%;letter-spacing:3.29999876px;word-spacing:0px;color:#000000;fill:#dcdcdc;fill-opacity:1;stroke:#767676;stroke-width:3.29339457;stroke-miterlimit:4;stroke-opacity:1;stroke-dasharray:none;marker:none;visibility:visible;display:inline;overflow:visible;enable-background:accumulate;font-family:Vertigo Upright 2 BRK;-inkscape-font-specification:Vertigo Upright 2 BRK"
         inkscape:connector-curvature="0" />
    <path
         inkscape:connector-curvature="0"
         style="color:#000000;fill:none;stroke:#9d85e4;stroke-width:14.07400036;stroke-linecap:round;stroke-linejoin:round;stroke-miterlimit:4;stroke-opacity:0.20075761;stroke-dasharray:none;marker:none;visibility:visible;display:inline;overflow:visible;enable-background:accumulate"
         id="path2998"
         d="M 176.87948,7.0370002 C 170.97874,7.0370002 165.8648,8.6087332 160.75086,11.359326 155.63687,14.109902 153.27662,17.646315 153.27662,21.182789 153.27662,22.361573 153.27662,23.933366 153.27662,25.898062 H 148.55603 L 146.58913,29.827422 H 152.88323 L 153.27662,64.01315 C 153.27662,71.086052 151.70312,74.622461 148.94944,74.622461 148.16269,74.622461 147.7693,74.622461 147.37592,74.229514 147.7693,73.44362 148.16269,72.657778 149.34278,71.478937 150.12955,70.300137 150.91635,69.121296 150.91635,67.942506 150.91635,66.763738 150.12955,65.191929 148.16269,64.01315 146.58913,62.834288 144.62226,62.441351 142.26195,62.441351 139.90168,62.441351 137.54138,63.227245 135.96786,64.406035 134.39433,65.977771 133.60758,67.549559 133.60758,69.514243 133.60758,72.264831 135.1811,74.229514 138.32812,75.408313 140.68845,76.587143 144.22885,77.373053 148.16269,77.373053 156.42369,77.373053 162.32437,75.015408 166.25819,70.693043 169.40519,66.763738 171.37213,62.048466 171.37213,56.547311 V 29.827422 H 179.23978 L 181.20664,25.898062 H 171.37213 V 21.182789 C 171.37213,13.324006 172.94568,9.7875782 176.48611,9.7875782 177.27286,9.7875782 178.05961,10.180526 178.05961,10.573489 L 176.09273,12.931103 C 174.91254,14.50285 174.5192,15.681635 174.5192,16.86048 174.5192,18.432212 175.30594,19.611072 176.87948,20.789841 178.84638,21.968686 180.81329,22.361573 183.17356,22.361573 185.92724,22.361573 187.89413,21.968686 189.46766,20.396893 191.43456,19.218124 192.22131,17.646315 192.22131,15.681635 192.22131,12.931103 190.6478,10.966423 187.50077,9.3946302 184.74713,7.8229122 181.20664,7.0370002 176.87948,7.0370002 z M 311.80917,7.0370002 C 306.30185,7.0370002 300.7945,8.6087332 296.07392,11.359326 290.95994,14.109902 288.20629,17.646315 288.20629,21.182789 288.20629,22.361573 288.20629,23.933366 288.20629,25.898062 H 283.48575 L 281.51881,29.827422 H 288.20629 L 288.20629,64.01315 C 288.20629,71.086052 286.63278,74.622461 284.27251,74.622461 283.48575,74.622461 283.09234,74.622461 282.69894,74.229514 282.69894,73.44362 283.48575,72.657778 284.27251,71.478937 285.4526,70.300137 285.84601,69.121296 285.84601,67.942506 285.84601,66.763738 285.05926,65.191929 283.09234,64.01315 281.51881,62.834288 279.55191,62.441351 277.19162,62.441351 274.83134,62.441351 272.86442,63.227245 271.29092,64.406035 269.324,65.977771 268.53724,67.549559 268.53724,69.514243 268.53724,72.264831 270.11075,74.229514 273.25782,75.408313 276.01149,76.587143 279.15849,77.373053 283.48575,77.373053 291.35336,77.373053 297.25409,75.015408 301.18786,70.693043 304.72828,66.763738 306.30185,62.048466 306.30185,56.547311 V 29.827422 H 314.16945 L 316.52968,25.898062 H 306.30185 V 21.182789 C 306.30185,13.324006 307.87537,9.7875782 311.41575,9.7875782 312.59592,9.7875782 312.98926,10.180526 312.98926,10.573489 L 311.02238,12.931103 C 310.23562,14.50285 309.44886,15.681635 309.44886,16.86048 309.44886,18.432212 310.23562,19.611072 312.20252,20.789841 314.16945,21.968686 316.13637,22.361573 318.10327,22.361573 320.85694,22.361573 323.21722,21.968686 324.79071,20.396893 326.36427,19.218124 327.54439,17.646315 327.54439,15.681635 327.54439,12.931103 325.57752,10.966423 322.43045,9.3946302 319.67677,7.8229122 316.13637,7.0370002 311.80917,7.0370002 z M 484.11006,7.0370002 C 479.78287,7.0370002 476.63578,7.8229122 473.48875,9.0016822 470.34168,10.573489 468.76818,12.538154 468.76818,14.895798 468.76818,16.86048 469.94834,18.432212 471.52183,20.00402 473.09536,21.575738 475.45567,22.361573 477.81595,22.361573 480.17623,22.361573 482.1431,21.575738 483.71667,20.396893 485.68355,19.218124 486.47034,18.039324 486.47034,16.467532 486.47034,15.288762 486.07694,14.109902 484.89678,12.931103 483.71667,11.752258 483.32327,10.966423 483.32327,10.573489 483.71667,9.7875782 484.11006,9.7875782 484.89678,9.7875782 487.25711,9.7875782 488.4372,13.324006 488.4372,20.789841 V 56.547311 C 488.4372,62.048466 490.01075,66.763738 493.1578,70.693043 497.09161,75.015408 503.38567,77.373053 511.64668,77.373053 515.58051,77.373053 519.12095,76.587143 521.87461,75.408313 525.02166,74.229514 526.5952,72.264831 526.5952,69.514243 526.5952,67.549559 525.80841,65.977771 523.84155,64.406035 522.26798,63.227245 520.30108,62.441351 517.54745,62.441351 515.58051,62.441351 513.22023,62.834288 511.64668,64.01315 510.07319,65.191929 508.49964,66.763738 508.49964,67.942506 508.49964,69.121296 509.67979,70.300137 510.46655,71.478937 511.64668,72.657778 512.04013,73.44362 512.43346,74.229514 512.04013,74.622461 511.64668,74.622461 510.85996,74.622461 507.71287,74.622461 506.53276,71.478937 506.53276,64.798982 V 28.25569 C 506.53276,22.361573 504.9592,17.646315 501.41879,14.109902 497.48497,9.3946302 491.58427,7.0370002 484.11006,7.0370002 z M 541.54362,25.112165 C 534.4628,25.112165 528.56206,27.076922 524.23489,31.006281 519.90771,34.542696 517.94079,38.472131 517.94079,43.580294 517.94079,48.295612 519.90771,52.617872 523.84155,56.154364 528.1687,59.690774 533.67603,61.655457 540.7569,61.655457 546.26424,61.655457 550.5914,61.262552 553.73849,60.083711 557.2789,58.511974 560.03254,56.547311 561.60607,53.010881 562.39282,52.224925 562.39282,51.046146 562.39282,49.867346 562.39282,47.902602 561.60607,46.723817 560.03254,45.54502 558.85241,44.366174 556.49214,43.580294 553.73849,43.580294 551.37815,43.580294 549.01787,44.366174 547.44437,45.54502 545.87086,46.723817 544.69071,48.295612 544.69071,50.260293 544.69071,52.224925 545.87086,53.796703 548.23114,54.582617 548.62452,54.975503 549.41129,54.975503 550.19802,55.36845 551.37815,55.761417 551.77157,55.761417 551.77157,56.154364 551.77157,56.154364 550.5914,56.547311 547.44437,56.940186 540.36354,56.940186 536.42972,52.224925 536.42972,42.401494 H 562.39282 C 562.39282,37.686222 560.81931,33.75686 557.2789,30.613334 553.73849,27.076922 548.23114,25.112165 541.54362,25.112165 z M 461.68733,25.112165 C 457.36011,25.112165 453.81969,26.29101 451.85277,28.25569 V 25.898062 H 427.06976 V 28.25569 C 429.82343,28.648639 431.397,28.648639 431.79035,28.648639 433.36392,29.041587 433.75724,29.827422 433.75724,31.399231 L 433.75724,71.086052 C 433.75724,72.657778 433.75724,73.836567 432.9705,74.229514 432.57713,74.622461 431.0036,74.622461 428.24991,74.622461 V 76.980093 H 458.54026 V 74.622461 C 455.39325,74.622461 453.81969,74.229514 453.42633,74.229514 452.63958,73.836567 451.85277,72.657778 451.85277,71.086052 V 59.297889 C 453.81969,60.869605 456.96676,61.262552 461.68733,61.262552 467.9814,61.262552 473.09536,59.297889 477.0292,55.36845 479.78287,52.224925 481.35635,48.295612 481.35635,43.580294 481.35635,38.86502 479.78287,34.935644 477.0292,31.399231 473.09536,27.46987 467.9814,25.112165 461.68733,25.112165 z M 208.34997,25.505113 C 200.87571,25.505113 194.97498,27.076922 190.6478,30.613334 185.92724,34.149748 183.96032,38.472131 183.96032,43.580294 183.96032,48.295612 185.92724,52.617872 189.86103,56.154364 194.58163,59.690774 200.48231,61.655457 207.5632,61.655457 214.64407,61.655457 220.54474,59.690774 224.87196,56.154364 229.59256,52.617872 231.55942,48.295612 231.55942,43.580294 231.55942,38.472131 229.59256,34.149748 225.65873,31.006281 221.33155,27.46987 215.43084,25.505113 208.34997,25.505113 z M 257.91597,25.505113 C 250.44172,25.505113 244.54101,27.076922 240.21383,30.613334 235.49323,34.149748 233.52633,38.472131 233.52633,43.580294 233.52633,48.295612 235.49323,52.617872 239.82041,56.154364 244.14767,59.690774 250.04833,61.655457 257.12918,61.655457 264.21009,61.655457 270.11075,59.690774 274.43793,56.154364 279.15849,52.617872 281.12544,48.295612 281.12544,43.580294 281.12544,38.472131 279.15849,34.149748 275.22476,31.006281 270.89752,27.46987 264.99682,25.505113 257.91597,25.505113 z M 409.76101,25.505113 C 405.43381,25.505113 402.28681,26.683897 400.31991,29.43449 V 25.898062 H 376.32364 V 28.25569 C 379.47069,28.648639 381.04422,28.648639 381.43758,29.041587 382.22437,29.43449 382.61774,30.613334 382.61774,32.185082 V 44.759122 C 382.61774,47.902602 382.61774,51.439093 382.22437,54.582617 382.22437,56.547311 381.83095,57.72608 381.43758,58.119027 381.04422,58.119027 379.47069,58.511974 376.32364,58.511974 V 60.869605 H 407.00734 V 58.511974 C 403.8603,58.511974 402.28681,58.119027 401.5,57.72608 401.10666,57.333195 400.71326,56.547311 400.71326,54.582617 V 35.328608 C 400.71326,34.935644 401.10666,33.75686 401.89339,32.185082 403.07356,30.613334 403.8603,29.827422 404.64708,29.43449 L 404.64708,29.827422 C 403.46691,32.185082 402.68017,34.149748 402.68017,35.721556 402.68017,37.686222 403.46691,39.257968 405.04045,40.436752 406.61398,41.615598 408.97424,42.401494 411.72791,42.401494 414.875,42.401494 417.23526,41.615598 419.20218,39.650916 420.77568,38.079184 421.56245,36.507437 421.56245,34.149748 421.56245,31.792194 420.77568,29.827422 418.41543,27.862742 416.05515,26.29101 413.30146,25.505113 409.76101,25.505113 z M 316.9231,25.898062 V 28.25569 C 320.07019,28.648639 321.6437,28.648639 322.43045,29.041587 322.82384,29.43449 323.21722,30.613334 323.21722,32.578016 V 50.260293 C 323.21722,53.403756 324.79071,56.154364 327.93777,58.119027 331.08482,60.476658 334.62528,61.655457 339.3458,61.655457 344.06639,61.655457 348.00021,60.476658 350.75388,58.119027 V 60.869605 H 374.75012 V 58.511974 C 371.99647,58.511974 370.02953,58.119027 369.63616,57.72608 368.84938,57.333195 368.45603,56.154364 368.45603,54.18967 V 25.898062 H 342.88628 V 28.25569 C 346.42668,28.648639 348.39362,29.041587 349.18038,29.43449 349.96713,29.827422 350.36047,31.399231 350.36047,33.75686 V 54.582617 C 349.18038,56.940186 347.60681,57.72608 345.63995,57.72608 342.88628,57.72608 341.31271,55.761417 341.31271,51.83204 V 25.898062 H 316.9231 z M 207.5632,27.862742 C 211.10364,27.862742 212.67715,32.185082 212.67715,40.436752 212.67715,46.330869 212.67715,49.867346 212.67715,51.046146 211.89039,56.547311 210.31687,59.297889 207.5632,59.297889 204.41614,59.297889 202.84262,54.582617 202.84262,45.937906 202.84262,40.436752 202.84262,37.293272 202.84262,35.721556 203.62939,30.220372 205.2029,27.862742 207.5632,27.862742 z M 257.12918,27.862742 C 260.66967,27.862742 262.24317,32.185082 262.24317,40.436752 262.24317,46.330869 262.24317,49.867346 262.24317,51.046146 261.4564,56.547311 259.88284,59.297889 257.12918,59.297889 253.98217,59.297889 252.40864,54.582617 252.40864,45.937906 252.40864,40.436752 252.40864,37.293272 252.40864,35.721556 253.19538,30.220372 254.76892,27.862742 257.12918,27.862742 z M 540.7569,27.862742 C 543.90397,27.862742 545.47747,30.613334 545.87086,35.721556 V 36.507437 39.650916 H 536.42972 V 38.472131 C 536.42972,31.399231 538.00325,27.862742 540.7569,27.862742 z M 456.57336,28.648639 C 460.11379,28.648639 462.08069,32.970948 462.08069,41.22271 V 45.152072 C 462.08069,53.796703 460.11379,58.511974 456.17998,58.511974 453.81969,58.511974 452.63958,56.940186 451.85277,54.18967 451.85277,53.403756 451.85277,49.081452 451.85277,41.615598 451.85277,37.686222 451.85277,34.935644 451.85277,34.149748 452.63958,30.613334 454.2131,28.648639 456.57336,28.648639 z" />
    <path
         d="M 176.87947,7.0370132 C 170.97875,7.0370132 165.8648,8.6087332 160.75086,11.359323 155.63688,14.109893 153.27662,17.646323 153.27662,21.182793 153.27662,22.361593 153.27662,23.933373 153.27662,25.898063 H 148.55603 L 146.58912,29.82743 H 152.88322 L 153.27662,64.01315 C 153.27662,71.086052 151.70311,74.622472 148.94943,74.622472 148.16268,74.622472 147.76929,74.622472 147.37593,74.229525 147.76929,73.44362 148.16268,72.657778 149.34278,71.478947 150.12954,70.300147 150.91635,69.121296 150.91635,67.942517 150.91635,66.763738 150.12954,65.191939 148.16268,64.01315 146.58912,62.834298 144.62226,62.441362 142.26194,62.441362 139.90168,62.441362 137.54137,63.227245 135.96785,64.406045 134.39434,65.977771 133.60758,67.54957 133.60758,69.514253 133.60758,72.264841 135.18109,74.229525 138.32813,75.408313 140.68843,76.587153 144.22885,77.373053 148.16268,77.373053 156.42369,77.373053 162.32438,75.015419 166.25821,70.693043 169.40522,66.763738 171.37213,62.048466 171.37213,56.547311 V 29.82743 H 179.23979 L 181.20665,25.898063 H 171.37213 V 21.182793 C 171.37213,13.324003 172.94569,9.7875832 176.48611,9.7875832 177.27286,9.7875832 178.05961,10.180533 178.05961,10.573483 L 176.09272,12.931113 C 174.91255,14.502853 174.5192,15.681633 174.5192,16.860483 174.5192,18.432213 175.30594,19.611063 176.87947,20.789843 178.84638,21.968693 180.81329,22.361593 183.17357,22.361593 185.92722,22.361593 187.89413,21.968693 189.46765,20.396893 191.43455,19.218133 192.22131,17.646323 192.22131,15.681633 192.22131,12.931113 190.6478,10.966413 187.50077,9.3946432 184.74711,7.8229032 181.20665,7.0370132 176.87947,7.0370132 z M 311.80917,7.0370132 C 306.30183,7.0370132 300.79451,8.6087332 296.07392,11.359323 290.95995,14.109893 288.20629,17.646323 288.20629,21.182793 288.20629,22.361593 288.20629,23.933373 288.20629,25.898063 H 283.48575 L 281.51882,29.82743 H 288.20629 L 288.20629,64.01315 C 288.20629,71.086052 286.63277,74.622472 284.2725,74.622472 283.48575,74.622472 283.09233,74.622472 282.69894,74.229525 282.69894,73.44362 283.48575,72.657778 284.2725,71.478947 285.4526,70.300147 285.84601,69.121296 285.84601,67.942517 285.84601,66.763738 285.05926,65.191939 283.09233,64.01315 281.51882,62.834298 279.55191,62.441362 277.19161,62.441362 274.83135,62.441362 272.86442,63.227245 271.29091,64.406045 269.324,65.977771 268.53724,67.54957 268.53724,69.514253 268.53724,72.264841 270.11076,74.229525 273.25782,75.408313 276.0115,76.587153 279.1585,77.373053 283.48575,77.373053 291.35337,77.373053 297.25409,75.015419 301.18785,70.693043 304.72828,66.763738 306.30183,62.048466 306.30183,56.547311 V 29.82743 H 314.16944 L 316.52969,25.898063 H 306.30183 V 21.182793 C 306.30183,13.324003 307.87537,9.7875832 311.41576,9.7875832 312.59592,9.7875832 312.98927,10.180533 312.98927,10.573483 L 311.02237,12.931113 C 310.23561,14.502853 309.44886,15.681633 309.44886,16.860483 309.44886,18.432213 310.23561,19.611063 312.20252,20.789843 314.16944,21.968693 316.13637,22.361593 318.10327,22.361593 320.85693,22.361593 323.21721,21.968693 324.79072,20.396893 326.36428,19.218133 327.54438,17.646323 327.54438,15.681633 327.54438,12.931113 325.57752,10.966413 322.43045,9.3946432 319.67677,7.8229032 316.13637,7.0370132 311.80917,7.0370132 z M 484.11005,7.0370132 C 479.78287,7.0370132 476.63579,7.8229032 473.48876,9.0016832 470.34168,10.573483 468.76817,12.538163 468.76817,14.895793 468.76817,16.860483 469.94835,18.432213 471.52184,20.004013 473.09536,21.575753 475.45567,22.361593 477.81594,22.361593 480.17622,22.361593 482.14311,21.575753 483.71667,20.396893 485.68355,19.218133 486.47035,18.039343 486.47035,16.467543 486.47035,15.288763 486.07694,14.109893 484.89677,12.931113 483.71667,11.752263 483.32328,10.966413 483.32328,10.573483 483.71667,9.7875832 484.11005,9.7875832 484.89677,9.7875832 487.25711,9.7875832 488.43721,13.324003 488.43721,20.789843 V 56.547311 C 488.43721,62.048466 490.01077,66.763738 493.1578,70.693043 497.09161,75.015419 503.38568,77.373053 511.64671,77.373053 515.58051,77.373053 519.12095,76.587153 521.87462,75.408313 525.02166,74.229525 526.5952,72.264841 526.5952,69.514253 526.5952,67.54957 525.80841,65.977771 523.84154,64.406045 522.26799,63.227245 520.30108,62.441362 517.54745,62.441362 515.58051,62.441362 513.22022,62.834298 511.64671,64.01315 510.0732,65.191939 508.49964,66.763738 508.49964,67.942517 508.49964,69.121296 509.67979,70.300147 510.46654,71.478947 511.64671,72.657778 512.04013,73.44362 512.43345,74.229525 512.04013,74.622472 511.64671,74.622472 510.85996,74.622472 507.71288,74.622472 506.53277,71.478947 506.53277,64.798992 V 28.255694 C 506.53277,22.361593 504.95919,17.646323 501.4188,14.109893 497.48497,9.3946432 491.58428,7.0370132 484.11005,7.0370132 z M 541.54365,25.112173 C 534.46279,25.112173 528.56206,27.076914 524.23489,31.006281 519.90771,34.542701 517.94079,38.47213 517.94079,43.580287 517.94079,48.29561 519.90771,52.617882 523.84154,56.154354 528.16871,59.690784 533.67604,61.655457 540.7569,61.655457 546.26424,61.655457 550.59141,61.262562 553.73849,60.083721 557.2789,58.511984 560.03256,56.547311 561.60608,53.010891 562.39283,52.224925 562.39283,51.046136 562.39283,49.867356 562.39283,47.902601 561.60608,46.723822 560.03256,45.545032 558.85241,44.366181 556.49215,43.580287 553.73849,43.580287 551.37815,43.580287 549.01789,44.366181 547.44438,45.545032 545.87087,46.723822 544.69072,48.29561 544.69072,50.260293 544.69072,52.224925 545.87087,53.796713 548.23114,54.582617 548.62453,54.975513 549.41129,54.975513 550.19804,55.36846 551.37815,55.761407 551.77156,55.761407 551.77156,56.154354 551.77156,56.154354 550.59141,56.547311 547.44438,56.940186 540.36355,56.940186 536.42973,52.224925 536.42973,42.401497 H 562.39283 C 562.39283,37.686226 560.81932,33.756869 557.2789,30.613345 553.73849,27.076914 548.23114,25.112173 541.54365,25.112173 z M 461.68734,25.112173 C 457.36012,25.112173 453.81968,26.29102 451.85278,28.255694 V 25.898063 H 427.06977 V 28.255694 C 429.82343,28.648651 431.39699,28.648651 431.79035,28.648651 433.36391,29.041598 433.75726,29.82743 433.75726,31.399228 L 433.75726,71.086052 C 433.75726,72.657778 433.75726,73.836567 432.97051,74.229525 432.57711,74.622472 431.0036,74.622472 428.24991,74.622472 V 76.980103 H 458.54027 V 74.622472 C 455.39324,74.622472 453.81968,74.229525 453.42633,74.229525 452.63958,73.836567 451.85278,72.657778 451.85278,71.086052 V 59.297889 C 453.81968,60.869615 456.96676,61.262562 461.68734,61.262562 467.98141,61.262562 473.09536,59.297889 477.02921,55.36846 479.78287,52.224925 481.35635,48.29561 481.35635,43.580287 481.35635,38.865015 479.78287,34.935659 477.02921,31.399228 473.09536,27.469872 467.98141,25.112173 461.68734,25.112173 z M 208.34998,25.505116 C 200.87571,25.505116 194.97498,27.076914 190.6478,30.613345 185.92722,34.149754 183.96031,38.47213 183.96031,43.580287 183.96031,48.29561 185.92722,52.617882 189.86104,56.154354 194.58162,59.690784 200.48232,61.655457 207.5632,61.655457 214.64406,61.655457 220.54474,59.690784 224.87197,56.154354 229.59254,52.617882 231.55942,48.29561 231.55942,43.580287 231.55942,38.47213 229.59254,34.149754 225.65873,31.006281 221.33155,27.469872 215.43082,25.505116 208.34998,25.505116 z M 257.91598,25.505116 C 250.44173,25.505116 244.541,27.076914 240.21382,30.613345 235.49324,34.149754 233.52632,38.47213 233.52632,43.580287 233.52632,48.29561 235.49324,52.617882 239.82041,56.154354 244.14765,59.690784 250.04834,61.655457 257.12917,61.655457 264.21007,61.655457 270.11076,59.690784 274.43793,56.154354 279.1585,52.617882 281.12543,48.29561 281.12543,43.580287 281.12543,38.47213 279.1585,34.149754 275.22474,31.006281 270.89753,27.469872 264.99682,25.505116 257.91598,25.505116 z M 409.76101,25.505116 C 405.43382,25.505116 402.28681,26.683895 400.31991,29.434493 V 25.898063 H 376.32363 V 28.255694 C 379.47069,28.648651 381.04421,28.648651 381.43758,29.041598 382.22438,29.434493 382.61775,30.613345 382.61775,32.185081 V 44.759138 C 382.61775,47.902601 382.61775,51.439083 382.22438,54.582617 382.22438,56.547311 381.83096,57.72609 381.43758,58.119037 381.04421,58.119037 379.47069,58.511984 376.32363,58.511984 V 60.869615 H 407.00734 V 58.511984 C 403.86031,58.511984 402.28681,58.119037 401.50001,57.72609 401.10665,57.333195 400.71325,56.547311 400.71325,54.582617 V 35.328606 C 400.71325,34.935659 401.10665,33.756869 401.89341,32.185081 403.07357,30.613345 403.86031,29.82743 404.64707,29.434493 L 404.64707,29.82743 C 403.46691,32.185081 402.68016,34.149754 402.68016,35.721553 402.68016,37.686226 403.46691,39.257973 405.04045,40.436752 406.61398,41.615603 408.97424,42.401497 411.72791,42.401497 414.875,42.401497 417.23526,41.615603 419.20218,39.65092 420.77569,38.079183 421.56246,36.507447 421.56246,34.149754 421.56246,31.792186 420.77569,29.82743 418.41542,27.862747 416.05515,26.29102 413.30147,25.505116 409.76101,25.505116 z M 316.9231,25.898063 V 28.255694 C 320.07019,28.648651 321.6437,28.648651 322.43045,29.041598 322.82386,29.434493 323.21721,30.613345 323.21721,32.578018 V 50.260293 C 323.21721,53.403766 324.79072,56.154354 327.93778,58.119037 331.08483,60.476668 334.62527,61.655457 339.3458,61.655457 344.06639,61.655457 348.00021,60.476668 350.75388,58.119037 V 60.869615 H 374.75012 V 58.511984 C 371.99647,58.511984 370.02955,58.119037 369.63615,57.72609 368.84939,57.333195 368.45604,56.154354 368.45604,54.189681 V 25.898063 H 342.88628 V 28.255694 C 346.42669,28.648651 348.39362,29.041598 349.18037,29.434493 349.96713,29.82743 350.36047,31.399228 350.36047,33.756869 V 54.582617 C 349.18037,56.940186 347.60681,57.72609 345.63994,57.72609 342.88628,57.72609 341.3127,55.761407 341.3127,51.83204 V 25.898063 H 316.9231 z M 207.5632,27.862747 C 211.10364,27.862747 212.67715,32.185081 212.67715,40.436752 212.67715,46.330875 212.67715,49.867356 212.67715,51.046136 211.89039,56.547311 210.31688,59.297889 207.5632,59.297889 204.41615,59.297889 202.84263,54.582617 202.84263,45.937917 202.84263,40.436752 202.84263,37.293279 202.84263,35.721553 203.62938,30.220377 205.20288,27.862747 207.5632,27.862747 z M 257.12917,27.862747 C 260.66966,27.862747 262.24316,32.185081 262.24316,40.436752 262.24316,46.330875 262.24316,49.867356 262.24316,51.046136 261.4564,56.547311 259.88284,59.297889 257.12917,59.297889 253.98216,59.297889 252.40865,54.582617 252.40865,45.937917 252.40865,40.436752 252.40865,37.293279 252.40865,35.721553 253.19539,30.220377 254.76891,27.862747 257.12917,27.862747 z M 540.7569,27.862747 C 543.90397,27.862747 545.47746,30.613345 545.87087,35.721553 V 36.507447 39.65092 H 536.42973 V 38.47213 C 536.42973,31.399228 538.00324,27.862747 540.7569,27.862747 z M 456.57336,28.648651 C 460.11378,28.648651 462.08069,32.970965 462.08069,41.222718 V 45.152085 C 462.08069,53.796713 460.11378,58.511984 456.18,58.511984 453.81968,58.511984 452.63958,56.940186 451.85278,54.189681 451.85278,53.403766 451.85278,49.081452 451.85278,41.615603 451.85278,37.686226 451.85278,34.935659 451.85278,34.149754 452.63958,30.613345 454.2131,28.648651 456.57336,28.648651 z"
         id="path3819"
         style="color:#000000;fill:#9c82e1;fill-opacity:1;stroke:none;stroke-width:2;marker:none;visibility:visible;display:inline;overflow:visible;enable-background:accumulate"
         inkscape:connector-curvature="0" />
    <path
         inkscape:connector-curvature="0"
         style="color:#000000;fill:none;stroke:#685d7e;stroke-width:2;stroke-miterlimit:4;stroke-opacity:1;stroke-dasharray:none;marker:none;visibility:visible;display:inline;overflow:visible;enable-background:accumulate"
         id="use3829-7"
         d="M 176.87947,5.0369932 C 170.97875,5.0369932 165.8648,6.6087332 160.75086,9.3593132 155.63688,12.109893 153.27662,15.646313 153.27662,19.182793 153.27662,20.361573 153.27662,21.933373 153.27662,23.898063 H 148.55603 L 146.58912,27.827423 H 152.88322 L 153.27662,62.013153 C 153.27662,69.086053 151.70311,72.622473 148.94943,72.622473 148.16268,72.622473 147.76929,72.622473 147.37593,72.229523 147.76929,71.443623 148.16268,70.657773 149.34278,69.478923 150.12954,68.300143 150.91635,67.121293 150.91635,65.942513 150.91635,64.763723 150.12954,63.191933 148.16268,62.013153 146.58912,60.834293 144.62226,60.441343 142.26194,60.441343 139.90168,60.441343 137.54137,61.227243 135.96785,62.406043 134.39434,63.977773 133.60758,65.549573 133.60758,67.514253 133.60758,70.264833 135.18109,72.229523 138.32813,73.408303 140.68843,74.587153 144.22885,75.373053 148.16268,75.373053 156.42369,75.373053 162.32438,73.015403 166.25821,68.693043 169.40522,64.763723 171.37213,60.048463 171.37213,54.547293 V 27.827423 H 179.23979 L 181.20665,23.898063 H 171.37213 V 19.182793 C 171.37213,11.323993 172.94569,7.7875732 176.48611,7.7875732 177.27286,7.7875732 178.05961,8.1805332 178.05961,8.5734732 L 176.09272,10.931113 C 174.91255,12.502843 174.5192,13.681633 174.5192,14.860483 174.5192,16.432213 175.30594,17.611053 176.87947,18.789843 178.84638,19.968693 180.81329,20.361573 183.17357,20.361573 185.92722,20.361573 187.89413,19.968693 189.46765,18.396893 191.43455,17.218113 192.22131,15.646313 192.22131,13.681633 192.22131,10.931113 190.6478,8.9664232 187.50077,7.3946332 184.74711,5.8229032 181.20665,5.0369932 176.87947,5.0369932 z M 311.80917,5.0369932 C 306.30183,5.0369932 300.79451,6.6087332 296.07392,9.3593132 290.95995,12.109893 288.20629,15.646313 288.20629,19.182793 288.20629,20.361573 288.20629,21.933373 288.20629,23.898063 H 283.48575 L 281.51882,27.827423 H 288.20629 L 288.20629,62.013153 C 288.20629,69.086053 286.63277,72.622473 284.2725,72.622473 283.48575,72.622473 283.09233,72.622473 282.69894,72.229523 282.69894,71.443623 283.48575,70.657773 284.2725,69.478923 285.4526,68.300143 285.84601,67.121293 285.84601,65.942513 285.84601,64.763723 285.05926,63.191933 283.09233,62.013153 281.51882,60.834293 279.55191,60.441343 277.19161,60.441343 274.83135,60.441343 272.86442,61.227243 271.29091,62.406043 269.324,63.977773 268.53724,65.549573 268.53724,67.514253 268.53724,70.264833 270.11076,72.229523 273.25782,73.408303 276.0115,74.587153 279.1585,75.373053 283.48575,75.373053 291.35337,75.373053 297.25409,73.015403 301.18785,68.693043 304.72828,64.763723 306.30183,60.048463 306.30183,54.547293 V 27.827423 H 314.16944 L 316.52969,23.898063 H 306.30183 V 19.182793 C 306.30183,11.323993 307.87537,7.7875732 311.41576,7.7875732 312.59592,7.7875732 312.98927,8.1805332 312.98927,8.5734732 L 311.02237,10.931113 C 310.23561,12.502843 309.44886,13.681633 309.44886,14.860483 309.44886,16.432213 310.23561,17.611053 312.20252,18.789843 314.16944,19.968693 316.13637,20.361573 318.10327,20.361573 320.85693,20.361573 323.21721,19.968693 324.79072,18.396893 326.36428,17.218113 327.54438,15.646313 327.54438,13.681633 327.54438,10.931113 325.57752,8.9664232 322.43045,7.3946332 319.67677,5.8229032 316.13637,5.0369932 311.80917,5.0369932 z M 484.11005,5.0369932 C 479.78287,5.0369932 476.63579,5.8229032 473.48876,7.0016832 470.34168,8.5734732 468.76817,10.538163 468.76817,12.895793 468.76817,14.860483 469.94835,16.432213 471.52184,18.004013 473.09536,19.575743 475.45567,20.361573 477.81594,20.361573 480.17622,20.361573 482.14311,19.575743 483.71667,18.396893 485.68355,17.218113 486.47035,16.039323 486.47035,14.467523 486.47035,13.288743 486.07694,12.109893 484.89677,10.931113 483.71667,9.7522632 483.32328,8.9664232 483.32328,8.5734732 483.71667,7.7875732 484.11005,7.7875732 484.89677,7.7875732 487.25711,7.7875732 488.43721,11.323993 488.43721,18.789843 V 54.547293 C 488.43721,60.048463 490.01077,64.763723 493.1578,68.693043 497.09161,73.015403 503.38568,75.373053 511.64671,75.373053 515.58051,75.373053 519.12095,74.587153 521.87462,73.408303 525.02166,72.229523 526.5952,70.264833 526.5952,67.514253 526.5952,65.549573 525.80841,63.977773 523.84154,62.406043 522.26799,61.227243 520.30108,60.441343 517.54745,60.441343 515.58051,60.441343 513.22022,60.834293 511.64671,62.013153 510.0732,63.191933 508.49964,64.763723 508.49964,65.942513 508.49964,67.121293 509.67979,68.300143 510.46654,69.478923 511.64671,70.657773 512.04013,71.443623 512.43345,72.229523 512.04013,72.622473 511.64671,72.622473 510.85996,72.622473 507.71288,72.622473 506.53277,69.478923 506.53277,62.798973 V 26.255693 C 506.53277,20.361573 504.95919,15.646313 501.4188,12.109893 497.48497,7.3946332 491.58428,5.0369932 484.11005,5.0369932 z M 541.54365,23.112173 C 534.46279,23.112173 528.56206,25.076903 524.23489,29.006273 519.90771,32.542703 517.94079,36.472123 517.94079,41.580283 517.94079,46.295613 519.90771,50.617863 523.84154,54.154343 528.16871,57.690763 533.67604,59.655453 540.7569,59.655453 546.26424,59.655453 550.59141,59.262563 553.73849,58.083723 557.2789,56.511983 560.03256,54.547293 561.60608,51.010893 562.39283,50.224913 562.39283,49.046133 562.39283,47.867343 562.39283,45.902603 561.60608,44.723813 560.03256,43.545023 558.85241,42.366173 556.49215,41.580283 553.73849,41.580283 551.37815,41.580283 549.01789,42.366173 547.44438,43.545023 545.87087,44.723813 544.69072,46.295613 544.69072,48.260293 544.69072,50.224913 545.87087,51.796713 548.23114,52.582613 548.62453,52.975493 549.41129,52.975493 550.19804,53.368463 551.37815,53.761393 551.77156,53.761393 551.77156,54.154343 551.77156,54.154343 550.59141,54.547293 547.44438,54.940183 540.36355,54.940183 536.42973,50.224913 536.42973,40.401493 H 562.39283 C 562.39283,35.686233 560.81932,31.756863 557.2789,28.613343 553.73849,25.076903 548.23114,23.112173 541.54365,23.112173 z M 461.68734,23.112173 C 457.36012,23.112173 453.81968,24.291013 451.85278,26.255693 V 23.898063 H 427.06977 V 26.255693 C 429.82343,26.648643 431.39699,26.648643 431.79035,26.648643 433.36391,27.041593 433.75726,27.827423 433.75726,29.399223 L 433.75726,69.086053 C 433.75726,70.657773 433.75726,71.836563 432.97051,72.229523 432.57711,72.622473 431.0036,72.622473 428.24991,72.622473 V 74.980103 H 458.54027 V 72.622473 C 455.39324,72.622473 453.81968,72.229523 453.42633,72.229523 452.63958,71.836563 451.85278,70.657773 451.85278,69.086053 V 57.297883 C 453.81968,58.869613 456.96676,59.262563 461.68734,59.262563 467.98141,59.262563 473.09536,57.297883 477.02921,53.368463 479.78287,50.224913 481.35635,46.295613 481.35635,41.580283 481.35635,36.865013 479.78287,32.935653 477.02921,29.399223 473.09536,25.469853 467.98141,23.112173 461.68734,23.112173 z M 208.34998,23.505113 C 200.87571,23.505113 194.97498,25.076903 190.6478,28.613343 185.92722,32.149743 183.96031,36.472123 183.96031,41.580283 183.96031,46.295613 185.92722,50.617863 189.86104,54.154343 194.58162,57.690763 200.48232,59.655453 207.5632,59.655453 214.64406,59.655453 220.54474,57.690763 224.87197,54.154343 229.59254,50.617863 231.55942,46.295613 231.55942,41.580283 231.55942,36.472123 229.59254,32.149743 225.65873,29.006273 221.33155,25.469853 215.43082,23.505113 208.34998,23.505113 z M 257.91598,23.505113 C 250.44173,23.505113 244.541,25.076903 240.21382,28.613343 235.49324,32.149743 233.52632,36.472123 233.52632,41.580283 233.52632,46.295613 235.49324,50.617863 239.82041,54.154343 244.14765,57.690763 250.04834,59.655453 257.12917,59.655453 264.21007,59.655453 270.11076,57.690763 274.43793,54.154343 279.1585,50.617863 281.12543,46.295613 281.12543,41.580283 281.12543,36.472123 279.1585,32.149743 275.22474,29.006273 270.89753,25.469853 264.99682,23.505113 257.91598,23.505113 z M 409.76101,23.505113 C 405.43382,23.505113 402.28681,24.683893 400.31991,27.434493 V 23.898063 H 376.32363 V 26.255693 C 379.47069,26.648643 381.04421,26.648643 381.43758,27.041593 382.22438,27.434493 382.61775,28.613343 382.61775,30.185063 V 42.759133 C 382.61775,45.902603 382.61775,49.439083 382.22438,52.582613 382.22438,54.547293 381.83096,55.726093 381.43758,56.119033 381.04421,56.119033 379.47069,56.511983 376.32363,56.511983 V 58.869613 H 407.00734 V 56.511983 C 403.86031,56.511983 402.28681,56.119033 401.50001,55.726093 401.10665,55.333193 400.71325,54.547293 400.71325,52.582613 V 33.328593 C 400.71325,32.935653 401.10665,31.756863 401.89341,30.185063 403.07357,28.613343 403.86031,27.827423 404.64707,27.434493 L 404.64707,27.827423 C 403.46691,30.185063 402.68016,32.149743 402.68016,33.721543 402.68016,35.686233 403.46691,37.257963 405.04045,38.436743 406.61398,39.615593 408.97424,40.401493 411.72791,40.401493 414.875,40.401493 417.23526,39.615593 419.20218,37.650913 420.77569,36.079173 421.56246,34.507443 421.56246,32.149743 421.56246,29.792173 420.77569,27.827423 418.41542,25.862743 416.05515,24.291013 413.30147,23.505113 409.76101,23.505113 z M 316.9231,23.898063 V 26.255693 C 320.07019,26.648643 321.6437,26.648643 322.43045,27.041593 322.82386,27.434493 323.21721,28.613343 323.21721,30.578013 V 48.260293 C 323.21721,51.403763 324.79072,54.154343 327.93778,56.119033 331.08483,58.476663 334.62527,59.655453 339.3458,59.655453 344.06639,59.655453 348.00021,58.476663 350.75388,56.119033 V 58.869613 H 374.75012 V 56.511983 C 371.99647,56.511983 370.02955,56.119033 369.63615,55.726093 368.84939,55.333193 368.45604,54.154343 368.45604,52.189673 V 23.898063 H 342.88628 V 26.255693 C 346.42669,26.648643 348.39362,27.041593 349.18037,27.434493 349.96713,27.827423 350.36047,29.399223 350.36047,31.756863 V 52.582613 C 349.18037,54.940183 347.60681,55.726093 345.63994,55.726093 342.88628,55.726093 341.3127,53.761393 341.3127,49.832043 V 23.898063 H 316.9231 z M 207.5632,25.862743 C 211.10364,25.862743 212.67715,30.185063 212.67715,38.436743 212.67715,44.330863 212.67715,47.867343 212.67715,49.046133 211.89039,54.547293 210.31688,57.297883 207.5632,57.297883 204.41615,57.297883 202.84263,52.582613 202.84263,43.937913 202.84263,38.436743 202.84263,35.293283 202.84263,33.721543 203.62938,28.220373 205.20288,25.862743 207.5632,25.862743 z M 257.12917,25.862743 C 260.66966,25.862743 262.24316,30.185063 262.24316,38.436743 262.24316,44.330863 262.24316,47.867343 262.24316,49.046133 261.4564,54.547293 259.88284,57.297883 257.12917,57.297883 253.98216,57.297883 252.40865,52.582613 252.40865,43.937913 252.40865,38.436743 252.40865,35.293283 252.40865,33.721543 253.19539,28.220373 254.76891,25.862743 257.12917,25.862743 z M 540.7569,25.862743 C 543.90397,25.862743 545.47746,28.613343 545.87087,33.721543 V 34.507443 37.650913 H 536.42973 V 36.472123 C 536.42973,29.399223 538.00324,25.862743 540.7569,25.862743 z M 456.57336,26.648643 C 460.11378,26.648643 462.08069,30.970963 462.08069,39.222713 V 43.152073 C 462.08069,51.796713 460.11378,56.511983 456.18,56.511983 453.81968,56.511983 452.63958,54.940183 451.85278,52.189673 451.85278,51.403763 451.85278,47.081443 451.85278,39.615593 451.85278,35.686233 451.85278,32.935653 451.85278,32.149743 452.63958,28.613343 454.2131,26.648643 456.57336,26.648643 z" />
</svg>
