<?xml version="1.0" encoding="UTF-8" standalone="no"?>
<!-- Created with Inkscape (http://www.inkscape.org/) -->

<svg
     xmlns:dc="http://purl.org/dc/elements/1.1/"
     xmlns:cc="http://creativecommons.org/ns#"
     xmlns:rdf="http://www.w3.org/1999/02/22-rdf-syntax-ns#"
     xmlns:svg="http://www.w3.org/2000/svg"
     xmlns="http://www.w3.org/2000/svg"
     xmlns:sodipodi="http://sodipodi.sourceforge.net/DTD/sodipodi-0.dtd"
     xmlns:inkscape="http://www.inkscape.org/namespaces/inkscape"
     width="116"
     height="23.1"
     id="svg3861"
     version="1.1"
     inkscape:version="0.48.5 r10040"
     sodipodi:docname="New document 7">
    <defs
         id="defs3863" />
    <sodipodi:namedview
         id="base"
         pagecolor="#ffffff"
         bordercolor="#666666"
         borderopacity="1.0"
         inkscape:pageopacity="0.0"
         inkscape:pageshadow="2"
         inkscape:zoom="1"
         inkscape:cx="16.2"
         inkscape:cy="104.7"
         inkscape:document-units="px"
         inkscape:current-layer="layer1"
         showgrid="false"
         fit-margin-top="0"
         fit-margin-left="0"
         fit-margin-right="0"
         fit-margin-bottom="0"
         inkscape:window-width="1920"
         inkscape:window-height="1106"
         inkscape:window-x="0"
         inkscape:window-y="32"
         inkscape:window-maximized="1" />
    <metadata
         id="metadata3866">
        <rdf:RDF>
            <cc:Work
                 rdf:about="">
                <dc:format>image/svg+xml</dc:format>
                <dc:type
                     rdf:resource="http://purl.org/dc/dcmitype/StillImage" />
                <dc:title></dc:title>
            </cc:Work>
        </rdf:RDF>
    </metadata>
    <g
         inkscape:label="Layer 1"
         inkscape:groupmode="layer"
         id="layer1"
         transform="translate(-336.3,-438)">
        <g
             id="g4388">
            <path
                 id="flowRoot4340-2-6-0-2-1-4-5-6-2-3-3-3-7-5"
                 d="M 349.2,438.6 C 343.3,438.7 340.8,444 338.8,448.3 342.1,446.1 343.5,453.5 340,452.5 334.9,453.2 336.3,460.6 341.2,460.2 345.8,461.1 351,457.6 350.4,452.5 353.2,457.5 360.7,457.1 364.3,454 366,456.4 370.1,455.7 371.6,456.8 374.1,463.3 386.1,460.1 385.3,453 385.4,446.8 385.3,448.8 385.9,453 389.2,458.9 397.3,455 402.4,456.1 407.3,457.6 415.1,455 409.8,451.4 411.8,452.7 415.3,447.9 414.3,451.8 412.1,457.4 412.1,462 420.8,460.2 426.6,462.3 422.5,455.6 427,455.5 429.4,452.9 428.9,458.5 431.4,459 434.9,461.4 441.8,460.6 442.4,456.2 447.1,457.5 453.2,454 451.5,448.7 450.6,442.1 440.6,441.3 437.1,446.3 438.3,439 426.4,435.4 423.4,441.8 423.6,445 417.9,442.5 415.9,443.3 408.3,443.4 399,443.3 390.7,443.3 390.7,437.3 381.8,437.6 378.4,440.7 376.6,442.7 376.1,445.5 373.1,443.4 370,442.4 366.3,444 364.1,445.4 362,442.9 357.8,443.5 355.8,443 356,439.5 351.9,438.4 349.2,438.6 z"
                 inkscape:connector-curvature="0"
                 style="fill:#ebe9dc;stroke:#ebe9dc" />
            <path
                 id="flowRoot4340-1-9-4-5-7-9-6-4-1-6-5-6"
                 d="M 350.9,440.2 C 349.4,440.2 348.1,440.6 346.8,441.3 345.5,442 344.9,442.9 344.9,443.8 344.9,444.1 344.9,444.5 344.9,445 H 343.7 L 343.2,446 H 344.8 L 344.9,454.7 C 344.9,456.5 344.5,457.4 343.8,457.4 343.6,457.4 343.5,457.4 343.4,457.3 343.5,457.1 343.6,456.9 343.9,456.6 344.1,456.3 344.3,456 344.3,455.7 344.3,455.4 344.1,455 343.6,454.7 343.2,454.4 342.7,454.3 342.1,454.3 341.5,454.3 340.9,454.5 340.5,454.8 340.1,455.2 339.9,455.6 339.9,456.1 339.9,456.8 340.3,457.3 341.1,457.6 341.7,457.9 342.6,458.1 343.6,458.1 345.7,458.1 347.2,457.5 348.2,456.4 349,455.4 349.5,454.2 349.5,452.8 V 446 H 351.5 L 352,445 H 349.5 V 443.8 C 349.5,441.8 349.9,440.9 350.8,440.9 351,440.9 351.2,441 351.2,441.1 L 350.7,441.7 C 350.4,442.1 350.3,442.4 350.3,442.7 350.3,443.1 350.5,443.4 350.9,443.7 351.4,444 351.9,444.1 352.5,444.1 353.2,444.1 353.7,444 354.1,443.6 354.6,443.3 354.8,442.9 354.8,442.4 354.8,441.7 354.4,441.2 353.6,440.8 352.9,440.4 352,440.2 350.9,440.2 z M 385.2,440.2 C 383.8,440.2 382.4,440.6 381.2,441.3 379.9,442 379.2,442.9 379.2,443.8 379.2,444.1 379.2,444.5 379.2,445 H 378 L 377.5,446 H 379.2 L 379.2,454.7 C 379.2,456.5 378.8,457.4 378.2,457.4 378,457.4 377.9,457.4 377.8,457.3 377.8,457.1 378,456.9 378.2,456.6 378.5,456.3 378.6,456 378.6,455.7 378.6,455.4 378.4,455 377.9,454.7 377.5,454.4 377,454.3 376.4,454.3 375.8,454.3 375.3,454.5 374.9,454.8 374.4,455.2 374.2,455.6 374.2,456.1 374.2,456.8 374.6,457.3 375.4,457.6 376.1,457.9 376.9,458.1 378,458.1 380,458.1 381.5,457.5 382.5,456.4 383.4,455.4 383.8,454.2 383.8,452.8 V 446 H 385.8 L 386.4,445 H 383.8 V 443.8 C 383.8,441.8 384.2,440.9 385.1,440.9 385.4,440.9 385.5,441 385.5,441.1 L 385,441.7 C 384.8,442.1 384.6,442.4 384.6,442.7 384.6,443.1 384.8,443.4 385.3,443.7 385.8,444 386.3,444.1 386.8,444.1 387.5,444.1 388.1,444 388.5,443.6 388.9,443.3 389.2,442.9 389.2,442.4 389.2,441.7 388.7,441.2 387.9,440.8 387.2,440.4 386.3,440.2 385.2,440.2 z M 429,440.2 C 427.9,440.2 427.1,440.4 426.3,440.7 425.5,441.1 425.1,441.6 425.1,442.2 425.1,442.7 425.4,443.1 425.8,443.5 426.2,443.9 426.8,444.1 427.4,444.1 428,444.1 428.5,443.9 428.9,443.6 429.4,443.3 429.6,443 429.6,442.6 429.6,442.3 429.5,442 429.2,441.7 428.9,441.4 428.8,441.2 428.8,441.1 428.9,440.9 429,440.9 429.2,440.9 429.8,440.9 430.1,441.8 430.1,443.7 V 452.8 C 430.1,454.2 430.5,455.4 431.3,456.4 432.3,457.5 433.9,458.1 436,458.1 437,458.1 437.9,457.9 438.6,457.6 439.4,457.3 439.8,456.8 439.8,456.1 439.8,455.6 439.6,455.2 439.1,454.8 438.7,454.5 438.2,454.3 437.5,454.3 437,454.3 436.4,454.4 436,454.7 435.6,455 435.2,455.4 435.2,455.7 435.2,456 435.5,456.3 435.7,456.6 436,456.9 436.1,457.1 436.2,457.3 436.1,457.4 436,457.4 435.8,457.4 435,457.4 434.7,456.6 434.7,454.9 V 445.6 C 434.7,444.1 434.3,442.9 433.4,442 432.4,440.8 430.9,440.2 429,440.2 z M 443.6,444.8 C 441.8,444.8 440.3,445.3 439.2,446.3 438.1,447.2 437.6,448.2 437.6,449.5 437.6,450.7 438.1,451.8 439.1,452.7 440.2,453.6 441.6,454.1 443.4,454.1 444.8,454.1 445.9,454 446.7,453.7 447.6,453.3 448.3,452.8 448.7,451.9 448.9,451.7 448.9,451.4 448.9,451.1 448.9,450.6 448.7,450.3 448.3,450 448,449.7 447.4,449.5 446.7,449.5 446.1,449.5 445.5,449.7 445.1,450 444.7,450.3 444.4,450.7 444.4,451.2 444.4,451.7 444.7,452.1 445.3,452.3 445.4,452.4 445.6,452.4 445.8,452.5 446.1,452.6 446.2,452.6 446.2,452.7 446.2,452.7 445.9,452.8 445.1,452.9 443.3,452.9 442.3,451.7 442.3,449.2 H 448.9 C 448.9,448 448.5,447 447.6,446.2 446.7,445.3 445.3,444.8 443.6,444.8 z M 423.3,444.8 C 422.2,444.8 421.3,445.1 420.8,445.6 V 445 H 414.5 V 445.6 C 415.2,445.7 415.6,445.7 415.7,445.7 416.1,445.8 416.2,446 416.2,446.4 L 416.2,456.5 C 416.2,456.9 416.2,457.2 416,457.3 415.9,457.4 415.5,457.4 414.8,457.4 V 458 H 422.5 V 457.4 C 421.7,457.4 421.3,457.3 421.2,457.3 421,457.2 420.8,456.9 420.8,456.5 V 453.5 C 421.3,453.9 422.1,454 423.3,454 424.9,454 426.2,453.5 427.2,452.5 427.9,451.7 428.3,450.7 428.3,449.5 428.3,448.3 427.9,447.3 427.2,446.4 426.2,445.4 424.9,444.8 423.3,444.8 z M 358.9,444.9 C 357,444.9 355.5,445.3 354.4,446.2 353.2,447.1 352.7,448.2 352.7,449.5 352.7,450.7 353.2,451.8 354.2,452.7 355.4,453.6 356.9,454.1 358.7,454.1 360.5,454.1 362,453.6 363.1,452.7 364.3,451.8 364.8,450.7 364.8,449.5 364.8,448.2 364.3,447.1 363.3,446.3 362.2,445.4 360.7,444.9 358.9,444.9 z M 371.5,444.9 C 369.6,444.9 368.1,445.3 367,446.2 365.8,447.1 365.3,448.2 365.3,449.5 365.3,450.7 365.8,451.8 366.9,452.7 368,453.6 369.5,454.1 371.3,454.1 373.1,454.1 374.6,453.6 375.7,452.7 376.9,451.8 377.4,450.7 377.4,449.5 377.4,448.2 376.9,447.1 375.9,446.3 374.8,445.4 373.3,444.9 371.5,444.9 z M 410.1,444.9 C 409,444.9 408.2,445.2 407.7,445.9 V 445 H 401.6 V 445.6 C 402.4,445.7 402.8,445.7 402.9,445.8 403.1,445.9 403.2,446.2 403.2,446.6 V 449.8 C 403.2,450.6 403.2,451.5 403.1,452.3 403.1,452.8 403,453.1 402.9,453.2 402.8,453.2 402.4,453.3 401.6,453.3 V 453.9 H 409.4 V 453.3 C 408.6,453.3 408.2,453.2 408,453.1 407.9,453 407.8,452.8 407.8,452.3 V 447.4 C 407.8,447.3 407.9,447 408.1,446.6 408.4,446.2 408.6,446 408.8,445.9 L 408.8,446 C 408.5,446.6 408.3,447.1 408.3,447.5 408.3,448 408.5,448.4 408.9,448.7 409.3,449 409.9,449.2 410.6,449.2 411.4,449.2 412,449 412.5,448.5 412.9,448.1 413.1,447.7 413.1,447.1 413.1,446.5 412.9,446 412.3,445.5 411.7,445.1 411,444.9 410.1,444.9 z M 386.5,445 V 445.6 C 387.3,445.7 387.7,445.7 387.9,445.8 388,445.9 388.1,446.2 388.1,446.7 V 451.2 C 388.1,452 388.5,452.7 389.3,453.2 390.1,453.8 391,454.1 392.2,454.1 393.4,454.1 394.4,453.8 395.1,453.2 V 453.9 H 401.2 V 453.3 C 400.5,453.3 400,453.2 399.9,453.1 399.7,453 399.6,452.7 399.6,452.2 V 445 H 393.1 V 445.6 C 394,445.7 394.5,445.8 394.7,445.9 394.9,446 395,446.4 395,447 V 452.3 C 394.7,452.9 394.3,453.1 393.8,453.1 393.1,453.1 392.7,452.6 392.7,451.6 V 445 H 386.5 z M 358.7,445.5 C 359.6,445.5 360,446.6 360,448.7 360,450.2 360,451.1 360,451.4 359.8,452.8 359.4,453.5 358.7,453.5 357.9,453.5 357.5,452.3 357.5,450.1 357.5,448.7 357.5,447.9 357.5,447.5 357.7,446.1 358.1,445.5 358.7,445.5 z M 371.3,445.5 C 372.2,445.5 372.6,446.6 372.6,448.7 372.6,450.2 372.6,451.1 372.6,451.4 372.4,452.8 372,453.5 371.3,453.5 370.5,453.5 370.1,452.3 370.1,450.1 370.1,448.7 370.1,447.9 370.1,447.5 370.3,446.1 370.7,445.5 371.3,445.5 z M 443.4,445.5 C 444.2,445.5 444.6,446.2 444.7,447.5 V 447.7 448.5 H 442.3 V 448.2 C 442.3,446.4 442.7,445.5 443.4,445.5 z M 422,445.7 C 422.9,445.7 423.4,446.8 423.4,448.9 V 449.9 C 423.4,452.1 422.9,453.3 421.9,453.3 421.3,453.3 421,452.9 420.8,452.2 420.8,452 420.8,450.9 420.8,449 420.8,448 420.8,447.3 420.8,447.1 421,446.2 421.4,445.7 422,445.7 z"
                 inkscape:connector-curvature="0"
                 style="fill:none;stroke:#585916;stroke-width:0.6;stroke-miterlimit:4;stroke-opacity:1;stroke-dasharray:none" />
            <path
                 style="fill:#8978ea;fill-opacity:1"
                 inkscape:connector-curvature="0"
                 d="M 350.9,440.2 C 349.4,440.2 348.1,440.6 346.8,441.3 345.5,442 344.9,442.9 344.9,443.8 344.9,444.1 344.9,444.5 344.9,445 H 343.7 L 343.2,446 H 344.8 L 344.9,454.7 C 344.9,456.5 344.5,457.4 343.8,457.4 343.6,457.4 343.5,457.4 343.4,457.3 343.5,457.1 343.6,456.9 343.9,456.6 344.1,456.3 344.3,456 344.3,455.7 344.3,455.4 344.1,455 343.6,454.7 343.2,454.4 342.7,454.3 342.1,454.3 341.5,454.3 340.9,454.5 340.5,454.8 340.1,455.2 339.9,455.6 339.9,456.1 339.9,456.8 340.3,457.3 341.1,457.6 341.7,457.9 342.6,458.1 343.6,458.1 345.7,458.1 347.2,457.5 348.2,456.4 349,455.4 349.5,454.2 349.5,452.8 V 446 H 351.5 L 352,445 H 349.5 V 443.8 C 349.5,441.8 349.9,440.9 350.8,440.9 351,440.9 351.2,441 351.2,441.1 L 350.7,441.7 C 350.4,442.1 350.3,442.4 350.3,442.7 350.3,443.1 350.5,443.4 350.9,443.7 351.4,444 351.9,444.1 352.5,444.1 353.2,444.1 353.7,444 354.1,443.6 354.6,443.3 354.8,442.9 354.8,442.4 354.8,441.7 354.4,441.2 353.6,440.8 352.9,440.4 352,440.2 350.9,440.2 z M 385.2,440.2 C 383.8,440.2 382.4,440.6 381.2,441.3 379.9,442 379.2,442.9 379.2,443.8 379.2,444.1 379.2,444.5 379.2,445 H 378 L 377.5,446 H 379.2 L 379.2,454.7 C 379.2,456.5 378.8,457.4 378.2,457.4 378,457.4 377.9,457.4 377.8,457.3 377.8,457.1 378,456.9 378.2,456.6 378.5,456.3 378.6,456 378.6,455.7 378.6,455.4 378.4,455 377.9,454.7 377.5,454.4 377,454.3 376.4,454.3 375.8,454.3 375.3,454.5 374.9,454.8 374.4,455.2 374.2,455.6 374.2,456.1 374.2,456.8 374.6,457.3 375.4,457.6 376.1,457.9 376.9,458.1 378,458.1 380,458.1 381.5,457.5 382.5,456.4 383.4,455.4 383.8,454.2 383.8,452.8 V 446 H 385.8 L 386.4,445 H 383.8 V 443.8 C 383.8,441.8 384.2,440.9 385.1,440.9 385.4,440.9 385.5,441 385.5,441.1 L 385,441.7 C 384.8,442.1 384.6,442.4 384.6,442.7 384.6,443.1 384.8,443.4 385.3,443.7 385.8,444 386.3,444.1 386.8,444.1 387.5,444.1 388.1,444 388.5,443.6 388.9,443.3 389.2,442.9 389.2,442.4 389.2,441.7 388.7,441.2 387.9,440.8 387.2,440.4 386.3,440.2 385.2,440.2 z M 429,440.2 C 427.9,440.2 427.1,440.4 426.3,440.7 425.5,441.1 425.1,441.6 425.1,442.2 425.1,442.7 425.4,443.1 425.8,443.5 426.2,443.9 426.8,444.1 427.4,444.1 428,444.1 428.5,443.9 428.9,443.6 429.4,443.3 429.6,443 429.6,442.6 429.6,442.3 429.5,442 429.2,441.7 428.9,441.4 428.8,441.2 428.8,441.1 428.9,440.9 429,440.9 429.2,440.9 429.8,440.9 430.1,441.8 430.1,443.7 V 452.8 C 430.1,454.2 430.5,455.4 431.3,456.4 432.3,457.5 433.9,458.1 436,458.1 437,458.1 437.9,457.9 438.6,457.6 439.4,457.3 439.8,456.8 439.8,456.1 439.8,455.6 439.6,455.2 439.1,454.8 438.7,454.5 438.2,454.3 437.5,454.3 437,454.3 436.4,454.4 436,454.7 435.6,455 435.2,455.4 435.2,455.7 435.2,456 435.5,456.3 435.7,456.6 436,456.9 436.1,457.1 436.2,457.3 436.1,457.4 436,457.4 435.8,457.4 435,457.4 434.7,456.6 434.7,454.9 V 445.6 C 434.7,444.1 434.3,442.9 433.4,442 432.4,440.8 430.9,440.2 429,440.2 z M 443.6,444.8 C 441.8,444.8 440.3,445.3 439.2,446.3 438.1,447.2 437.6,448.2 437.6,449.5 437.6,450.7 438.1,451.8 439.1,452.7 440.2,453.6 441.6,454.1 443.4,454.1 444.8,454.1 445.9,454 446.7,453.7 447.6,453.3 448.3,452.8 448.7,451.9 448.9,451.7 448.9,451.4 448.9,451.1 448.9,450.6 448.7,450.3 448.3,450 448,449.7 447.4,449.5 446.7,449.5 446.1,449.5 445.5,449.7 445.1,450 444.7,450.3 444.4,450.7 444.4,451.2 444.4,451.7 444.7,452.1 445.3,452.3 445.4,452.4 445.6,452.4 445.8,452.5 446.1,452.6 446.2,452.6 446.2,452.7 446.2,452.7 445.9,452.8 445.1,452.9 443.3,452.9 442.3,451.7 442.3,449.2 H 448.9 C 448.9,448 448.5,447 447.6,446.2 446.7,445.3 445.3,444.8 443.6,444.8 z M 423.3,444.8 C 422.2,444.8 421.3,445.1 420.8,445.6 V 445 H 414.5 V 445.6 C 415.2,445.7 415.6,445.7 415.7,445.7 416.1,445.8 416.2,446 416.2,446.4 L 416.2,456.5 C 416.2,456.9 416.2,457.2 416,457.3 415.9,457.4 415.5,457.4 414.8,457.4 V 458 H 422.5 V 457.4 C 421.7,457.4 421.3,457.3 421.2,457.3 421,457.2 420.8,456.9 420.8,456.5 V 453.5 C 421.3,453.9 422.1,454 423.3,454 424.9,454 426.2,453.5 427.2,452.5 427.9,451.7 428.3,450.7 428.3,449.5 428.3,448.3 427.9,447.3 427.2,446.4 426.2,445.4 424.9,444.8 423.3,444.8 z M 358.9,444.9 C 357,444.9 355.5,445.3 354.4,446.2 353.2,447.1 352.7,448.2 352.7,449.5 352.7,450.7 353.2,451.8 354.2,452.7 355.4,453.6 356.9,454.1 358.7,454.1 360.5,454.1 362,453.6 363.1,452.7 364.3,451.8 364.8,450.7 364.8,449.5 364.8,448.2 364.3,447.1 363.3,446.3 362.2,445.4 360.7,444.9 358.9,444.9 z M 371.5,444.9 C 369.6,444.9 368.1,445.3 367,446.2 365.8,447.1 365.3,448.2 365.3,449.5 365.3,450.7 365.8,451.8 366.9,452.7 368,453.6 369.5,454.1 371.3,454.1 373.1,454.1 374.6,453.6 375.7,452.7 376.9,451.8 377.4,450.7 377.4,449.5 377.4,448.2 376.9,447.1 375.9,446.3 374.8,445.4 373.3,444.9 371.5,444.9 z M 410.1,444.9 C 409,444.9 408.2,445.2 407.7,445.9 V 445 H 401.6 V 445.6 C 402.4,445.7 402.8,445.7 402.9,445.8 403.1,445.9 403.2,446.2 403.2,446.6 V 449.8 C 403.2,450.6 403.2,451.5 403.1,452.3 403.1,452.8 403,453.1 402.9,453.2 402.8,453.2 402.4,453.3 401.6,453.3 V 453.9 H 409.4 V 453.3 C 408.6,453.3 408.2,453.2 408,453.1 407.9,453 407.8,452.8 407.8,452.3 V 447.4 C 407.8,447.3 407.9,447 408.1,446.6 408.4,446.2 408.6,446 408.8,445.9 L 408.8,446 C 408.5,446.6 408.3,447.1 408.3,447.5 408.3,448 408.5,448.4 408.9,448.7 409.3,449 409.9,449.2 410.6,449.2 411.4,449.2 412,449 412.5,448.5 412.9,448.1 413.1,447.7 413.1,447.1 413.1,446.5 412.9,446 412.3,445.5 411.7,445.1 411,444.9 410.1,444.9 z M 386.5,445 V 445.6 C 387.3,445.7 387.7,445.7 387.9,445.8 388,445.9 388.1,446.2 388.1,446.7 V 451.2 C 388.1,452 388.5,452.7 389.3,453.2 390.1,453.8 391,454.1 392.2,454.1 393.4,454.1 394.4,453.8 395.1,453.2 V 453.9 H 401.2 V 453.3 C 400.5,453.3 400,453.2 399.9,453.1 399.7,453 399.6,452.7 399.6,452.2 V 445 H 393.1 V 445.6 C 394,445.7 394.5,445.8 394.7,445.9 394.9,446 395,446.4 395,447 V 452.3 C 394.7,452.9 394.3,453.1 393.8,453.1 393.1,453.1 392.7,452.6 392.7,451.6 V 445 H 386.5 z M 358.7,445.5 C 359.6,445.5 360,446.6 360,448.7 360,450.2 360,451.1 360,451.4 359.8,452.8 359.4,453.5 358.7,453.5 357.9,453.5 357.5,452.3 357.5,450.1 357.5,448.7 357.5,447.9 357.5,447.5 357.7,446.1 358.1,445.5 358.7,445.5 z M 371.3,445.5 C 372.2,445.5 372.6,446.6 372.6,448.7 372.6,450.2 372.6,451.1 372.6,451.4 372.4,452.8 372,453.5 371.3,453.5 370.5,453.5 370.1,452.3 370.1,450.1 370.1,448.7 370.1,447.9 370.1,447.5 370.3,446.1 370.7,445.5 371.3,445.5 z M 443.4,445.5 C 444.2,445.5 444.6,446.2 444.7,447.5 V 447.7 448.5 H 442.3 V 448.2 C 442.3,446.4 442.7,445.5 443.4,445.5 z M 422,445.7 C 422.9,445.7 423.4,446.8 423.4,448.9 V 449.9 C 423.4,452.1 422.9,453.3 421.9,453.3 421.3,453.3 421,452.9 420.8,452.2 420.8,452 420.8,450.9 420.8,449 420.8,448 420.8,447.3 420.8,447.1 421,446.2 421.4,445.7 422,445.7 z"
                 id="use3796-3-2" />
        </g>
    </g>
</svg>
