<?xml version="1.0" encoding="UTF-8" standalone="no"?>
<svg
   xmlns:dc="http://purl.org/dc/elements/1.1/"
   xmlns:cc="http://creativecommons.org/ns#"
   xmlns:rdf="http://www.w3.org/1999/02/22-rdf-syntax-ns#"
   xmlns:svg="http://www.w3.org/2000/svg"
   xmlns="http://www.w3.org/2000/svg"
   id="svg3216"
   height="400"
   width="400"
   version="1.1">
  <defs
     id="defs3218" />
  <metadata
     id="metadata3221">
    <rdf:RDF>
      <cc:Work
         rdf:about="">
        <dc:format>image/svg+xml</dc:format>
        <dc:type
           rdf:resource="http://purl.org/dc/dcmitype/StillImage" />
        <dc:title></dc:title>
      </cc:Work>
    </rdf:RDF>
  </metadata>
  <path
     style="fill:#d3a59a;fill-opacity:1;fill-rule:nonzero;stroke:#000000;stroke-width:3;stroke-linecap:round;stroke-linejoin:round;stroke-miterlimit:4;stroke-dasharray:none;stroke-opacity:1"
     id="use4492-4-6-5"
     d="m 133.79679,301.69562 c -3.12774,7.01371 9.57277,66.91461 -54.005597,70.70581 -32.471598,3.7912 -68.118324,0 -67.412214,24.64278 189.943691,6.63459 165.206131,-45.96826 158.855871,-52.98197" />
  <path
     style="fill:#d3a59a;fill-opacity:1;fill-rule:nonzero;stroke:#000000;stroke-width:3;stroke-linecap:round;stroke-linejoin:round;stroke-miterlimit:4;stroke-dasharray:none;stroke-opacity:1"
     id="use4492-4-6"
     d="m 265.06697,301.69562 c 3.22252,7.01371 -9.47799,66.91461 54.02455,70.70581 32.50951,3.7912 68.14676,0 67.38852,24.64278 -189.84417,6.63459 -165.10661,-45.96826 -159.13548,-52.98197" />
  <path
     style="fill:#dcb0a9;fill-opacity:1;stroke:#000000;stroke-width:3;stroke-linecap:round;stroke-linejoin:round;stroke-miterlimit:4;stroke-dasharray:none"
     id="path2383-6-2-2"
     d="m 316.24812,272.69296 c 0,63.6921 -54.68801,116.76886 -122.83477,116.76886 -68.05197,0 -122.796853,-53.07676 -122.796853,-116.76886 0,-65.68248 54.744883,-117.90621 122.796853,-117.90621 68.14676,0 122.83477,52.22373 122.83477,117.90621 z" />
  <path
     style="opacity:1;vector-effect:none;fill:#dcb0a9;fill-opacity:1;fill-rule:evenodd;stroke:#000000;stroke-width:3;stroke-linecap:round;stroke-linejoin:round;stroke-miterlimit:4;stroke-dasharray:none;stroke-dashoffset:0;stroke-opacity:1"
     id="path2399-0-5-4-3"
     d="m 111.80785,187.39104 c 7.48761,-20.18812 0.56868,-66.34594 0.56868,-66.34594 l 24.35844,-4.17032 c 0,0 4.07553,46.44216 16.11258,65.01902" />
  <path
     style="opacity:1;vector-effect:none;fill:#dcb0a9;fill-opacity:1;fill-rule:evenodd;stroke:#000000;stroke-width:3;stroke-linecap:round;stroke-linejoin:round;stroke-miterlimit:4;stroke-dasharray:none;stroke-dashoffset:0;stroke-opacity:1"
     id="path3805"
     d="m 273.02848,184.07374 c -7.39283,-20.47246 0.66346,-66.44072 0.66346,-66.44072 l -23.50542,-4.73899 c 0,0 -5.87635,46.25259 -18.3873,64.6399" />
  <path
     style="opacity:0.1;fill:#000000;fill-opacity:1;stroke-width:3;stroke-miterlimit:4;stroke-dasharray:none"
     id="use3076-1"
     d="m 307.90749,240.18345 c 0.18956,1.8956 0.18956,3.69642 0.18956,5.30768 0,62.83908 -54.87757,113.64111 -122.55043,113.64111 -52.69763,0 -97.727568,-31.08781 -115.072293,-74.49701 3.07087,60.09047 56.687863,108.61778 122.370343,108.61778 67.67286,0 122.55043,-51.08637 122.55043,-113.92545 0,-13.64831 -2.65383,-26.9175 -7.48761,-39.14411 z" />
  <path
     style="opacity:1;vector-effect:none;fill:#dcb0a9;fill-opacity:1;fill-rule:nonzero;stroke:#000000;stroke-width:3;stroke-linecap:round;stroke-linejoin:round;stroke-miterlimit:4;stroke-dasharray:none;stroke-dashoffset:0;stroke-opacity:1"
     id="use4500-4-3-8"
     d="m 156.92309,339.0389 c -1.13736,0.56868 3.60163,6.82416 -4.64422,21.98894 -9.95189,18.00819 -1.13736,29.38177 12.89007,28.43398 19.42988,-1.8956 23.78976,-30.32958 21.42026,-39.80757" />
  <path
     style="opacity:1;vector-effect:none;fill:#dcb0a9;fill-opacity:1;fill-rule:nonzero;stroke:#000000;stroke-width:3;stroke-linecap:round;stroke-linejoin:round;stroke-miterlimit:4;stroke-dasharray:none;stroke-dashoffset:0;stroke-opacity:1"
     id="use3178"
     d="m 107.06885,321.1255 c 1.32692,2.3695 1.32692,9.00409 -4.27457,20.18812 -9.089396,17.81862 -1.13736,29.19221 12.89954,28.24441 19.42989,-1.89559 24.92712,-25.68535 21.04115,-32.22517" />
  <path
     d="m 231.79921,339.0389 c 1.13736,0.56868 -3.60163,6.82416 4.64422,21.98894 9.95189,18.00819 1.13736,29.38177 -12.89007,28.43398 -19.42988,-1.8956 -23.78976,-30.32958 -21.42026,-39.80757"
     id="use3180"
     style="opacity:1;vector-effect:none;fill:#dcb0a9;fill-opacity:1;fill-rule:nonzero;stroke:#000000;stroke-width:3;stroke-linecap:round;stroke-linejoin:round;stroke-miterlimit:4;stroke-dasharray:none;stroke-dashoffset:0;stroke-opacity:1" />
  <path
     d="m 279.28396,321.1255 c -1.32692,2.3695 -1.32692,9.00409 4.27457,20.18812 9.0894,17.81862 1.13736,29.19221 -12.89954,28.24441 -19.42989,-1.89559 -24.92712,-25.68535 -21.04115,-32.22517"
     id="use3182"
     style="opacity:1;vector-effect:none;fill:#dcb0a9;fill-opacity:1;fill-rule:nonzero;stroke:#000000;stroke-width:3;stroke-linecap:round;stroke-linejoin:round;stroke-miterlimit:4;stroke-dasharray:none;stroke-dashoffset:0;stroke-opacity:1" />
  <path
     d="m 114.87512,263.40939 a 16.085765,23.318409 17.562069 0 1 -31.22306,-6.97727 16.085765,23.318409 17.562069 1 1 31.22306,6.97727 z"
     id="path3230-2-0-8"
     style="fill:#935f73;fill-opacity:1;stroke-width:3;stroke-miterlimit:4;stroke-dasharray:none" />
  <path
     d="m 203.27777,296.42379 a 29.417392,28.167752 0 0 1 -58.68431,0 29.417392,28.167752 0 1 1 58.68431,0 z"
     id="path3232-0-0-4"
     style="fill:#935f73;fill-opacity:1;stroke-width:3;stroke-miterlimit:4;stroke-dasharray:none" />
  <path
     d="m 296.57078,247.71904 a 16.514487,10.180148 67.673902 0 1 -19.56144,5.8541 16.514487,10.180148 67.673902 1 1 19.56144,-5.8541 z"
     id="path3234-1-0-9"
     style="fill:#935f73;fill-opacity:1;stroke-width:3;stroke-miterlimit:4;stroke-dasharray:none" />
  <path
     d="m 252.93373,305.20494 a 14.494272,16.207689 0 0 1 -28.96598,0 14.494272,16.207689 0 1 1 28.96598,0 z"
     id="path3236-4-6-4"
     style="fill:#935f73;fill-opacity:1;stroke-width:3;stroke-miterlimit:4;stroke-dasharray:none" />
  <path
     d="m 248.41955,239.07403 a 23.022307,23.150925 0 0 1 -45.89414,0 23.022307,23.150925 0 1 1 45.89414,0 z"
     id="path3238-9-6-4"
     style="fill:#935f73;fill-opacity:1;stroke-width:3;stroke-miterlimit:4;stroke-dasharray:none" />
  <path
     d="m 127.28911,288.93599 a 15.346999,9.3033243 54.626794 0 1 -16.55198,8.64501 15.346999,9.3033243 54.626794 1 1 16.55198,-8.64501 z"
     id="path3242-8-7-4"
     style="fill:#935f73;fill-opacity:1;stroke-width:3;stroke-miterlimit:4;stroke-dasharray:none" />
  <path
     style="opacity:1;vector-effect:none;fill:#dcb0a9;fill-opacity:1;stroke:#000000;stroke-width:3;stroke-linecap:round;stroke-linejoin:round;stroke-miterlimit:4;stroke-dasharray:none;stroke-dashoffset:0;stroke-opacity:1"
     id="path2383-6-2-8-9-0"
     d="m 178.34335,78.39414 c 0,29.28699 -23.69498,52.88719 -52.98197,52.88719 -28.917356,0 -52.574423,-23.6002 -52.574423,-52.88719 0,-29.00266 23.657067,-52.60285 52.574423,-52.60285 29.28699,0 52.98197,23.60019 52.98197,52.60285 z" />
  <path
     style="opacity:0.1;fill:#000000;fill-opacity:1;stroke-width:3;stroke-miterlimit:4;stroke-dasharray:none"
     id="path3221-7-6-1-7-7"
     d="m 175.21561,58.86948 c 0.0948,0.85301 0.0948,1.70603 0.0948,2.46427 0,29.19222 -23.69498,52.8872 -52.88719,52.8872 -22.756659,0 -42.186541,-14.50133 -49.674155,-34.68945 1.326919,27.96007 24.453218,50.32813 52.801895,50.32813 29.19221,0 52.88719,-23.6002 52.88719,-52.79241 0,-6.35026 -1.13736,-12.51095 -3.22252,-18.19774 z" />
  <path
     style="opacity:1;vector-effect:none;fill:#dcb0a9;fill-opacity:1;stroke:#000000;stroke-width:3;stroke-linecap:round;stroke-linejoin:round;stroke-miterlimit:4;stroke-dasharray:none;stroke-dashoffset:0;stroke-opacity:1"
     id="path3807"
     d="m 210.09462,78.39414 c 0,29.28699 23.69498,52.88719 52.98197,52.88719 29.28699,0 52.60285,-23.6002 52.60285,-52.88719 0,-29.00266 -23.31586,-52.60285 -52.60285,-52.60285 -29.28699,0 -52.98197,23.60019 -52.98197,52.60285 z" />
  <path
     style="opacity:0.1;fill:#000000;fill-opacity:1;stroke-width:3;stroke-miterlimit:4;stroke-dasharray:none"
     id="use3076"
     d="m 310.46655,58.86948 c 0.0948,0.85301 0.0948,1.70603 0.0948,2.46427 0,29.19222 -23.69498,52.8872 -52.88719,52.8872 -22.74718,0 -42.17707,-14.50133 -49.66468,-34.68945 1.32692,27.96007 24.45322,50.32813 52.79241,50.32813 29.19222,0 52.88719,-23.6002 52.88719,-52.79241 0,-6.35026 -1.13735,-12.51095 -3.22251,-18.19774 z" />
  <path
     d="m 167.15174,73.93948 c 0,16.68127 -13.55353,30.32957 -30.2348,30.32957 -16.68126,0 -30.23479,-13.6483 -30.23479,-30.32957 0,-16.68126 13.55353,-30.32957 30.23479,-30.32957 16.68127,0 30.2348,13.64831 30.2348,30.32957 z"
     id="right-eye"
     style="fill:#ffffff;stroke:#000000;stroke-width:3;stroke-linecap:round;stroke-linejoin:round;stroke-miterlimit:4;stroke-dasharray:none" />
  <path
     style="fill:#000000;stroke:none;stroke-width:3;stroke-miterlimit:4;stroke-dasharray:none"
     id="right-eye-pupil"
     d="m 152.82851,76.782877 c 0,4.249473 -3.41624,7.582393 -7.58239,7.582393 -4.24948,0 -7.66572,-3.33292 -7.66572,-7.582393 0,-4.16615 3.41624,-7.582393 7.66572,-7.582393 4.16615,0 7.58239,3.416243 7.58239,7.582393 z" />
  <path
     d="m 282.78323,73.93948 c 0,16.68127 -13.55353,30.32957 -30.23479,30.32957 -16.68127,0 -30.23479,-13.6483 -30.23479,-30.32957 0,-16.68126 13.55352,-30.32957 30.23479,-30.32957 16.68126,0 30.23479,13.64831 30.23479,30.32957 z"
     id="left-eye"
     style="fill:#ffffff;stroke:#000000;stroke-width:3;stroke-linecap:round;stroke-linejoin:round;stroke-miterlimit:4;stroke-dasharray:none" />
  <path
     d="m 239.46881,76.78288 c 0,4.24948 3.41625,7.58239 7.58239,7.58239 4.16616,0 7.5824,-3.33291 7.5824,-7.58239 0,-4.16615 -3.41624,-7.58239 -7.5824,-7.58239 -4.16614,0 -7.58239,3.41624 -7.58239,7.58239 z"
     id="left-eye-pupil"
     style="fill:#000000;stroke:none;stroke-width:3;stroke-miterlimit:4;stroke-dasharray:none" />
</svg>
