<?xml version="1.0" encoding="UTF-8" standalone="no"?>
<svg
   xmlns:dc="http://purl.org/dc/elements/1.1/"
   xmlns:cc="http://creativecommons.org/ns#"
   xmlns:rdf="http://www.w3.org/1999/02/22-rdf-syntax-ns#"
   xmlns:svg="http://www.w3.org/2000/svg"
   xmlns="http://www.w3.org/2000/svg"
   id="svg3216"
   height="400"
   width="400"
   version="1.1">

  <path
     id="path2383-6-2-2-8-0-1"
     style="fill:#629580;fill-opacity:1;stroke:#000000;stroke-width:3;stroke-linecap:round;stroke-linejoin:round;stroke-miterlimit:4;stroke-dasharray:none"
     d="m 319.50689,265.981 c 0.0271,65.25716 -55.21767,118.1769 -123.37319,118.1769 -68.14181,0 -123.386785,-52.91974 -123.373115,-118.1769 -0.01549,-65.27027 55.231305,-118.19 123.373115,-118.19 68.15552,0 123.40077,52.91973 123.37319,118.19 z" />
  <path
     id="use4027-8-4"
     style="fill:#629580;fill-opacity:1;fill-rule:evenodd;stroke:#000000;stroke-width:3;stroke-linecap:round;stroke-linejoin:round;stroke-miterlimit:4;stroke-dasharray:none"
     d="m 140.41685,162.70468 c 6.78322,-13.75469 -0.98621,-41.54969 -0.98621,-41.54969 l 22.58553,-5.92003 c 0,0 5.53308,28.49024 17.60623,38.39892" />
  <path
     d="m 255.90695,162.70468 c -6.78321,-13.75469 0.98626,-41.54969 0.98626,-41.54969 l -22.58553,-5.92003 c 0,0 -5.53309,28.49024 -17.60627,38.39892"
     style="fill:#629580;fill-opacity:1;fill-rule:evenodd;stroke:#000000;stroke-width:3;stroke-linecap:round;stroke-linejoin:round;stroke-miterlimit:4;stroke-dasharray:none"
     id="path3805-8-7-3" />
  <path
     id="path2383-6-2-8-9-0-6-6-7"
     style="fill:#629580;fill-opacity:1;stroke:#000000;stroke-width:3;stroke-linecap:round;stroke-linejoin:round;stroke-miterlimit:4;stroke-dasharray:none"
     d="m 190.53444,77.290263 c 0.0116,29.289057 -23.7339,53.040777 -53.02865,53.040777 -29.28902,0 -53.034687,-23.75172 -53.02884,-53.040777 -0.01162,-29.294946 23.73982,-53.046656 53.02884,-53.046656 29.29475,0 53.04053,23.75171 53.02865,53.046656 z" />
  <path
     d="m 201.52648,77.290263 c -0.0116,29.289057 23.73386,53.040777 53.02861,53.040777 29.28902,0 53.03469,-23.75172 53.02884,-53.040777 0.0116,-29.294946 -23.73982,-53.046656 -53.02884,-53.046656 -29.29475,0 -53.04054,23.75171 -53.02861,53.046656 z"
     style="fill:#629580;fill-opacity:1;stroke:#000000;stroke-width:3;stroke-linecap:round;stroke-linejoin:round;stroke-miterlimit:4;stroke-dasharray:none"
     id="path3807-6-5-0" />
  <path
     id="path3221-7-6-1-3-8-4"
     style="opacity:0.13999999;fill:#000000;fill-opacity:1;stroke-width:3;stroke-miterlimit:4;stroke-dasharray:none"
     d="m 312.04889,225.42197 c 0.0777,1.8228 0.13478,3.66732 0.13478,5.50102 0,65.21484 -55.25716,118.14374 -123.36601,118.14374 -53.23001,0 -98.654706,-32.35919 -115.943699,-77.62987 2.996088,62.67995 57.081959,112.68593 123.264789,112.68593 68.10875,0 123.3662,-52.92909 123.3662,-118.14383 0,-14.23813 -2.63564,-27.90454 -7.45634,-40.55699 z" />
  <path
     id="path3230-2-0-8-3-09-4"
     style="fill:#cea08d;fill-opacity:1;stroke-width:3;stroke-miterlimit:4;stroke-dasharray:none"
     d="m 121.24733,248.07401 a 15.890946,25.098312 13.76441 0 1 -30.86701,-7.5707 15.890946,25.098312 13.76441 1 1 30.86701,7.5707 z" />
  <path
     id="path3232-0-0-4-0-5-6"
     style="fill:#cea08d;fill-opacity:1;stroke-width:3;stroke-miterlimit:4;stroke-dasharray:none"
     d="m 207.85153,283.89115 a 28.852873,30.537285 0 0 1 -57.70558,0 28.852873,30.537285 0 1 1 57.70558,0 z" />
  <path
     id="path3234-1-0-9-7-3-4"
     style="fill:#cea08d;fill-opacity:1;stroke-width:3;stroke-miterlimit:4;stroke-dasharray:none"
     d="m 299.33197,231.07765 a 17.568664,10.036468 71.57733 0 1 -19.04219,6.34953 17.568664,10.036468 71.57733 1 1 19.04219,-6.34953 z" />
  <path
     id="path3236-4-6-4-7-3-0"
     style="fill:#cea08d;fill-opacity:1;stroke-width:3;stroke-miterlimit:4;stroke-dasharray:none"
     d="m 256.56573,293.3801 a 14.217905,17.569437 0 0 1 -28.43581,0 14.217905,17.569437 0 1 1 28.43581,0 z" />
  <path
     id="path3238-9-6-4-6-8-8"
     style="fill:#cea08d;fill-opacity:1;stroke-width:3;stroke-miterlimit:4;stroke-dasharray:none"
     d="m 252.18132,221.68832 a 22.580688,25.098323 0 0 1 -45.16131,0 22.580688,25.098323 0 1 1 45.16131,0 z" />
  <path
     id="path3242-8-7-4-4-58-3"
     style="fill:#cea08d;fill-opacity:1;stroke-width:3;stroke-miterlimit:4;stroke-dasharray:none"
     d="m 133.39757,275.75522 a 16.161932,9.3948601 60.067752 0 1 -16.27896,9.38338 16.161932,9.3948601 60.067752 1 1 16.27896,-9.38338 z" />
  <path
     id="path3157-8-1-0-4-1-3-2"
     style="fill:#ffffff;stroke:#000000;stroke-width:3;stroke-linecap:round;stroke-linejoin:round;stroke-miterlimit:4;stroke-dasharray:none"
     d="m 166.92161,67.60348 c 0.0114,14.36727 -11.63613,26.01488 -26.00335,26.01488 -14.36721,0 -26.01481,-11.64761 -26.00334,-26.01488 -0.0114,-14.36728 11.63613,-26.01487 26.00334,-26.01487 14.36722,0 26.01472,11.64759 26.00335,26.01487 z" />
  <path
     id="path3163-7-6-0-4-6-6-4"
     style="fill:#000000;stroke-width:3;stroke-miterlimit:4;stroke-dasharray:none"
     d="m 156.08873,72.19367 c 0,4.79672 -3.87867,8.67545 -8.66402,8.67545 -4.79662,0 -8.6753,-3.87873 -8.6753,-8.67545 0,-4.78526 3.87868,-8.664 8.6753,-8.664 4.78535,0 8.66402,3.87874 8.66402,8.664 z" />
  <path
     id="path3221-7-6-1-7-7-2-5-4"
     style="fill:#000000;fill-opacity:0.31373004;stroke-width:3;stroke-miterlimit:4;stroke-dasharray:none"
     d="m 187.32886,59.08632 c 0.0351,0.81819 0.0588,1.64603 0.0588,2.46906 0,29.27 -23.7509,53.02592 -53.02566,53.02592 -22.87959,0 -42.404158,-14.52369 -49.835283,-34.8423 1.287585,28.13236 24.535203,50.57625 52.981973,50.57625 29.27477,0 53.02576,-23.75593 53.02576,-53.0259 0,-6.39046 -1.1329,-12.52426 -3.20479,-18.20303 z" />
  <path
     d="m 225.13941,67.60348 c -0.0114,14.36727 11.63613,26.01488 26.00334,26.01488 14.36722,0 26.01491,-11.64761 26.00344,-26.01488 0.0114,-14.36728 -11.63622,-26.01487 -26.00344,-26.01487 -14.36721,0 -26.01471,11.64759 -26.00334,26.01487 z"
     style="fill:#ffffff;stroke:#000000;stroke-width:3;stroke-linecap:round;stroke-linejoin:round;stroke-miterlimit:4;stroke-dasharray:none"
     id="path3809-1-4-4" />
  <path
     d="m 235.97218,72.19367 c 0,4.79672 3.87868,8.67545 8.66412,8.67545 4.79662,0 8.6753,-3.87873 8.6753,-8.67545 0,-4.78526 -3.87868,-8.664 -8.6753,-8.664 -4.78534,0 -8.66412,3.87874 -8.66412,8.664 z"
     style="fill:#000000;stroke-width:3;stroke-miterlimit:4;stroke-dasharray:none"
     id="path3811-6-3-6" />
  <path
     d="m 302.08332,59.08632 c 0.0351,0.81819 0.0588,1.64603 0.0588,2.46906 0,29.27 -23.7509,53.02592 -53.02566,53.02592 -22.87959,0 -42.40416,-14.52369 -49.83528,-34.8423 1.28758,28.13236 24.5352,50.57625 52.98197,50.57625 29.27477,0 53.02576,-23.75593 53.02576,-53.0259 0,-6.39046 -1.1329,-12.52426 -3.20479,-18.20303 z"
     style="fill:#000000;fill-opacity:0.31373004;stroke-width:3;stroke-miterlimit:4;stroke-dasharray:none"
     id="use3076-1-8-7" />
  <path
     style="fill:#629580;fill-opacity:1;fill-rule:nonzero;stroke:#000000;stroke-width:3;stroke-miterlimit:4;stroke-dasharray:none;stroke-opacity:1"
     d="m 162.31567,324.07612 c -1.89437,4.8491 10.52448,25.6759 -4.04258,41.47444 -12.67474,13.74629 -1.21733,27.00179 11.76075,25.58298 18.05044,-1.02054 23.30067,-33.7719 19.60073,-39.78409"
     id="use4500-4-3-8-0-1-5" />
  <path
     id="use3178-2-54-7"
     d="m 116.41389,305.71538 c -1.89437,4.8491 10.52444,25.6759 -4.04258,41.47444 -12.674741,13.74629 -1.21733,27.00179 11.76075,25.58298 18.05044,-1.02054 23.30063,-33.7719 19.60073,-39.78409"
     style="fill:#629580;fill-opacity:1;fill-rule:nonzero;stroke:#000000;stroke-width:3;stroke-miterlimit:4;stroke-dasharray:none;stroke-opacity:1" />
  <path
     id="use3180-0-6-8"
     d="m 231.69484,324.07612 c 1.89437,4.8491 -10.52448,25.6759 4.04258,41.47444 12.67474,13.74629 1.21733,27.00179 -11.76075,25.58298 -18.05044,-1.02054 -23.30067,-33.7719 -19.60073,-39.78409"
     style="fill:#629580;fill-opacity:1;fill-rule:nonzero;stroke:#000000;stroke-width:3;stroke-miterlimit:4;stroke-dasharray:none;stroke-opacity:1" />
  <path
     style="fill:#629580;fill-opacity:1;fill-rule:nonzero;stroke:#000000;stroke-width:3;stroke-miterlimit:4;stroke-dasharray:none;stroke-opacity:1"
     d="m 275.30152,305.71538 c 1.89437,4.8491 -10.52444,25.6759 4.04258,41.47444 12.67474,13.74629 1.21733,27.00179 -11.76075,25.58298 -18.05044,-1.02054 -23.30063,-33.7719 -19.60073,-39.78409"
     id="use3182-2-5-6" />
</svg>
