<?xml version="1.0" encoding="UTF-8" standalone="no"?>
<svg
   xmlns:dc="http://purl.org/dc/elements/1.1/"
   xmlns:cc="http://creativecommons.org/ns#"
   xmlns:rdf="http://www.w3.org/1999/02/22-rdf-syntax-ns#"
   xmlns:svg="http://www.w3.org/2000/svg"
   xmlns="http://www.w3.org/2000/svg"
   id="svg3216"
   height="400"
   width="400"
   version="1.1">
  <defs
     id="defs3218" />
  <metadata
     id="metadata3221">
    <rdf:RDF>
      <cc:Work
         rdf:about="">
        <dc:format>image/svg+xml</dc:format>
        <dc:type
           rdf:resource="http://purl.org/dc/dcmitype/StillImage" />
        <dc:title></dc:title>
      </cc:Work>
    </rdf:RDF>
  </metadata>
  <path
     id="use3182-2-2-3"
     d="m 231.15242,238.84421 c -7.38441,10.70811 -15.70138,20.97485 -22.54172,31.94107 0.20215,15.65022 4.74918,30.95201 8.07459,46.16481 5.53721,20.35199 10.47608,41.52899 21.88602,59.54059 2.76601,4.59881 8.18547,7.94063 13.56171,5.73981 9.45772,-1.96228 16.0184,-13.43413 10.75174,-22.14963 -3.1466,-5.91123 -10.10432,-8.87254 -11.72678,-15.80342 -8.91709,-25.08051 -10.54523,-52.28482 -13.55055,-78.65835 -1.71002,-9.70732 -0.34677,-20.28188 -4.57445,-29.39065 -0.62688,0.87192 -1.25367,1.74385 -1.88056,2.61577 z"
     style="fill:#a95e73;fill-opacity:1;fill-rule:nonzero;stroke:#000000;stroke-width:3;stroke-miterlimit:4;stroke-dasharray:none;stroke-opacity:1" />
  <path
     id="use3178-2-5-7"
     d="m 159.04177,239.17641 c -3.1004,15.60229 -3.22959,31.73213 -5.45701,47.50131 -2.89844,20.74039 -4.4433,42.58146 -13.28,61.71114 -3.30413,5.72054 -10.51558,8.95706 -11.38336,16.1575 -2.35298,10.76325 10.07978,21.08212 20.1655,17.44633 8.89841,-6.09935 12.04464,-17.3974 16.12622,-26.84166 9.16952,-25.93551 16.07677,-52.8156 19.58518,-80.11626 1.51902,-7.26881 -6.25676,-11.70876 -9.12806,-17.53219 -5.10477,-7.09682 -10.20943,-14.19368 -15.31429,-21.29048 -0.43803,0.9881 -0.87615,1.97621 -1.31418,2.96431 z"
     style="fill:#a95e73;fill-opacity:1;fill-rule:nonzero;stroke:#000000;stroke-width:3;stroke-miterlimit:4;stroke-dasharray:none;stroke-opacity:1" />
  <path
     id="use3182-2-2-4-3"
     d="m 210.36961,263.30647 c -8.2022,8.80084 -17.63232,16.77833 -25.13569,26.04877 -4.38383,21.6018 -5.06815,43.83726 -5.3637,65.8317 0.5213,12.57145 -0.20884,26.02393 5.36732,37.64095 3.02912,5.66518 10.63752,4.50698 15.95604,4.02621 8.40899,-2.05596 9.06617,-12.54167 9.1237,-19.5828 -0.69464,-37.25727 3.61465,-74.46017 3.40878,-111.73571 -0.62967,-2.59331 -0.38524,-6.76627 -3.35645,-2.22912 z"
     style="fill:#a95e73;fill-opacity:1;fill-rule:nonzero;stroke:#000000;stroke-width:3;stroke-miterlimit:4;stroke-dasharray:none;stroke-opacity:1" />
  <path
     id="path2383-6-2-2-8-0"
     style="fill:#bf7570;fill-opacity:1;stroke:#000000;stroke-width:3;stroke-linecap:round;stroke-linejoin:round;stroke-miterlimit:4;stroke-dasharray:none"
     d="m 315.36251,239.75318 c 0.0266,63.99076 -54.14611,115.88352 -120.97899,115.88352 -66.81943,0 -120.992305,-51.89276 -120.9789,-115.88352 -0.01519,-64.00362 54.15947,-115.89637 120.9789,-115.89637 66.83288,0 121.00602,51.89275 120.97899,115.89637 z" />
  <path
     id="use4027-8"
     style="fill:#bf7570;fill-opacity:1;fill-rule:evenodd;stroke:#000000;stroke-width:3;stroke-linecap:round;stroke-linejoin:round;stroke-miterlimit:4;stroke-dasharray:none"
     d="m 139.74793,138.48108 c 6.65158,-13.48777 -0.96708,-40.743369 -0.96708,-40.743369 l 22.14724,-5.805149 c 0,0 5.42571,27.937358 17.26455,37.653748" />
  <path
     d="m 252.9968,138.48108 c -6.65158,-13.48777 0.96712,-40.743369 0.96712,-40.743369 l -22.14723,-5.805149 c 0,0 -5.42571,27.937358 -17.2646,37.653748"
     style="fill:#bf7570;fill-opacity:1;fill-rule:evenodd;stroke:#000000;stroke-width:3;stroke-linecap:round;stroke-linejoin:round;stroke-miterlimit:4;stroke-dasharray:none"
     id="path3805-8-7" />
  <path
     id="path2383-6-2-8-9-0-6-6"
     style="fill:#bf7570;fill-opacity:1;stroke:#000000;stroke-width:3;stroke-linecap:round;stroke-linejoin:round;stroke-miterlimit:4;stroke-dasharray:none"
     d="m 188.89292,54.724237 c 0.0114,28.720663 -23.27331,52.011443 -51.99956,52.011443 -28.72062,0 -52.00548,-23.29078 -51.999746,-52.011443 -0.01139,-28.72644 23.279126,-52.0172165 51.999746,-52.0172165 28.72625,0 52.01122,23.2907765 51.99956,52.0172165 z" />
  <path
     d="m 199.67165,54.724237 c -0.0114,28.720663 23.27328,52.011443 51.99952,52.011443 28.72063,0 52.00548,-23.29078 51.99975,-52.011443 0.0114,-28.72644 -23.27912,-52.0172165 -51.99975,-52.0172165 -28.72624,0 -52.01121,23.2907765 -51.99952,52.0172165 z"
     style="fill:#bf7570;fill-opacity:1;stroke:#000000;stroke-width:3;stroke-linecap:round;stroke-linejoin:round;stroke-miterlimit:4;stroke-dasharray:none"
     id="path3807-6-5" />
  <path
     id="path3221-7-6-1-3-8"
     style="opacity:0.1;fill:#000000;fill-opacity:1;stroke-width:3;stroke-miterlimit:4;stroke-dasharray:none"
     d="m 308.04924,199.98124 c 0.0762,1.78751 0.13206,3.59621 0.13206,5.39432 0,63.94919 -54.18482,115.85101 -120.97184,115.85101 -52.19701,0 -96.74028,-31.73129 -113.69367,-76.1234 2.93786,61.46355 55.97422,110.49909 120.87259,110.49909 66.78711,0 120.97212,-51.90193 120.97212,-115.85111 0,-13.96179 -2.58458,-27.36297 -7.31164,-39.76991 z" />
  <path
     id="path3230-2-0-8-3-09"
     style="fill:#d2caa1;fill-opacity:1;stroke-width:3;stroke-miterlimit:4;stroke-dasharray:none"
     d="m 112.29036,222.02878 a 16.513393,26.08141 13.764412 0 1 -32.076076,-7.86725 16.513393,26.08141 13.764412 1 1 32.076076,7.86725 z" />
  <path
     id="path3232-0-0-4-0-5"
     style="fill:#d2caa1;fill-opacity:1;stroke-width:3;stroke-miterlimit:4;stroke-dasharray:none"
     d="m 202.28684,259.24887 a 29.983038,31.733426 0 0 1 -59.96591,0 29.983038,31.733426 0 1 1 59.96591,0 z" />
  <path
     id="path3234-1-0-9-7-3"
     style="fill:#d2caa1;fill-opacity:1;stroke-width:3;stroke-miterlimit:4;stroke-dasharray:none"
     d="m 297.35055,204.36667 a 18.256827,10.429595 71.577328 0 1 -19.78807,6.59824 18.256827,10.429595 71.577328 1 1 19.78807,-6.59824 z" />
  <path
     id="path3236-4-6-4-7-3"
     style="fill:#d2caa1;fill-opacity:1;stroke-width:3;stroke-miterlimit:4;stroke-dasharray:none"
     d="m 252.90916,269.1095 a 14.77482,18.257631 0 0 1 -29.54964,0 14.77482,18.257631 0 1 1 29.54964,0 z" />
  <path
     id="path3238-9-6-4-6-8"
     style="fill:#d2caa1;fill-opacity:1;stroke-width:3;stroke-miterlimit:4;stroke-dasharray:none"
     d="m 248.35302,194.60957 a 23.465172,26.081421 0 0 1 -46.93028,0 23.465172,26.081421 0 1 1 46.93028,0 z" />
  <path
     id="path3242-8-7-4-4-58"
     style="fill:#d2caa1;fill-opacity:1;stroke-width:3;stroke-miterlimit:4;stroke-dasharray:none"
     d="m 124.91652,250.79426 a 16.794993,9.7628559 60.067749 0 1 -16.91661,9.75092 16.794993,9.7628559 60.067749 1 1 16.91661,-9.75092 z" />
  <path
     id="path3157-8-1-0-4-1-3"
     style="fill:#ffffff;stroke:#000000;stroke-width:3;stroke-linecap:round;stroke-linejoin:round;stroke-miterlimit:4;stroke-dasharray:none"
     d="m 165.73833,45.225436 c 0.0111,14.088455 -11.41032,25.510007 -25.49872,25.510007 -14.08849,0 -25.50996,-11.421552 -25.49872,-25.510007 -0.0112,-14.088465 11.41023,-25.510018 25.49872,-25.510018 14.0884,0 25.50987,11.421553 25.49872,25.510018 z" />
  <path
     id="path3163-7-6-0-4-6-6"
     style="fill:#000000;stroke-width:3;stroke-miterlimit:4;stroke-dasharray:none"
     d="m 155.11577,49.726548 c 0,4.70364 -3.8035,8.507103 -8.49597,8.507103 -4.70354,0 -8.50695,-3.803463 -8.50695,-8.507103 0,-4.692393 3.80341,-8.495848 8.50695,-8.495848 4.69247,0 8.49597,3.803455 8.49597,8.495848 z" />
  <path
     id="path3221-7-6-1-7-7-2-5"
     style="opacity:0.15;fill:#000000;fill-opacity:1;stroke-width:3;stroke-miterlimit:4;stroke-dasharray:none"
     d="m 185.74955,36.873571 c 0.0344,0.802319 0.0576,1.614081 0.0576,2.42114 0,28.701978 -23.28989,51.996858 -51.99654,51.996858 -22.43567,0 -41.58134,-14.241826 -48.86825,-34.166113 1.26269,27.586384 24.05906,49.594754 51.95379,49.594754 28.70665,0 51.99672,-23.294881 51.99672,-51.996869 0,-6.266445 -1.11092,-12.281207 -3.1426,-17.84977 z" />
  <path
     d="m 222.82634,45.225436 c -0.0111,14.088455 11.41022,25.510007 25.49862,25.510007 14.08849,0 25.51006,-11.421552 25.49881,-25.510007 0.0112,-14.088465 -11.41032,-25.510018 -25.49881,-25.510018 -14.0884,0 -25.50987,11.421553 -25.49862,25.510018 z"
     style="fill:#ffffff;stroke:#000000;stroke-width:3;stroke-linecap:round;stroke-linejoin:round;stroke-miterlimit:4;stroke-dasharray:none"
     id="path3809-1-4" />
  <path
     d="m 233.44889,49.726548 c 0,4.70364 3.80341,8.507103 8.49589,8.507103 4.70363,0 8.50703,-3.803463 8.50703,-8.507103 0,-4.692393 -3.8034,-8.495848 -8.50703,-8.495848 -4.69248,0 -8.49589,3.803455 -8.49589,8.495848 z"
     style="fill:#000000;stroke-width:3;stroke-miterlimit:4;stroke-dasharray:none"
     id="path3811-6-3" />
  <path
     d="m 298.27703,36.873586 c 0.0344,0.802319 0.0576,1.614081 0.0576,2.42114 0,28.701978 -23.28989,51.996858 -51.99654,51.996858 -22.43567,0 -41.58134,-14.241826 -48.86825,-34.166113 1.26269,27.586384 24.05906,49.594749 51.95379,49.594749 28.70665,0 51.99672,-23.294876 51.99672,-51.996864 0,-6.266445 -1.11092,-12.281207 -3.1426,-17.84977 z"
     style="opacity:0.15;fill:#000000;fill-opacity:1;stroke-width:3;stroke-miterlimit:4;stroke-dasharray:none"
     id="use3076-1-8" />
  <path
     style="fill:#ac6863;fill-opacity:1;fill-rule:nonzero;stroke:#000000;stroke-width:3;stroke-miterlimit:4;stroke-dasharray:none;stroke-opacity:1"
     d="m 161.22178,328.32071 c -1.8576,4.75499 10.32022,25.17761 -3.9641,40.66957 -12.42885,13.47952 -1.19373,26.47778 11.53244,25.0865 17.70017,-1.00073 22.84852,-33.11651 19.2204,-39.01203"
     id="use4500-4-3-8-0-1" />
  <path
     id="use3178-2-54"
     d="m 116.21075,310.31628 c -1.8576,4.75499 10.32022,25.17762 -3.9641,40.66957 -12.428761,13.47953 -1.19373,26.47779 11.53253,25.0865 17.70016,-1.00072 22.84842,-33.1165 19.2203,-39.01202"
     style="fill:#ac6863;fill-opacity:1;fill-rule:nonzero;stroke:#000000;stroke-width:3;stroke-miterlimit:4;stroke-dasharray:none;stroke-opacity:1" />
  <path
     id="use3180-0-6"
     d="m 229.25458,328.32072 c 1.8576,4.75498 -10.32022,25.17761 3.9641,40.66957 12.42885,13.47952 1.19373,26.47778 -11.53244,25.0865 -17.70017,-1.00073 -22.84852,-33.11651 -19.2204,-39.01203"
     style="fill:#ac6863;fill-opacity:1;fill-rule:nonzero;stroke:#000000;stroke-width:3;stroke-miterlimit:4;stroke-dasharray:none;stroke-opacity:1" />
  <path
     style="fill:#ac6863;fill-opacity:1;fill-rule:nonzero;stroke:#000000;stroke-width:3;stroke-miterlimit:4;stroke-dasharray:none;stroke-opacity:1"
     d="m 272.01505,310.31629 c 1.85761,4.75499 -10.32021,25.17762 3.96411,40.66957 12.42876,13.47953 1.19372,26.47779 -11.53254,25.0865 -17.70016,-1.00072 -22.84842,-33.1165 -19.2203,-39.01202"
     id="use3182-2-5" />
</svg>
