<?xml version="1.0" encoding="UTF-8" standalone="no"?>
<svg
   xmlns:dc="http://purl.org/dc/elements/1.1/"
   xmlns:cc="http://creativecommons.org/ns#"
   xmlns:rdf="http://www.w3.org/1999/02/22-rdf-syntax-ns#"
   xmlns:svg="http://www.w3.org/2000/svg"
   xmlns="http://www.w3.org/2000/svg"
   id="svg3216"
   height="400"
   width="400"
   version="1.1">
  <defs
     id="defs3218" />
  <metadata
     id="metadata3221">
    <rdf:RDF>
      <cc:Work
         rdf:about="">
        <dc:format>image/svg+xml</dc:format>
        <dc:type
           rdf:resource="http://purl.org/dc/dcmitype/StillImage" />
        <dc:title></dc:title>
      </cc:Work>
    </rdf:RDF>
  </metadata>
  <path
     d="m 235.58202,302.5463 c 2.31368,4.6275 6.16976,49.2547 23.13677,62.3658 14.65334,11.5685 5.39869,26.6076 -7.71224,27.3788 -17.73824,1.5426 -40.87501,-69.8557 -38.17574,-76.4113"
     id="path4062"
     style="fill:#7174ab;fill-opacity:1;fill-rule:nonzero;stroke:#000000;stroke-width:3;stroke-miterlimit:4;stroke-dasharray:none;stroke-opacity:1" />
  <path
     d="m 162.31545,302.5463 c -2.69929,4.6275 -6.16978,49.2547 -23.1368,62.3658 -14.65341,11.5685 -5.39866,26.6076 7.32658,27.3788 18.12381,1.5426 40.87502,-69.8557 38.17583,-76.4113"
     id="path4064"
     style="fill:#7174ab;fill-opacity:1;fill-rule:nonzero;stroke:#000000;stroke-width:3;stroke-miterlimit:4;stroke-dasharray:none;stroke-opacity:1" />
  <path
     d="m 213.9877,299.0126 c 1.928,4.6275 -3.85616,53.6598 -3.08497,73.3265 0.7713,24.6794 -6.16976,24.6794 -17.73824,23.137 -16.58131,-0.7712 -7.32673,-65.9997 -3.85609,-71.3982"
     id="path4066"
     style="fill:#7174ab;fill-opacity:1;fill-rule:nonzero;stroke:#000000;stroke-width:3;stroke-miterlimit:4;stroke-dasharray:none;stroke-opacity:1" />
  <path
     style="fill:#8c95d6;fill-opacity:1;stroke:#000000;stroke-width:3;stroke-miterlimit:4;stroke-dasharray:none;stroke-opacity:1"
     id="path4068"
     d="m 235.42598,93.57531 c 0,0 -6.83847,24.40697 -18.20157,34.71915 -6.10265,-0.9465 -12.31011,-1.36644 -18.72838,-1.36644 -7.47033,0 -14.73002,0.62982 -21.88483,1.89304 -11.46811,-10.3121 -18.51757,-34.50909 -18.51757,-34.50909 l -22.09519,7.99562 c 0,0 8.83827,23.04053 6.10265,37.77219 C 102.54014,159.54418 75.5,198.99949 75.5,244.5575 c 0,65.0258 55.13253,117.6321 122.99603,117.6321 67.8636,0 122.68026,-52.6063 122.68026,-117.6321 0,-46.60773 -28.19778,-86.90644 -69.23113,-105.95082 -2.63035,-14.62501 5.78654,-37.24559 5.78654,-37.24559 z" />
  <path
     style="opacity:1;vector-effect:none;fill:#8c95d6;fill-opacity:1;stroke:#000000;stroke-width:3;stroke-linecap:butt;stroke-linejoin:miter;stroke-miterlimit:4;stroke-dasharray:none;stroke-dashoffset:0;stroke-opacity:1"
     id="path4070"
     d="m 186.61423,54.31849 c 0,29.14491 -23.46268,52.81842 -52.81759,52.81842 -29.03957,0 -52.712865,-23.67351 -52.712865,-52.81842 0,-29.14491 23.673295,-52.8185 52.712865,-52.8185 29.35491,0 52.81759,23.67359 52.81759,52.8185 z" />
  <path
     style="opacity:1;vector-effect:none;fill:#8c95d6;fill-opacity:1;stroke:#000000;stroke-width:3;stroke-linecap:butt;stroke-linejoin:miter;stroke-miterlimit:4;stroke-dasharray:none;stroke-dashoffset:0;stroke-opacity:1"
     id="path4072"
     d="m 210.0607,54.31849 c 0,29.14491 23.46291,52.81842 52.81785,52.81842 28.8288,0 52.81774,-23.67351 52.39678,-52.81842 0.42096,-29.14491 -23.56798,-52.8185 -52.39678,-52.8185 -29.35494,0 -52.81785,23.67359 -52.81785,52.8185 z" />
  <path
     style="fill:#6d77ad;fill-opacity:1;fill-rule:nonzero;stroke:#000000;stroke-width:3;stroke-miterlimit:4;stroke-dasharray:none;stroke-opacity:1"
     d="m 122.08865,335.1703 c 0.057,6.444 -1.52342,13.3782 -7.24458,19.5521 -12.41537,13.6781 -1.15224,26.8219 11.99968,25.4541 12.97569,-0.7724 19.29701,-18.547 20.25116,-30.3212"
     id="path4076" />
  <path
     style="fill:#6d77ad;fill-opacity:1;fill-rule:nonzero;stroke:#000000;stroke-width:3;stroke-miterlimit:4;stroke-dasharray:none;stroke-opacity:1"
     d="m 249.66527,349.9393 c 0.98566,11.7745 7.3346,29.4668 20.27916,30.2372 13.15191,1.3678 24.41506,-11.776 11.99962,-25.4541 -5.70462,-6.1561 -7.31979,-13.0679 -7.27252,-19.4962"
     id="path4078" />
  <path
     style="fill:#6d77ad;fill-opacity:1;fill-rule:nonzero;stroke:#000000;stroke-width:3;stroke-miterlimit:4;stroke-dasharray:none;stroke-opacity:1"
     d="m 206.33792,360.3726 c -2.15213,8.689 3.37067,37.1301 20.25116,38.0134 12.73095,1.4729 24.31093,-11.6922 11.58005,-25.3702 -4.86429,-5.2493 -6.71712,-11.0393 -7.07674,-16.6151"
     id="path4080" />
  <path
     style="fill:#6d77ad;fill-opacity:1;fill-rule:nonzero;stroke:#000000;stroke-width:3;stroke-miterlimit:4;stroke-dasharray:none;stroke-opacity:1"
     d="m 167.73765,356.9042 c -0.43688,5.4191 -2.30374,11.0213 -7.02081,16.1116 -12.73088,13.678 -1.15089,26.8431 11.58007,25.3702 16.82782,-0.8806 22.37678,-29.145 20.27916,-37.9294"
     id="path4082" />
  <path
     d="m 126.59215,230.566 a 15.31023,24.633361 13.149668 1 1 -29.723227,-7.3651 15.31023,24.633361 13.149668 0 1 29.723227,7.3651 z"
     id="path4088"
     style="fill:#6b688f;fill-opacity:0.790441;stroke:none;stroke-width:3;stroke-miterlimit:4;stroke-dasharray:none" />
  <path
     d="m 214.38328,278.8601 a 27.629428,29.849807 0 0 1 -55.25879,0 27.629428,29.849807 0 1 1 55.25879,0 z"
     id="path4090"
     style="fill:#6b688f;fill-opacity:0.790441;stroke:none;stroke-width:3;stroke-miterlimit:4;stroke-dasharray:none" />
  <path
     d="m 301.81673,227.3043 a 17.129143,9.622952 72.260371 0 1 -18.20209,6.2077 17.129143,9.622952 72.260371 1 1 18.20209,-6.2077 z"
     id="path4092"
     style="fill:#6b688f;fill-opacity:0.790441;stroke:none;stroke-width:3;stroke-miterlimit:4;stroke-dasharray:none" />
  <path
     d="m 260.8883,288.1191 a 13.635833,17.202814 0 0 1 -27.25057,0 13.635833,17.202814 0 1 1 27.25057,0 z"
     id="path4094"
     style="fill:#6b688f;fill-opacity:0.790441;stroke:none;stroke-width:3;stroke-miterlimit:4;stroke-dasharray:none" />
  <path
     d="m 256.67965,218.0453 a 21.674254,24.588989 0 0 1 -43.34849,0 21.674254,24.588989 0 1 1 43.34849,0 z"
     id="path4096"
     style="fill:#6b688f;fill-opacity:0.790441;stroke:none;stroke-width:3;stroke-miterlimit:4;stroke-dasharray:none" />
  <path
     d="m 143.03725,270.8637 a 15.898091,9.0737452 61.070553 0 1 -15.66656,9.1538 15.898091,9.0737452 61.070553 1 1 15.66656,-9.1538 z"
     id="path4098"
     style="fill:#6b688f;fill-opacity:0.790441;stroke:none;stroke-width:3;stroke-miterlimit:4;stroke-dasharray:none" />
  <path
     style="opacity:0.13999999;fill:#000000;fill-opacity:1;stroke:#000000;stroke-width:3;stroke-miterlimit:4;stroke-dasharray:none;stroke-opacity:1"
     id="path4100"
     d="m 183.56326,36.32655 c 0,0.84158 0.4205,1.68358 0.4205,2.41971 0,29.14491 -23.98889,52.81854 -52.92275,52.81854 -22.72639,0 -42.401475,-14.41468 -49.766629,-34.72126 1.157252,28.09265 24.304519,50.3984 52.817869,50.3984 28.93404,0 52.92286,-23.67359 52.92286,-52.81849 0,-6.31291 -1.15716,-12.41522 -3.47185,-18.0969 z" />
  <path
     style="opacity:0.13999999;fill:#000000;fill-opacity:1;stroke:#000000;stroke-width:3;stroke-miterlimit:4;stroke-dasharray:none;stroke-opacity:1"
     id="path4102"
     d="m 312.5272,36.32655 c 0,0.84158 0.41994,1.68358 0.41994,2.41971 0,29.14491 -23.99022,52.81854 -52.92326,52.81854 -22.72591,0 -42.40098,-14.41468 -49.76616,-34.72126 1.1572,28.09265 24.30456,50.3984 52.81932,50.3984 28.93285,0 52.92318,-23.67359 52.92318,-52.81849 0,-6.31291 -1.15998,-12.41522 -3.47302,-18.0969 z" />
  <path
     style="opacity:0.13999999;fill:#000000;fill-opacity:1;stroke:#000000;stroke-width:3;stroke-miterlimit:4;stroke-dasharray:none;stroke-opacity:1"
     id="path4104"
     d="m 314.03746,203.9979 c 0,1.5422 0,3.4706 0,5.3985 0,64.7839 -54.75709,117.6137 -122.62499,117.6137 -53.21456,0 -98.293032,-32.392 -115.529919,-77.5093 2.969427,62.4702 56.916699,112.2156 122.856489,112.2156 67.86787,0 122.62507,-52.4448 122.62507,-117.6144 0,-13.882 -2.69927,-27.7643 -7.32665,-40.1041 z" />
  <ellipse
     ry="25.93461"
     rx="25.934309"
     style="fill:#ffffff;stroke:#000000;stroke-width:3;stroke-miterlimit:4;stroke-dasharray:none"
     id="right-eye-6"
     cy="52.856564"
     cx="143.82928" />
  <ellipse
     ry="8.1793766"
     rx="8.1792822"
     style="fill:#000000;stroke-width:3;stroke-miterlimit:4;stroke-dasharray:none"
     id="right-pupil"
     cx="151.80908"
     cy="52.856564"
     stoke="none" />
  <ellipse
     ry="25.93461"
     rx="25.934309"
     transform="scale(-1,1)"
     cx="-251.55643"
     cy="52.856564"
     id="circle1470"
     style="fill:#ffffff;stroke:#000000;stroke-width:3;stroke-miterlimit:4;stroke-dasharray:none" />
  <ellipse
     ry="8.1793766"
     rx="8.1792822"
     transform="scale(-1,1)"
     stoke="none"
     cy="52.856564"
     cx="-243.57663"
     id="circle1472"
     style="fill:#000000;stroke-width:3;stroke-miterlimit:4;stroke-dasharray:none" />
</svg>
