<?xml version="1.0" encoding="UTF-8" standalone="no"?>
<svg
   xmlns:dc="http://purl.org/dc/elements/1.1/"
   xmlns:cc="http://creativecommons.org/ns#"
   xmlns:rdf="http://www.w3.org/1999/02/22-rdf-syntax-ns#"
   xmlns:svg="http://www.w3.org/2000/svg"
   xmlns="http://www.w3.org/2000/svg"
   id="svg3216"
   height="400"
   width="400"
   version="1.1">
  <defs
     id="defs3218" />
  <metadata
     id="metadata3221">
    <rdf:RDF>
      <cc:Work
         rdf:about="">
        <dc:format>image/svg+xml</dc:format>
        <dc:type
           rdf:resource="http://purl.org/dc/dcmitype/StillImage" />
        <dc:title></dc:title>
      </cc:Work>
    </rdf:RDF>
  </metadata>
  <ellipse
     ry="112.35427"
     rx="112.22873"
     cy="265.38446"
     cx="196.57587"
     id="path4565-9"
     style="fill:#93cac2;fill-opacity:1;fill-rule:nonzero;stroke:#000000;stroke-width:3.00000024;stroke-linecap:round;stroke-linejoin:round;stroke-miterlimit:4;stroke-dasharray:none;stroke-dashoffset:0;stroke-opacity:1" />
  <path
     id="use1899"
     d="m 304.01823,233.23453 a 117.04708,117.17802 0 0 1 0.54465,10.36583 117.04708,117.17802 0 0 1 -117.04607,117.17913 117.04708,117.17802 0 0 1 -89.43917,-41.77802 112.22873,112.35428 0 0 0 98.49927,58.73764 112.22873,112.35428 0 0 0 112.22713,-112.35549 112.22873,112.35428 0 0 0 -4.78581,-32.14909 z"
     style="opacity:0.1;fill:#080000;fill-opacity:1;fill-rule:nonzero;stroke:none;stroke-width:3.00000024;stroke-linecap:round;stroke-linejoin:round;stroke-miterlimit:4;stroke-dasharray:none;stroke-dashoffset:0;stroke-opacity:1" />
  <path
     style="vector-effect:none;fill:#93cac2;fill-opacity:1;fill-rule:nonzero;stroke:#000000;stroke-width:3.00000048;stroke-linecap:round;stroke-linejoin:round;stroke-miterlimit:4;stroke-dasharray:none;stroke-dashoffset:0;stroke-opacity:1"
     d="m 167.96174,326.32577 c -1.32125,3.36276 7.3403,17.80563 -2.81951,28.76147 -8.84005,9.53265 -0.84904,18.72499 8.20257,17.74114 12.58931,-0.70773 16.25109,-23.41999 13.67058,-27.58922"
     id="use4500-4-3-8-0-6-4" />
  <path
     id="use3178-2-2-0"
     d="m 128.69039,312.15185 c -1.32123,3.36267 7.3403,17.80554 -2.81952,28.76137 -8.84003,9.53275 -0.84902,18.72508 8.20257,17.74115 12.58933,-0.70773 16.25109,-23.4199 13.67059,-27.58923"
     style="vector-effect:none;fill:#93cac2;fill-opacity:1;fill-rule:nonzero;stroke:#000000;stroke-width:3.00000048;stroke-linecap:round;stroke-linejoin:round;stroke-miterlimit:4;stroke-dasharray:none;stroke-dashoffset:0;stroke-opacity:1" />
  <path
     id="use3180-0-0-9"
     d="m 227.96166,326.32587 c 1.32124,3.36266 -7.34031,17.80553 2.8195,28.76137 8.84005,9.53265 0.84904,18.72499 -8.20256,17.74114 -12.58932,-0.70773 -16.2511,-23.41999 -13.67059,-27.58922"
     style="vector-effect:none;fill:#93cac2;fill-opacity:1;fill-rule:nonzero;stroke:#000000;stroke-width:3.00000048;stroke-linecap:round;stroke-linejoin:round;stroke-miterlimit:4;stroke-dasharray:none;stroke-dashoffset:0;stroke-opacity:1" />
  <path
     style="vector-effect:none;fill:#93cac2;fill-opacity:1;fill-rule:nonzero;stroke:#000000;stroke-width:3.00000048;stroke-linecap:round;stroke-linejoin:round;stroke-miterlimit:4;stroke-dasharray:none;stroke-dashoffset:0;stroke-opacity:1"
     d="m 267.08371,310.71058 c 1.32123,3.36266 -7.34029,17.80553 2.81952,28.76137 8.84003,9.53265 0.84902,18.72508 -8.20257,17.74115 -12.58932,-0.70774 -16.25109,-23.41991 -13.67058,-27.58923"
     id="use3182-2-0-4" />
  <path
     id="path3230-2-0-8-3-0-1"
     style="fill:#c18272;fill-opacity:1;stroke-width:3.00000024;stroke-miterlimit:4;stroke-dasharray:none"
     d="m 127.83088,260.09896 a 13.936847,20.506588 16.76529 0 1 -27.22472,-6.1508 13.936847,20.506588 16.76529 1 1 27.22472,6.1508 z" />
  <path
     id="path3232-0-0-4-0-2-0"
     style="fill:#c18272;fill-opacity:1;stroke-width:3.00000024;stroke-miterlimit:4;stroke-dasharray:none"
     d="m 204.21588,289.19848 a 25.448238,24.809917 0 0 1 -50.89643,0 25.448238,24.809917 0 1 1 50.89643,0 z" />
  <path
     id="path3234-1-0-9-7-6-6"
     style="fill:#c18272;fill-opacity:1;stroke-width:3.00000024;stroke-miterlimit:4;stroke-dasharray:none"
     d="m 284.90159,246.29032 a 14.410631,8.7679932 68.455344 0 1 -16.79518,5.15866 14.410631,8.7679932 68.455344 1 1 16.79518,-5.15866 z" />
  <path
     id="path3236-4-6-4-7-4-6"
     style="fill:#c18272;fill-opacity:1;stroke-width:3.00000024;stroke-miterlimit:4;stroke-dasharray:none"
     d="m 247.18173,296.90775 a 12.540195,14.274233 0 0 1 -25.08039,0 12.540195,14.274233 0 1 1 25.08039,0 z" />
  <path
     id="path3238-9-6-4-6-0-1"
     style="fill:#c18272;fill-opacity:1;stroke-width:3.00000024;stroke-miterlimit:4;stroke-dasharray:none"
     d="m 243.31471,238.66199 a 19.91617,20.391051 0 0 1 -39.8323,0 19.91617,20.391051 0 1 1 39.8323,0 z" />
  <path
     id="path3242-8-7-4-4-5-1"
     style="fill:#c18272;fill-opacity:1;stroke-width:3.00000024;stroke-miterlimit:4;stroke-dasharray:none"
     d="m 138.54745,282.58847 a 13.438861,8.0962648 55.660994 0 1 -14.35806,7.62349 13.438861,8.0962648 55.660994 1 1 14.35806,-7.62349 z" />
  <path
     id="use4027-4-2"
     style="fill:#93cac2;fill-opacity:1;fill-rule:evenodd;stroke:#000000;stroke-width:3.00000024;stroke-linecap:round;stroke-linejoin:round;stroke-miterlimit:4;stroke-dasharray:none"
     d="m 160.0423,162.54798 c 7.47719,-14.43624 -0.64656,-43.65598 -0.64656,-43.65598 l 20.06764,-3.72507 c 0,0 1.2723,32.39012 14.23266,42.8274" />
  <path
     d="M 91.119391,92.311762 C 100.53773,120.2325 130.79346,135.2406 158.68934,125.82546 186.57959,116.41213 201.54574,86.141002 192.11216,58.225461 182.6919,30.299108 152.43047,15.292915 124.54011,24.706142 96.644339,34.121384 81.678103,64.392511 91.119391,92.311762 Z"
     style="fill:#93cac2;fill-opacity:1;stroke:#000000;stroke-width:3.00000024;stroke-linecap:round;stroke-linejoin:round;stroke-miterlimit:4;stroke-dasharray:none"
     id="path3807-2-6" />
  <path
     d="m 116.70103,86.160824 c 4.96234,14.725936 20.91536,22.637916 35.62391,17.673516 14.70858,-4.964292 22.60195,-20.92457 17.61808,-35.643404 -4.96226,-14.726041 -20.91533,-22.637918 -35.62389,-17.673518 -14.70849,4.964294 -22.60177,20.924572 -17.6181,35.643406 z"
     style="fill:#ffffff;stroke:#000000;stroke-width:3.00000024;stroke-linecap:round;stroke-linejoin:round;stroke-miterlimit:4;stroke-dasharray:none"
     id="path3809-6-7" />
  <path
     d="m 132.99814,80.926024 c 1.31453,3.892552 5.52216,5.978797 9.40176,4.669409 3.88869,-1.312569 5.97032,-5.521418 4.65579,-9.414076 -1.31143,-3.883224 -5.51903,-5.969469 -9.40778,-4.656901 -3.87956,1.309495 -5.96118,5.518238 -4.64977,9.401568 z"
     style="fill:#000000;stroke-width:3.00000024;stroke-miterlimit:4;stroke-dasharray:none"
     id="path3811-60-7" />
  <path
     id="path3221-7-6-1-7-7-2-2-7"
     style="opacity:0.13999999;fill:#000000;fill-opacity:1;stroke-width:3.00000024;stroke-miterlimit:4;stroke-dasharray:none"
     d="m 184.4224,46.786301 c 0.26089,0.753325 0.51488,1.518522 0.74538,2.285945 8.1975,27.291533 -7.06549,56.020714 -34.0789,64.129854 -21.11232,6.3377 -43.19629,-1.79592 -55.743852,-18.682619 9.067072,25.874029 36.804602,40.361259 63.053892,32.481389 27.01342,-8.10914 42.2766,-36.838317 34.07911,-64.12985 -1.78974,-5.958446 -4.55295,-11.363902 -8.05535,-16.084825 z" />
  <path
     id="use4027-4-7-6"
     style="fill:#93cac2;fill-opacity:1;fill-rule:evenodd;stroke:#000000;stroke-width:3.00000024;stroke-linecap:round;stroke-linejoin:round;stroke-miterlimit:4;stroke-dasharray:none"
     d="m 184.79322,162.12548 c 13.67598,-5.88881 24.89174,-50.76365 24.89174,-50.76365 l 17.66458,9.69486 c 0,0 -13.3547,32.55007 -10.24001,47.33876" />
  <path
     d="m 199.60481,60.44968 c -10.55672,27.51063 3.1739,58.36029 30.6669,68.89307 27.48768,10.53076 58.32612,-3.24417 68.86777,-30.760627 10.55892,-27.516248 -3.17733,-58.36803 -30.66501,-68.898791 -27.49299,-10.532774 -58.33154,3.24215 -68.86966,30.766348 z"
     style="fill:#93cac2;fill-opacity:1;stroke:#000000;stroke-width:3.00000024;stroke-linecap:round;stroke-linejoin:round;stroke-miterlimit:4;stroke-dasharray:none"
     id="path3807-2-9-2" />
  <path
     d="m 223.2331,72.021337 c -5.5718,14.506521 1.66891,30.771433 16.1651,36.325073 14.49617,5.55364 30.75765,-1.70751 36.30824,-16.222194 5.5718,-14.506521 -1.66891,-30.771436 -16.16509,-36.325077 -14.49619,-5.553535 -30.75745,1.707622 -36.30825,16.222198 z"
     style="fill:#ffffff;stroke:#000000;stroke-width:3.00000024;stroke-linecap:round;stroke-linejoin:round;stroke-miterlimit:4;stroke-dasharray:none"
     id="path3809-6-9-6" />
  <path
     d="m 242.04332,80.071329 c -1.47054,3.836161 0.43944,8.125462 4.26283,9.590243 3.83246,1.468174 8.12059,-0.446568 9.59113,-4.282729 1.46704,-3.827045 -0.44286,-8.116346 -4.27532,-9.584519 -3.82347,-1.464782 -8.1116,0.44996 -9.57864,4.277005 z"
     style="fill:#000000;stroke-width:3.00000024;stroke-miterlimit:4;stroke-dasharray:none"
     id="path3811-60-2-6" />
  <path
     id="path3221-7-6-1-7-7-2-2-1-3"
     style="opacity:0.13999999;fill:#000000;fill-opacity:1;stroke-width:3.00000024;stroke-miterlimit:4;stroke-dasharray:none"
     d="m 297.98987,65.375709 c 0.0332,0.796572 0.0563,1.602472 0.0563,2.403708 0,28.495349 -22.88293,51.622553 -51.08793,51.622553 -22.0436,0 -40.8546,-14.13935 -48.01421,-33.920203 1.2406,27.387783 23.63865,49.237713 51.04592,49.237713 28.205,0 51.08803,-23.12721 51.08803,-51.622554 0,-6.22132 -1.09147,-12.192698 -3.08778,-17.721217 z" />
</svg>
