<?xml version="1.0" encoding="UTF-8" standalone="no"?>
<svg
   xmlns:dc="http://purl.org/dc/elements/1.1/"
   xmlns:cc="http://creativecommons.org/ns#"
   xmlns:rdf="http://www.w3.org/1999/02/22-rdf-syntax-ns#"
   xmlns:svg="http://www.w3.org/2000/svg"
   xmlns="http://www.w3.org/2000/svg"
   id="svg3216"
   height="400"
   width="400"
   version="1.1">
  <defs
     id="defs3218" />
  <metadata
     id="metadata3221">
    <rdf:RDF>
      <cc:Work
         rdf:about="">
        <dc:format>image/svg+xml</dc:format>
        <dc:type
           rdf:resource="http://purl.org/dc/dcmitype/StillImage" />
        <dc:title></dc:title>
      </cc:Work>
    </rdf:RDF>
  </metadata>
  <path
     style="fill:#b6acb2;fill-opacity:1;fill-rule:nonzero;stroke:#000000;stroke-width:3;stroke-linecap:round;stroke-linejoin:round;stroke-miterlimit:4;stroke-dasharray:none;stroke-opacity:1"
     d="m 154.2988,304.7133 c -3.0489,5.06929 9.19427,62.13896 -52.06447,66.54894 -31.29526,2.25298 -65.88432,0.5024 -65.21019,25.41082 183.27196,6.19732 155.99669,-18.36799 153.44554,-67.20044"
     id="use4492-4-6-5-2-0" />
  <path
     style="fill:#b6acb2;fill-opacity:1;fill-rule:nonzero;stroke:#000000;stroke-width:3;stroke-linecap:round;stroke-linejoin:round;stroke-miterlimit:4;stroke-dasharray:none;stroke-opacity:1"
     d="m 246.6955,304.7133 c 3.0489,5.06929 -9.1943,62.13896 52.0646,66.54894 31.2952,2.25298 65.8843,0.5024 65.2102,25.41082 -183.27202,6.19732 -161.1024,-20.0699 -153.4456,-67.20044"
     id="use4492-4-6-9-6" />
  <path
     id="path2383-6-2-2-8-0-3-5"
     style="fill:#ddd5d9;fill-opacity:1;stroke:#000000;stroke-width:3;stroke-linecap:round;stroke-linejoin:round;stroke-miterlimit:4;stroke-dasharray:none"
     d="m 310.7648,225.84306 c 0.027,57.43388 -49.851,104.0096 -111.38238,104.0096 -61.51896,0 -111.39457,-46.57572 -111.38222,-104.0096 C 87.9866,168.39761 137.86346,121.822 199.38242,121.822 c 61.53138,0 111.40718,46.57561 111.38238,104.02106 z" />
  <path
     id="use4027-8-2-5"
     style="fill:#ddd5d9;fill-opacity:1;fill-rule:evenodd;stroke:#000000;stroke-width:3;stroke-linecap:round;stroke-linejoin:round;stroke-miterlimit:4;stroke-dasharray:none"
     d="m 152.25396,139.51133 c 3.78371,-12.98411 -7.64159,-35.81232 -7.64159,-35.81232 l 19.09201,-8.710181 c 0,0 9.55263,23.785121 21.88709,30.446381" />
  <path
     d="m 243.7484,139.51133 c -3.7837,-12.98411 7.6416,-35.81232 7.6416,-35.81232 l -19.092,-8.710181 c 0,0 -9.5526,23.785121 -21.8871,30.446381"
     style="fill:#ddd5d9;fill-opacity:1;fill-rule:evenodd;stroke:#000000;stroke-width:3;stroke-linecap:round;stroke-linejoin:round;stroke-miterlimit:4;stroke-dasharray:none"
     id="path4943-8" />
  <path
     id="path2383-6-2-8-9-0-6-6-2-7"
     style="fill:#ddd5d9;fill-opacity:1;stroke:#000000;stroke-width:3;stroke-linecap:round;stroke-linejoin:round;stroke-miterlimit:4;stroke-dasharray:none"
     d="m 182.8498,57.613647 c 4.77963,25.353191 -12.43875,49.684113 -38.45256,54.334473 -26.00866,4.64943 -50.96251,-12.142523 -55.72669,-37.498471 -4.78059,-25.358193 12.44307,-49.690036 38.45177,-54.339506 26.0138,-4.65039 50.96773,12.141601 55.72748,37.503504 z" />
  <path
     d="m 213.1526,57.613647 c -4.7797,25.353191 12.4387,49.684113 38.4525,54.334473 26.0087,4.64943 50.9625,-12.142523 55.7267,-37.498471 4.7806,-25.358193 -12.443,-49.690036 -38.4517,-54.339506 -26.0138,-4.65039 -50.9678,12.141601 -55.7275,37.503504 z"
     style="fill:#ddd5d9;fill-opacity:1;stroke:#000000;stroke-width:3;stroke-linecap:round;stroke-linejoin:round;stroke-miterlimit:4;stroke-dasharray:none"
     id="path4945-6" />
  <path
     id="path3221-7-6-1-3-8-8-9"
     style="opacity:0.2;fill:#000000;fill-opacity:1;stroke-width:3;stroke-miterlimit:4;stroke-dasharray:none"
     d="m 304.0316,192.40622 c 0.07,1.60421 0.1215,3.22783 0.1215,4.84158 0,57.39678 -49.8867,103.98032 -111.37584,103.98032 -48.05652,0 -89.06632,-28.48003 -104.67494,-68.32403 2.70483,55.1666 51.53408,99.17754 111.28435,99.17754 61.48923,0 111.37603,-46.58456 111.37603,-103.981 0,-12.53079 -2.3795,-24.55918 -6.7316,-35.69441 z" />
  <path
     id="path3230-2-0-8-3-09-3-9"
     style="opacity:0.59259261;fill:#8e7375;fill-opacity:1;stroke:#9e6123;stroke-width:3;stroke-miterlimit:4;stroke-dasharray:none;stroke-opacity:1"
     d="m 130.30063,214.72196 a 14.004584,21.628932 14.592084 0 1 -27.24442,-6.51388 14.004584,21.628932 14.592084 1 1 27.24442,6.51388 z" />
  <path
     id="path3232-0-0-4-0-5-1-5"
     style="opacity:0.59259261;fill:#8e7375;fill-opacity:1;stroke:#9e6123;stroke-width:3;stroke-miterlimit:4;stroke-dasharray:none;stroke-opacity:1"
     d="m 206.7409,245.54109 a 25.466682,26.275932 0 0 1 -50.93316,0 25.466682,26.275932 0 1 1 50.93316,0 z" />
  <path
     id="path3234-1-0-9-7-3-3-0"
     style="opacity:0.59259261;fill:#8e7375;fill-opacity:1;stroke:#9e6123;stroke-width:3;stroke-miterlimit:4;stroke-dasharray:none;stroke-opacity:1"
     d="m 287.4852,200.09748 a 15.157436,8.8350858 70.685345 0 1 -16.8074,5.4638 15.157436,8.8350858 70.685345 0 1 16.8074,-5.4638 z" />
  <path
     id="path3236-4-6-4-7-3-7-0"
     style="opacity:0.59259261;fill:#8e7375;fill-opacity:1;stroke:#9e6123;stroke-width:3;stroke-miterlimit:4;stroke-dasharray:none;stroke-opacity:1"
     d="m 249.738,253.70582 a 12.549281,15.117692 0 0 1 -25.0985,0 12.549281,15.117692 0 1 1 25.0985,0 z" />
  <path
     id="path3238-9-6-4-6-8-5-6"
     style="opacity:0.59259261;fill:#8e7375;fill-opacity:1;stroke:#9e6123;stroke-width:3;stroke-miterlimit:4;stroke-dasharray:none;stroke-opacity:1"
     d="m 245.8681,192.01853 a 19.930604,21.595955 0 0 1 -39.8611,0 19.930604,21.595955 0 1 1 39.8611,0 z" />
  <path
     id="path3242-8-7-4-4-58-9-1"
     style="opacity:0.59259261;fill:#8e7375;fill-opacity:1;stroke:#9e6123;stroke-width:3;stroke-miterlimit:4;stroke-dasharray:none;stroke-opacity:1"
     d="m 141.02499,238.54047 a 13.998662,8.2378826 58.764495 0 1 -14.36851,8.07418 13.998662,8.2378826 58.764495 1 1 14.36851,-8.07418 z" />
  <path
     id="path3157-8-1-0-4-1-3-9-9"
     style="fill:#ffffff;stroke:#000000;stroke-width:3;stroke-linecap:round;stroke-linejoin:round;stroke-miterlimit:4;stroke-dasharray:none"
     d="m 160.30414,52.976396 c 2.34986,12.435657 -6.09667,24.367719 -18.8548,26.648613 -12.75817,2.280554 -24.9979,-5.953607 -27.3272,-18.392837 -2.34985,-12.435656 6.09671,-24.367753 18.85484,-26.648477 12.75813,-2.280656 24.99776,5.953471 27.32716,18.392701 z" />
  <path
     id="path3163-7-6-0-4-6-6-8-8"
     style="fill:#000000;stroke-width:3;stroke-miterlimit:4;stroke-dasharray:none"
     d="m 151.43204,58.669714 c 0.78111,4.152446 -2.03153,8.12592 -6.28099,8.885515 -4.25943,0.7615 -8.33532,-1.980542 -9.11639,-6.132988 -0.77924,-4.142507 2.03347,-8.115981 6.2929,-8.87738 4.24942,-0.759697 8.32524,1.982346 9.10448,6.124853 z" />
  <path
     id="path3221-7-6-1-7-7-2-5-9-4"
     style="opacity:0.2;fill:#000000;fill-opacity:1;stroke-width:3;stroke-miterlimit:4;stroke-dasharray:none"
     d="m 177.03895,42.363754 c 0.1644,0.702751 0.3203,1.415645 0.45431,2.128097 4.76625,25.338485 -12.45622,49.673902 -38.45229,54.321126 -20.31715,3.631863 -40.01997,-5.841622 -49.92742,-22.251398 5.7244,24.149361 30.02295,39.888251 55.28376,35.372411 25.99604,-4.64722 43.21864,-28.982776 38.45239,-54.321057 -1.04062,-5.532079 -3.04539,-10.662203 -5.81,-15.249349 z" />
  <path
     d="m 235.6982,52.976396 c -2.3499,12.435657 6.0967,24.367719 18.8548,26.648613 12.7582,2.280554 24.9979,-5.953607 27.3272,-18.392837 2.3499,-12.435656 -6.0967,-24.367753 -18.8548,-26.648477 -12.7582,-2.280656 -24.9978,5.953471 -27.3272,18.392701 z"
     style="fill:#ffffff;fill-opacity:1;stroke:#000000;stroke-width:3;stroke-linecap:round;stroke-linejoin:round;stroke-miterlimit:4;stroke-dasharray:none"
     id="path4947-8" />
  <path
     d="m 244.5703,58.669714 c -0.7811,4.152446 2.0315,8.12592 6.281,8.885515 4.2594,0.7615 8.3353,-1.980542 9.1164,-6.132988 0.7792,-4.142507 -2.0335,-8.115981 -6.2929,-8.87738 -4.2494,-0.759697 -8.3253,1.982346 -9.1045,6.124853 z"
     style="fill:#000000;stroke-width:3;stroke-miterlimit:4;stroke-dasharray:none"
     id="path4949-8" />
  <path
     d="m 300.2855,42.363754 c 0.1644,0.702751 0.3203,1.415645 0.4543,2.128097 4.7663,25.338485 -12.4562,49.673902 -38.4523,54.321126 -20.3171,3.631863 -40.02,-5.841622 -49.9274,-22.251398 5.7244,24.149361 30.0229,39.888251 55.2838,35.372411 25.996,-4.64722 43.2186,-28.982776 38.4523,-54.321057 -1.0406,-5.532079 -3.0453,-10.662203 -5.81,-15.249349 z"
     style="opacity:0.2;fill:#000000;fill-opacity:1;stroke-width:3;stroke-miterlimit:4;stroke-dasharray:none"
     id="path4951-8" />
</svg>
