<?xml version="1.0" encoding="UTF-8" standalone="no"?>
<svg
   xmlns:dc="http://purl.org/dc/elements/1.1/"
   xmlns:cc="http://creativecommons.org/ns#"
   xmlns:rdf="http://www.w3.org/1999/02/22-rdf-syntax-ns#"
   xmlns:svg="http://www.w3.org/2000/svg"
   xmlns="http://www.w3.org/2000/svg"
   xmlns:sodipodi="http://sodipodi.sourceforge.net/DTD/sodipodi-0.dtd"
   xmlns:inkscape="http://www.inkscape.org/namespaces/inkscape"
   id="svg8"
   version="1.1"
   viewBox="0 0 105.83334 105.83335"
   height="105.83334mm"
   width="105.83334mm"
   sodipodi:docname="dreamwidthLogo.svg"
   inkscape:version="0.92.4 (5da689c313, 2019-01-14)">
  <sodipodi:namedview
     pagecolor="#ffffff"
     bordercolor="#666666"
     borderopacity="1"
     objecttolerance="10"
     gridtolerance="10"
     guidetolerance="10"
     inkscape:pageopacity="0"
     inkscape:pageshadow="2"
     inkscape:window-width="1920"
     inkscape:window-height="1016"
     id="namedview9"
     showgrid="false"
     fit-margin-top="0"
     fit-margin-left="0"
     fit-margin-right="0"
     fit-margin-bottom="0"
     inkscape:zoom="0.61549895"
     inkscape:cx="191.47584"
     inkscape:cy="191.71439"
     inkscape:window-x="0"
     inkscape:window-y="27"
     inkscape:window-maximized="1"
     inkscape:current-layer="svg8" />
  <defs
     id="defs2" />
  <metadata
     id="metadata5">
    <rdf:RDF>
      <cc:Work
         rdf:about="">
        <dc:format>image/svg+xml</dc:format>
        <dc:type
           rdf:resource="http://purl.org/dc/dcmitype/StillImage" />
        <dc:title></dc:title>
      </cc:Work>
    </rdf:RDF>
  </metadata>
  <g
     transform="matrix(1.0432185,0,0,1.0432185,-193.85767,-139.39526)"
     id="layer1"
     style="stroke-width:0.95857197">
    <g
       id="g1661"
       style="stroke-width:0.95857197">
      <path
         id="path1582"
         d="m 232.89188,233.52136 c 8.55035,-4.49957 14.10028,-10.70827 16.38995,-18.33538 0.41505,-1.38257 0.63423,-3.11003 0.73881,-5.82288 0.14431,-3.74346 0.12271,-3.93465 -0.73256,-6.48655 -1.55713,-4.64606 -4.56335,-10.01755 -6.79339,-12.13842 -1.68214,-1.59979 -4.1763,-2.97198 -6.47083,-3.55999 -3.13182,-0.80259 -8.62942,-0.68388 -12.20837,0.26362 -10.69847,2.83233 -18.44343,9.7227 -20.30462,18.06419 -0.45284,2.02957 -0.36558,6.55179 0.1654,8.57143 1.47063,5.59373 5.26238,10.36616 9.39524,11.82519 5.38019,1.89936 11.40303,0.47059 15.67443,-3.71838 1.36252,-1.33622 2.20293,-2.47098 2.85664,-3.85714 0.87706,-1.85977 0.92622,-2.13857 0.92669,-5.25568 5.8e-4,-3.12427 -0.0459,-3.38589 -0.91098,-5.14285 -1.80735,-3.67054 -3.86488,-4.98668 -7.8028,-4.9912 -2.02341,-0.002 -2.69073,0.12086 -4,0.73844 -1.85959,0.87716 -3.87889,2.806 -4.60805,4.40162 -0.63694,1.39382 -0.68234,3.65285 -0.10623,5.28572 0.57074,1.61765 0.54038,1.90403 -0.13687,1.29113 -0.81233,-0.73515 -1.64541,-3.16647 -1.86988,-5.4572 0.35447,-8.93308 6.26335,-13.45387 13.27183,-11.97679 7.51935,1.91649 10.42499,6.70547 11.92797,11.62908 1.90512,6.57751 -0.22863,13.4168 -5.55705,17.81193 -3.85737,3.18173 -8.10216,4.58497 -13.12921,4.34023 -3.77144,-0.18361 -6.56666,-1.07252 -9.60061,-3.0531 -5.60711,-3.66037 -9.5782,-8.95466 -11.52112,-15.36005 -0.68753,-2.26665 -0.76203,-2.95572 -0.76574,-7.08238 -0.004,-3.83199 0.0974,-4.94114 0.62339,-6.85714 1.2043,-4.3867 3.30095,-8.01383 6.57534,-11.37515 5.30572,-5.44656 11.49454,-8.42608 19.41451,-9.34683 6.39167,-0.74306 14.15624,1.27666 20.38532,5.30265 2.6122,1.68832 6.18708,5.13479 7.5981,7.32517 1.75955,2.73143 1.9033,2.44587 1.68477,-3.34679 -0.52727,-13.97623 -3.70725,-30.66307 -9.46049,-49.64355 -0.55643,-1.8357 -1.01169,-3.52951 -1.01169,-3.76402 0,-0.4925 0.1785,-0.39995 11.57143,5.99997 4.24286,2.38341 9.74136,5.45812 12.2189,6.83269 2.47753,1.37458 4.6464,2.76417 4.81971,3.08799 0.54708,1.02224 0.46474,16.38108 -0.11908,22.21358 -2.22346,22.2125 -6.28965,36.78889 -13.53019,48.50273 -3.44596,5.57492 -9.22716,12.77855 -10.49152,13.07289 -1.53914,0.35831 -13.7107,1.56281 -15.75496,1.55911 l -2.28572,-0.004 2.93353,-1.54376 z"
         style="opacity:1;vector-effect:none;fill:#e96e75;fill-opacity:1;stroke:none;stroke-width:0.95857197;stroke-linecap:butt;stroke-linejoin:miter;stroke-miterlimit:4;stroke-dasharray:none;stroke-dashoffset:0;stroke-opacity:1;marker:none"
         inkscape:connector-curvature="0" />
      <path
         id="path1590"
         d="m 237.27631,232.16442 c 10.1108,-6.68938 14.52118,-14.74678 13.42382,-24.5242 -0.48731,-4.3419 -2.39368,-9.25182 -5.50494,-14.17815 -3.04795,-4.8261 -7.85153,-7.24179 -14.40021,-7.24179 -6.1023,0 -12.23648,1.9321 -17.72179,5.5819 -9.12642,6.07252 -12.58298,15.69771 -8.95806,24.94478 2.10785,5.37704 6.84736,9.715 11.89981,10.89162 1.99952,0.46565 5.59111,0.4743 7.5149,0.0181 4.16368,-0.98738 8.18809,-4.12278 9.98055,-7.77582 1.81796,-3.70503 1.48792,-8.59915 -0.82079,-12.17118 -2.3712,-3.66872 -5.36548,-5.3267 -9.30262,-5.15101 -2.7923,0.1246 -4.85534,0.99635 -6.66601,2.81677 -1.52653,1.53474 -2.26457,2.94233 -2.57283,4.90685 l -0.23685,1.50945 -0.2259,-1.37538 c -0.31557,-1.92128 -0.0561,-3.4057 0.95409,-5.45762 2.48106,-5.03975 8.45788,-7.81122 13.62732,-6.31904 2.84596,0.82149 4.93883,2.30035 6.88677,4.86631 1.64696,2.1695 2.59614,4.29 3.11262,6.95371 0.51048,2.6328 0.50572,3.95508 -0.0233,6.47487 -1.23188,5.86747 -5.63841,10.64437 -11.82224,12.81592 -2.21164,0.77665 -2.81114,0.86489 -5.89079,0.86711 -3.03642,0.002 -3.70311,-0.0917 -5.82892,-0.82098 -7.02745,-2.4108 -12.3017,-8.45739 -14.45901,-16.57633 -0.73256,-2.757 -0.87799,-8.39228 -0.29124,-11.28573 1.05792,-5.21699 3.22261,-9.33225 6.93407,-13.18231 5.14509,-5.33721 11.71941,-8.54091 19.34608,-9.42745 6.40194,-0.74416 13.61479,1.03905 19.01331,4.70062 3.38096,2.29316 7.05424,6.62875 9.1742,10.82837 0.45871,0.90872 0.94164,1.6522 1.07318,1.6522 0.43789,0 0.58256,-4.7549 0.31893,-10.48246 -0.60695,-13.18641 -3.26281,-27.39667 -8.31465,-44.48774 -0.92413,-3.12645 -1.68024,-5.7943 -1.68024,-5.92857 0,-0.52959 0.85786,-0.12502 6.39537,3.01614 3.16112,1.79314 8.83321,4.97823 12.60463,7.07796 l 6.85715,3.81769 0.18089,1.85062 c 0.34836,3.56391 0.2437,14.0064 -0.19234,19.19055 -1.88488,22.40983 -6.17654,37.92673 -13.95178,50.44394 -1.81746,2.9259 -6.98912,9.69051 -8.53012,11.15754 l -0.98883,0.94136 -6.11605,0.69664 c -3.36383,0.38316 -6.61586,0.69883 -7.22673,0.7015 -1.09069,0.005 -1.047,-0.0373 2.42857,-2.33675 z"
         style="fill:#c1262c;stroke-width:0.95857197"
         inkscape:connector-curvature="0" />
    </g>
  </g>
</svg>
