<?xml version="1.0" encoding="UTF-8" standalone="no"?>
<svg
   xmlns:dc="http://purl.org/dc/elements/1.1/"
   xmlns:cc="http://creativecommons.org/ns#"
   xmlns:rdf="http://www.w3.org/1999/02/22-rdf-syntax-ns#"
   xmlns:svg="http://www.w3.org/2000/svg"
   xmlns="http://www.w3.org/2000/svg"
   version="1.1"
   id="svg2880"
   height="100"
   width="100">
  <defs
     id="defs2882" />
  <metadata
     id="metadata2885">
    <rdf:RDF>
      <cc:Work
         rdf:about="">
        <dc:format>image/svg+xml</dc:format>
        <dc:type
           rdf:resource="http://purl.org/dc/dcmitype/StillImage" />
        <dc:title></dc:title>
      </cc:Work>
    </rdf:RDF>
  </metadata>
  <g
     transform="translate(-119.19595,-284.32437)"
     id="layer1">
    <g
       style="stroke-width:0.98210114"
       transform="matrix(1.0182251,0,0,1.0182251,95.650148,-535.60586)"
       id="g4644">
      <path
         id="path4639"
         d="m 96.925831,881.563 c -3.735488,21.79036 -38.392563,21.90151 -38.392563,21.90151 0,0 21.203396,-6.56966 19.750703,-22.34174 -1.327052,-14.408 18.64186,0.44023 18.64186,0.44023 z"
         style="fill:#a22430;fill-opacity:1;stroke:none;stroke-width:0.98210114" />
      <rect
         style="fill:#a22430;fill-opacity:1;stroke:none;stroke-width:0.98210114"
         id="rect3328"
         width="89.521233"
         height="77.451447"
         x="27.052763"
         y="805.25439"
         ry="12.913471" />
      <path
         style="fill:#ffffff;fill-opacity:1;stroke:none;stroke-width:0.98210114"
         d="m 75.035672,851.19107 h 18.049506 c 0,0 0,-8.6579 0,0 0,8.65789 -3.668599,22.15834 -20.837642,21.27788 -17.169046,-0.88046 -20.984391,-14.38091 -21.131135,-23.47904 -0.146742,-9.09813 2.647404,-20.32513 22.892066,-19.81044 17.315785,0.44023 18.929973,16.28858 18.929973,16.28858 l -8.364408,-0.14674 c 0,0 -1.907672,-8.6579 -12.03301,-8.21766 -10.125331,0.44023 -11.446027,2.20115 -11.446027,12.91347 0,10.71231 4.695277,14.39422 11.886261,14.67439 11.299291,0.44023 10.272082,-5.86976 10.272082,-5.86976 l -5.282787,0.29349 z"
         id="path4512" />
      <path
         style="fill:#ffffff;fill-opacity:1;stroke:none;stroke-width:0.98210114"
         d="m 84.147497,815.7524 c 1.37154,-1.22326 7.263833,5.94313 7.410571,8.73126 0.215959,4.10316 0.324743,11.56015 -11.886259,11.44603 -7.850803,-0.0734 -8.217663,-5.42952 -8.217663,-5.42952 0,0 -0.220117,-4.62244 4.035458,-4.62244 4.25557,0 2.858324,3.00825 6.236624,3.00825 5.062667,0 4.273427,-2.05348 4.402315,-4.69581 0.293494,-6.0165 -3.352577,-7.21451 -1.981046,-8.43777 z"
         id="path4516" />
      <path
         id="path4611"
         d="m 59.19991,815.7524 c -1.371534,-1.22326 -7.410569,4.62243 -7.410569,8.73126 0,4.10883 -0.324741,11.56015 11.886261,11.44603 7.850803,-0.0734 8.217663,-5.42952 8.217663,-5.42952 0,0 0.220117,-4.62244 -4.035458,-4.62244 -4.255574,0 -2.858321,3.00825 -6.236621,3.00825 -5.062668,0 -4.273428,-2.05348 -4.402318,-4.69581 -0.293491,-6.0165 3.352577,-7.21451 1.981042,-8.43777 z"
         style="fill:#ffffff;fill-opacity:1;stroke:none;stroke-width:0.98210114" />
    </g>
  </g>
</svg>
