<?xml version="1.0" encoding="UTF-8" standalone="no"?>
<svg
   xmlns:dc="http://purl.org/dc/elements/1.1/"
   xmlns:cc="http://creativecommons.org/ns#"
   xmlns:rdf="http://www.w3.org/1999/02/22-rdf-syntax-ns#"
   xmlns:svg="http://www.w3.org/2000/svg"
   xmlns="http://www.w3.org/2000/svg"
   viewBox="0 0 400 400.00004"
   height="400.00003"
   width="400"
   xml:space="preserve"
   version="1.1"
   id="svg2"><metadata
     id="metadata8"><rdf:RDF><cc:Work
         rdf:about=""><dc:format>image/svg+xml</dc:format><dc:type
           rdf:resource="http://purl.org/dc/dcmitype/StillImage" /><dc:title></dc:title></cc:Work></rdf:RDF></metadata><defs
     id="defs6"><clipPath
       id="clipPath18"
       clipPathUnits="userSpaceOnUse"><path
         id="path20"
         d="M 0,250 H 1023 V 0 H 0 Z" /></clipPath></defs><g
     style="stroke-width:0.76245189"
     transform="scale(1.311556,1.3115604)"
     id="g821"><path
       d="m 304.98025,152.49025 c 0,84.2175 -68.2725,152.49 -152.49,152.49 -84.2175,0 -152.49,-68.2725 -152.49,-152.49 0,-84.218755 68.2725,-152.490005 152.49,-152.490005 84.2175,0 152.49,68.27125 152.49,152.490005"
       style="fill:#ffffff;fill-opacity:1;fill-rule:nonzero;stroke:none;stroke-width:0.95306486"
       id="path60" /><path
       d="M 152.49,0 C 68.2725,0 0,68.2725 0,152.49 c 0,64.6025 40.19375,119.82875 96.91875,142.0475 -1.3325,-12.065 -2.5375,-30.62 0.52875,-43.79125 2.77125,-11.90126 17.88125,-75.7975 17.88125,-75.7975 0,0 -4.56125,-9.135 -4.56125,-22.64 0,-21.20375 12.29,-37.03375 27.5925,-37.03375 13.01,0 19.29375,9.7675 19.29375,21.48 0,13.08375 -8.33,32.645 -12.62875,50.7725 -3.5925,15.1775 7.61125,27.555 22.58125,27.555 27.1025,0 47.93625,-28.5775 47.93625,-69.82875 0,-36.51124 -26.235,-62.03875 -63.69625,-62.03875 -43.38875,0 -68.85625,32.54375 -68.85625,66.17625 0,13.10625 5.04875,27.16 11.34875,34.8 1.24625,1.50999 1.42875,2.8325 1.0575,4.37374 -1.1575,4.81626 -3.73,15.17376 -4.235,17.29375 -0.665,2.79126 -2.21,3.38375 -5.1,2.03875 -19.045,-8.865 -30.9525,-36.70999 -30.9525,-59.07499 0,-48.1025 34.95,-92.27875 100.75625,-92.27875 52.89875,0 94.0075,37.695 94.0075,88.07125 0,52.55374 -33.13625,94.84875 -79.12875,94.84875 -15.4525,0 -29.97875,-8.0275 -34.95125,-17.51001 0,0 -7.64625,29.11501 -9.5,36.25001 -3.4425,13.245 -12.73625,29.84751 -18.9525,39.97625 14.2675,4.4175 29.43,6.8 45.15,6.8 84.21875,0 152.49125,-68.27251 152.49125,-152.49001 C 304.98125,68.2725 236.70875,0 152.49,0"
       style="fill:#e60023;fill-opacity:1;fill-rule:nonzero;stroke:none;stroke-width:0.95306486"
       id="path64" /></g></svg>