<?xml version="1.0" encoding="UTF-8" standalone="no"?>
<svg
   xmlns:dc="http://purl.org/dc/elements/1.1/"
   xmlns:cc="http://creativecommons.org/ns#"
   xmlns:rdf="http://www.w3.org/1999/02/22-rdf-syntax-ns#"
   xmlns:svg="http://www.w3.org/2000/svg"
   xmlns="http://www.w3.org/2000/svg"
   xmlns:sodipodi="http://sodipodi.sourceforge.net/DTD/sodipodi-0.dtd"
   xmlns:inkscape="http://www.inkscape.org/namespaces/inkscape"
   width="89.914001"
   height="89.914001"
   version="1.1"
   xml:space="preserve"
   style="clip-rule:evenodd;fill-rule:evenodd;stroke-linejoin:round;stroke-miterlimit:1.41420996"
   id="svg25"
   sodipodi:docname="Reddit_logo_new_square.svg"
   inkscape:version="0.92.4 (5da689c313, 2019-01-14)"><metadata
   id="metadata31"><rdf:RDF><cc:Work
       rdf:about=""><dc:format>image/svg+xml</dc:format><dc:type
         rdf:resource="http://purl.org/dc/dcmitype/StillImage" /><dc:title></dc:title></cc:Work></rdf:RDF></metadata><defs
   id="defs29">
        
        
    </defs><sodipodi:namedview
   pagecolor="#ffffff"
   bordercolor="#666666"
   borderopacity="1"
   objecttolerance="10"
   gridtolerance="10"
   guidetolerance="10"
   inkscape:pageopacity="0"
   inkscape:pageshadow="2"
   inkscape:window-width="1920"
   inkscape:window-height="1016"
   id="namedview27"
   showgrid="false"
   inkscape:zoom="1.137931"
   inkscape:cx="132.71458"
   inkscape:cy="44.957001"
   inkscape:window-x="0"
   inkscape:window-y="27"
   inkscape:window-maximized="1"
   inkscape:current-layer="svg25"
   fit-margin-top="0"
   fit-margin-left="0"
   fit-margin-right="0"
   fit-margin-bottom="0" />
    <g
   id="g22"
   transform="translate(-14.042999,-10.042999)">
            <circle
   id="circle18"
   style="fill:#ff4500"
   r="44.957001"
   cy="55"
   cx="59" />
            <path
   inkscape:connector-curvature="0"
   id="path20"
   style="fill:#ffffff;fill-rule:nonzero"
   d="m 88.989,55 c 0,-3.648 -2.95,-6.545 -6.545,-6.545 -1.77,0 -3.38,0.697 -4.56,1.824 C 73.378,47.06 67.208,44.968 60.341,44.7 l 3.004,-14.056 9.764,2.092 c 0.108,2.468 2.146,4.453 4.668,4.453 2.575,0 4.667,-2.092 4.667,-4.668 0,-2.575 -2.092,-4.667 -4.667,-4.667 -1.824,0 -3.434,1.073 -4.185,2.629 l -10.89,-2.307 c -0.322,-0.054 -0.644,0 -0.859,0.161 -0.268,0.161 -0.429,0.429 -0.482,0.751 l -3.327,15.665 c -6.974,0.215 -13.251,2.307 -17.811,5.58 -1.18,-1.127 -2.79,-1.824 -4.56,-1.824 -3.648,0 -6.545,2.95 -6.545,6.545 0,2.682 1.609,4.935 3.863,5.955 -0.108,0.643 -0.161,1.287 -0.161,1.985 0,10.085 11.749,18.294 26.234,18.294 14.485,0 26.234,-8.155 26.234,-18.294 0,-0.644 -0.054,-1.342 -0.161,-1.985 2.253,-1.02 3.862,-3.327 3.862,-6.009 z M 44.032,59.667 C 44.032,57.092 46.124,55 48.7,55 c 2.575,0 4.667,2.092 4.667,4.667 0,2.575 -2.092,4.668 -4.667,4.668 -2.576,0.053 -4.668,-2.093 -4.668,-4.668 z M 70.159,72.06 c -3.219,3.219 -9.335,3.434 -11.105,3.434 -1.824,0 -7.94,-0.269 -11.106,-3.434 -0.482,-0.483 -0.482,-1.234 0,-1.717 0.483,-0.482 1.234,-0.482 1.717,0 2.039,2.039 6.331,2.736 9.389,2.736 3.058,0 7.403,-0.697 9.388,-2.736 0.483,-0.482 1.234,-0.482 1.717,0 0.429,0.483 0.429,1.234 0,1.717 z M 69.3,64.388 c -2.575,0 -4.667,-2.092 -4.667,-4.667 0,-2.575 2.092,-4.667 4.667,-4.667 2.576,0 4.668,2.092 4.668,4.667 0,2.521 -2.092,4.667 -4.668,4.667 z" />
        </g>
</svg>