<?xml version="1.0" encoding="UTF-8" standalone="no"?>
<svg
   xmlns:dc="http://purl.org/dc/elements/1.1/"
   xmlns:cc="http://creativecommons.org/ns#"
   xmlns:rdf="http://www.w3.org/1999/02/22-rdf-syntax-ns#"
   xmlns:svg="http://www.w3.org/2000/svg"
   xmlns="http://www.w3.org/2000/svg"
   xmlns:sodipodi="http://sodipodi.sourceforge.net/DTD/sodipodi-0.dtd"
   xmlns:inkscape="http://www.inkscape.org/namespaces/inkscape"
   width="200"
   height="200"
   viewBox="0 0 201.0989 204.05405"
   version="1.1"
   id="svg11"
   sodipodi:docname="Twitter_bird_logo_2012.svg"
   inkscape:version="0.92.4 (5da689c313, 2019-01-14)">
  <metadata
     id="metadata15">
    <rdf:RDF>
      <cc:Work
         rdf:about="">
        <dc:format>image/svg+xml</dc:format>
        <dc:type
           rdf:resource="http://purl.org/dc/dcmitype/StillImage" />
        <dc:title></dc:title>
      </cc:Work>
    </rdf:RDF>
  </metadata>
  <sodipodi:namedview
     pagecolor="#ffffff"
     bordercolor="#666666"
     borderopacity="1"
     objecttolerance="10"
     gridtolerance="10"
     guidetolerance="10"
     inkscape:pageopacity="0"
     inkscape:pageshadow="2"
     inkscape:window-width="1920"
     inkscape:window-height="1016"
     id="namedview13"
     showgrid="false"
     fit-margin-top="0"
     fit-margin-left="0"
     fit-margin-right="0"
     fit-margin-bottom="0"
     inkscape:zoom="1.5945946"
     inkscape:cx="92.254237"
     inkscape:cy="74"
     inkscape:window-x="0"
     inkscape:window-y="27"
     inkscape:window-maximized="1"
     inkscape:current-layer="svg11" />
  <defs
     id="defs5">
    <clipPath
       id="A">
      <path
         d="M 0,10 H 1367 V 1121 H 0 Z"
         id="path2"
         inkscape:connector-curvature="0" />
    </clipPath>
  </defs>
  <g
     clip-path="url(#A)"
     transform="matrix(0.14927144,0,0,-0.14927144,0,187.89244)"
     id="g9"
     style="stroke-width:0.89099431">
    <path
       d="m 1367,989 c -50.3,-22.3 -104,-37.4 -161,-44.2 a 281.3,281.3 0 0 1 123,155 556.7,556.7 0 0 0 -178,-68 c -227,225 -547,-8.4 -478,-256 -233,11.7 -440,123 -578,293 -79.4,-135 -27.7,-301 86.8,-374 -46,1.44 -89.2,14.1 -127,35.1 -0.04,-1.18 -0.04,-2.35 -0.04,-3.52 0,-136 96.7,-249 225,-275 -43.7,-10.8 -85.5,-12.5 -127,-4.8 35.7,-111 139,-192 262,-195 -124,-94.2 -268,-133 -415,-116 633,-372 1230,115 1228,672 a 849.9,849.9 0 0 1 -0.79,36.2 c 54.8,39.6 102,89 140,145"
       id="path7"
       inkscape:connector-curvature="0"
       style="fill:#55aaee;stroke-width:0.79387087" />
  </g>
</svg>
